<?xml version="1.0" standalone="no"?>
<!DOCTYPE svg PUBLIC "-//W3C//DTD SVG 20010904//EN"
 "http://www.w3.org/TR/2001/REC-SVG-20010904/DTD/svg10.dtd">
<svg version="1.0" xmlns="http://www.w3.org/2000/svg"
 width="754.000000pt" height="362.000000pt" viewBox="0 0 754.000000 362.000000"
 preserveAspectRatio="xMidYMid meet">

<g transform="translate(0.000000,362.000000) scale(0.100000,-0.100000)"
fill="#000000" stroke="none">
<path d="M3291 3057 c-15 -15 -14 -82 2 -94 6 -6 29 -13 50 -17 37 -7 38 -7
58 39 11 26 18 49 15 52 -3 3 -30 11 -60 18 -39 9 -57 10 -65 2z"/>
<path d="M4190 3056 c-62 -12 -68 -23 -45 -79 15 -36 17 -38 53 -32 61 11 62
11 62 64 0 27 -3 52 -7 54 -5 2 -33 -1 -63 -7z"/>
<path d="M4296 3063 c-3 -3 -6 -28 -6 -55 0 -52 1 -52 62 -63 36 -6 38 -4 53
31 8 20 15 42 15 49 0 18 -110 52 -124 38z"/>
<path d="M3148 3048 c-32 -11 -33 -20 -10 -68 16 -32 20 -35 57 -31 22 1 43 5
48 8 4 2 7 26 7 54 l0 49 -37 -1 c-21 0 -50 -5 -65 -11z"/>
<path d="M3018 2989 c-27 -17 -48 -34 -48 -38 0 -4 16 -22 35 -41 30 -29 38
-33 53 -22 9 7 27 17 40 24 12 6 22 17 22 23 0 24 -31 85 -43 85 -6 0 -33 -14
-59 -31z"/>
<path d="M3428 2974 l-16 -45 39 -25 c21 -13 42 -24 46 -24 14 0 63 54 63 69
0 16 -80 71 -103 71 -7 0 -20 -20 -29 -46z"/>
<path d="M4027 2990 c-26 -16 -47 -33 -47 -37 0 -5 14 -23 31 -42 l31 -33 35
18 c19 11 39 24 44 30 11 13 -19 94 -36 94 -6 0 -32 -13 -58 -30z"/>
<path d="M4436 2977 c-9 -23 -16 -45 -16 -48 0 -2 20 -15 44 -28 l43 -24 31
34 c17 19 32 37 32 41 0 11 -87 68 -103 68 -8 0 -22 -19 -31 -43z"/>
<path d="M2906 2887 c-20 -24 -36 -51 -36 -59 0 -7 20 -24 44 -35 l43 -21 27
40 c14 22 26 43 26 47 0 4 -15 22 -34 40 l-33 32 -37 -44z"/>
<path d="M3553 2891 l-32 -39 31 -40 31 -40 43 21 c24 12 44 27 44 33 0 13
-68 104 -78 104 -4 0 -21 -18 -39 -39z"/>
<path d="M3912 2886 c-18 -24 -32 -50 -32 -58 0 -7 18 -23 39 -34 l40 -22 30
39 c17 21 31 40 31 43 0 9 -61 76 -69 76 -4 0 -22 -20 -39 -44z"/>
<path d="M4562 2897 c-18 -18 -32 -36 -32 -41 0 -4 14 -24 31 -45 l31 -39 44
25 c24 14 44 27 44 29 0 8 -74 104 -80 104 -3 0 -20 -15 -38 -33z"/>
<path d="M3255 2871 c-3 -6 -16 -11 -28 -11 -12 0 -37 -9 -55 -20 -30 -19 -32
-22 -26 -62 3 -24 14 -55 25 -70 10 -15 16 -34 13 -43 -4 -8 1 -26 10 -40 25
-38 21 -109 -9 -153 -25 -37 -31 -67 -17 -89 10 -16 182 -26 217 -13 39 15 33
48 -10 56 -19 3 -55 20 -80 36 l-45 30 0 61 c1 36 6 69 14 80 8 10 12 26 9 36
-3 11 2 30 10 42 9 14 17 53 19 94 3 65 2 70 -19 73 -11 2 -24 -2 -28 -7z m22
-82 c-8 -64 -22 -89 -52 -89 -28 0 -42 21 -51 77 l-6 39 49 16 c26 9 52 13 57
11 5 -3 6 -27 3 -54z m-30 -125 c1 -5 -2 -16 -7 -24 -12 -20 -35 2 -26 25 6
17 27 16 33 -1z m51 -234 c18 -11 39 -20 47 -20 7 0 17 -4 20 -10 4 -6 -27
-10 -84 -10 -90 0 -91 0 -91 24 0 24 2 25 65 34 6 1 25 -7 43 -18z"/>
<path d="M4070 2791 c-6 -11 -10 -90 -10 -185 0 -204 -6 -196 152 -196 60 0
110 -4 113 -10 9 -14 138 -13 153 2 15 15 16 201 2 229 -8 14 -21 19 -50 19
l-40 0 0 64 c0 95 -3 96 -170 96 -127 0 -140 -2 -150 -19z m298 -78 c3 -48 1
-54 -22 -65 -26 -11 -27 -13 -31 -103 -4 -83 8 -75 -115 -75 l-110 0 0 150 0
151 138 -3 137 -3 3 -52z m92 -188 c0 -84 0 -85 -25 -85 -14 0 -25 -6 -26 -12
0 -10 -2 -10 -6 0 -2 6 -18 12 -34 12 l-29 0 0 78 c0 43 3 82 7 85 3 4 30 7
60 7 l53 0 0 -85z"/>
<path d="M2846 2782 c-16 -26 -36 -106 -29 -113 5 -5 29 -12 54 -15 l44 -6 13
47 c7 26 11 49 10 50 -6 6 -79 45 -83 45 -2 0 -6 -4 -9 -8z"/>
<path d="M3637 2768 c-39 -23 -41 -30 -21 -100 6 -19 37 -22 84 -9 20 6 24 12
22 35 -4 34 -30 96 -40 96 -4 0 -24 -10 -45 -22z"/>
<path d="M3836 2743 c-25 -73 -22 -81 28 -88 53 -8 62 -4 68 32 3 16 8 35 12
43 5 12 -6 22 -39 38 -25 12 -47 22 -49 22 -2 0 -11 -21 -20 -47z"/>
<path d="M4637 2764 c-32 -21 -36 -28 -27 -44 5 -10 10 -28 10 -39 0 -28 15
-34 67 -26 45 7 45 7 40 41 -7 40 -28 87 -42 90 -5 2 -27 -8 -48 -22z"/>
<path d="M3673 2622 c-47 -3 -58 -21 -51 -78 2 -24 10 -30 46 -41 42 -12 43
-11 52 13 12 30 13 101 3 106 -5 2 -27 2 -50 0z"/>
<path d="M2810 2566 c0 -66 11 -77 65 -62 33 10 41 16 43 40 2 16 1 39 -2 52
-6 21 -12 24 -56 24 l-50 0 0 -54z"/>
<path d="M3815 2563 c4 -32 10 -61 14 -65 7 -8 66 6 88 20 9 6 10 21 5 52 l-7
45 -54 3 -53 3 7 -58z"/>
<path d="M4637 2613 c-3 -4 -8 -27 -12 -49 l-6 -42 47 -16 c26 -9 51 -13 55
-9 4 5 9 33 10 63 l3 55 -46 3 c-25 2 -48 -1 -51 -5z"/>
<path d="M2880 2473 c-25 -8 -46 -16 -48 -18 -7 -6 53 -115 63 -115 5 0 26 13
45 29 l34 29 -19 41 c-10 23 -21 44 -24 45 -3 2 -26 -3 -51 -11z"/>
<path d="M3883 2473 c-24 -8 -43 -19 -43 -24 0 -17 50 -109 59 -109 5 0 24 12
43 27 18 15 34 28 36 29 5 3 -36 82 -45 87 -5 2 -27 -2 -50 -10z"/>
<path d="M4592 2448 c-12 -24 -22 -46 -22 -49 0 -7 73 -59 83 -59 8 0 57 94
57 109 0 6 -79 41 -94 41 -1 0 -11 -19 -24 -42z"/>
<path d="M3586 2448 c-22 -44 -21 -52 20 -83 39 -30 42 -28 73 28 27 49 26 61
-4 75 -45 21 -72 15 -89 -20z"/>
<path d="M2953 2344 c-18 -14 -33 -31 -33 -39 0 -17 84 -85 96 -77 5 4 19 23
31 42 l22 35 -36 32 c-19 18 -38 33 -42 33 -3 0 -21 -12 -38 -26z"/>
<path d="M3502 2337 l-31 -32 25 -43 c14 -23 28 -42 32 -42 5 0 28 21 52 46
l45 45 -35 29 c-19 16 -40 30 -46 30 -5 0 -24 -15 -42 -33z"/>
<path d="M3957 2343 c-20 -14 -37 -29 -37 -33 0 -16 80 -82 95 -78 9 1 27 19
38 39 l21 36 -35 31 c-19 17 -36 32 -39 32 -3 0 -22 -12 -43 -27z"/>
<path d="M4511 2339 l-34 -31 21 -37 c11 -20 28 -38 37 -39 20 -5 85 55 85 77
0 13 -60 62 -72 61 -2 0 -18 -14 -37 -31z"/>
<path d="M3078 2268 c-44 -68 -44 -66 17 -93 30 -14 58 -25 61 -25 5 0 18 33
28 72 6 25 2 29 -38 48 -55 25 -51 25 -68 -2z"/>
<path d="M3387 2272 c-37 -17 -38 -18 -31 -57 9 -59 18 -65 62 -48 20 7 45 16
55 20 23 7 22 22 -8 66 -29 42 -26 41 -78 19z"/>
<path d="M4075 2250 c-15 -23 -23 -46 -18 -51 4 -4 29 -17 55 -28 55 -23 67
-16 75 46 5 37 3 39 -34 53 -21 8 -41 16 -45 18 -4 2 -19 -16 -33 -38z"/>
<path d="M4402 2272 l-44 -17 7 -45 c4 -25 10 -48 14 -52 8 -9 121 33 121 45
0 8 -48 88 -53 86 -1 0 -21 -8 -45 -17z"/>
<path d="M3222 2237 c-6 -7 -12 -30 -14 -52 l-3 -40 63 -3 62 -3 0 30 c0 16
-4 41 -10 55 -8 22 -16 26 -49 26 -21 0 -43 -6 -49 -13z"/>
<path d="M4226 2241 c-3 -5 -9 -30 -12 -55 l-7 -46 62 0 c70 0 76 6 63 65 -8
39 -9 40 -54 43 -25 2 -49 -1 -52 -7z"/>
<path d="M2658 2177 c-42 -12 -45 -21 -23 -73 14 -35 16 -36 57 -29 24 4 46 9
51 12 4 2 7 26 7 54 0 47 -1 49 -27 48 -16 -1 -45 -6 -65 -12z"/>
<path d="M2780 2141 c0 -28 3 -52 8 -54 4 -3 26 -8 49 -12 42 -7 42 -6 62 36
12 24 18 46 14 49 -12 10 -87 30 -112 30 -19 0 -21 -6 -21 -49z"/>
<path d="M3668 2176 c-20 -6 -39 -14 -43 -17 -4 -5 15 -58 31 -87 1 -2 23 0
48 3 l46 7 0 54 c0 50 -2 54 -22 53 -13 -1 -40 -6 -60 -13z"/>
<path d="M3790 2135 c0 -37 4 -55 13 -55 6 0 28 -3 48 -6 35 -6 37 -5 52 35
10 23 17 45 17 49 0 8 -87 32 -116 32 -10 0 -14 -14 -14 -55z"/>
<path d="M4675 2177 c-22 -6 -42 -12 -44 -14 -2 -1 4 -23 14 -49 16 -43 19
-46 47 -40 17 3 39 6 49 6 16 0 19 8 19 55 0 62 -4 63 -85 42z"/>
<path d="M4797 2183 c-9 -9 -9 -75 1 -89 4 -6 26 -15 49 -19 41 -6 42 -6 63
35 12 23 18 46 13 50 -10 8 -85 30 -105 30 -8 0 -18 -3 -21 -7z"/>
<path d="M2518 2118 c-27 -16 -48 -33 -48 -36 0 -4 15 -25 34 -46 l33 -40 39
29 c21 16 40 30 42 31 7 3 -34 94 -43 93 -5 0 -31 -14 -57 -31z"/>
<path d="M2931 2113 c-8 -21 -16 -43 -18 -49 -2 -5 15 -22 38 -37 l42 -28 34
33 c18 17 33 37 33 44 0 12 -91 74 -108 74 -4 0 -14 -17 -21 -37z"/>
<path d="M3528 2119 c-27 -17 -48 -37 -48 -43 0 -7 13 -25 30 -41 26 -25 32
-27 57 -16 15 7 36 18 46 25 17 13 16 16 -2 60 -11 25 -24 46 -28 46 -4 0 -29
-14 -55 -31z"/>
<path d="M3936 2110 c-9 -22 -16 -44 -16 -48 0 -5 18 -20 41 -35 l40 -27 34
37 c18 20 31 41 29 47 -4 10 -95 66 -107 66 -3 0 -12 -18 -21 -40z"/>
<path d="M4538 2121 c-25 -16 -48 -33 -51 -38 -3 -5 10 -25 29 -45 l34 -37 40
26 c22 15 40 30 40 35 0 13 -34 88 -40 88 -4 0 -27 -13 -52 -29z"/>
<path d="M4940 2108 l-18 -43 31 -27 c17 -16 38 -28 46 -28 18 0 71 49 71 66
0 11 -88 74 -104 74 -4 0 -15 -19 -26 -42z"/>
<path d="M2403 2013 c-45 -58 -45 -59 -3 -87 22 -14 44 -26 48 -26 5 0 21 18
36 41 l27 40 -28 34 c-15 18 -33 34 -40 34 -6 1 -24 -16 -40 -36z"/>
<path d="M3051 2016 l-33 -34 28 -39 c15 -21 29 -40 31 -42 4 -6 93 43 93 51
0 10 -64 91 -75 95 -6 2 -26 -12 -44 -31z"/>
<path d="M3403 2006 c-18 -24 -33 -47 -33 -53 0 -7 73 -53 84 -53 2 0 17 18
35 41 l33 41 -33 34 c-18 19 -38 34 -43 34 -6 0 -26 -20 -43 -44z"/>
<path d="M4056 2016 c-14 -19 -26 -38 -26 -43 1 -4 14 -23 30 -42 l28 -33 41
23 c23 12 41 27 41 32 0 17 -61 97 -74 97 -8 0 -25 -15 -40 -34z"/>
<path d="M4412 2008 c-18 -23 -32 -47 -32 -53 0 -10 68 -55 83 -55 2 0 17 18
32 39 l27 40 -27 35 c-15 20 -33 36 -39 36 -6 0 -26 -19 -44 -42z"/>
<path d="M5067 2022 c-33 -34 -33 -44 -5 -85 13 -18 24 -34 25 -36 4 -7 93 44
93 53 0 12 -69 96 -79 96 -4 0 -19 -13 -34 -28z"/>
<path d="M3702 1976 c-105 -37 -162 -171 -114 -266 14 -30 21 -35 47 -32 25 2
33 -3 47 -30 10 -18 23 -57 29 -85 11 -56 44 -93 82 -93 26 0 77 48 77 72 0
27 -17 22 -32 -9 -9 -19 -22 -29 -42 -31 -37 -5 -43 3 -61 74 -9 32 -31 84
-50 116 -59 95 -38 185 50 215 46 16 77 8 130 -34 40 -32 43 -51 16 -84 -16
-19 -22 -22 -32 -11 -19 18 -63 15 -82 -6 -24 -26 -21 -55 8 -82 21 -20 28
-22 50 -12 15 7 33 28 41 47 8 19 18 35 22 35 17 0 35 48 37 102 3 55 1 60
-29 82 -60 45 -129 56 -194 32z"/>
<path d="M4640 1936 c0 -10 9 -16 25 -16 21 0 25 -5 25 -29 0 -21 -6 -32 -19
-36 -11 -3 -33 -21 -50 -40 -76 -87 -38 -220 74 -259 84 -28 184 28 201 112 3
17 12 32 19 32 21 0 28 -49 10 -76 -20 -31 -19 -47 5 -69 18 -16 20 -16 55 5
19 12 35 25 35 29 0 4 -13 17 -30 29 -22 16 -30 31 -30 52 0 29 -29 70 -50 70
-5 0 -16 15 -24 33 -19 46 -58 78 -112 92 -40 10 -48 16 -58 46 -9 28 -16 35
-43 37 -25 2 -33 -1 -33 -12z m172 -127 c66 -48 70 -141 7 -193 -24 -20 -41
-26 -79 -26 -43 0 -54 5 -85 35 -28 29 -35 43 -35 76 0 48 13 76 48 106 36 31
103 31 144 2z m165 -215 c5 -15 -20 -24 -37 -14 -7 4 -9 13 -5 19 8 14 37 11
42 -5z"/>
<path d="M4730 1710 c0 -5 5 -10 10 -10 6 0 10 5 10 10 0 6 -4 10 -10 10 -5 0
-10 -4 -10 -10z"/>
<path d="M2335 1889 c-9 -16 -17 -46 -18 -66 -2 -37 -1 -38 40 -43 24 -4 47
-4 52 -1 5 3 12 27 16 53 l7 47 -41 19 -41 20 -15 -29z"/>
<path d="M3137 1896 c-37 -20 -38 -23 -32 -61 3 -22 11 -45 18 -51 16 -15 87
-6 94 12 6 16 -25 124 -35 123 -4 -1 -24 -11 -45 -23z"/>
<path d="M3340 1894 c-6 -15 -13 -47 -17 -70 l-5 -42 41 -4 c52 -5 59 0 71 43
16 55 17 54 -72 97 -5 2 -13 -9 -18 -24z"/>
<path d="M4145 1897 c-22 -12 -41 -22 -43 -23 -6 -3 20 -89 29 -94 16 -10 88
2 93 16 6 15 -20 110 -32 118 -4 2 -26 -5 -47 -17z"/>
<path d="M5147 1896 c-35 -20 -38 -23 -32 -56 11 -60 21 -69 63 -63 20 3 41
10 47 14 11 11 -15 122 -30 125 -5 1 -27 -8 -48 -20z"/>
<path d="M4334 1854 c-9 -31 -12 -60 -8 -64 5 -5 29 -10 53 -12 l44 -3 13 45
c8 25 14 46 14 47 0 1 -15 11 -34 22 -52 33 -63 28 -82 -35z"/>
<path d="M3709 1851 c-37 -37 -38 -78 -3 -131 15 -22 29 -54 33 -70 3 -17 11
-31 16 -31 18 0 16 28 -4 68 -49 92 -51 101 -40 126 17 38 54 51 92 32 45 -22
56 -18 24 10 -39 34 -81 33 -118 -4z"/>
<path d="M2524 1823 c-67 -40 -64 -34 -55 -90 10 -65 33 -101 78 -119 54 -23
107 -10 154 37 21 21 40 49 41 62 0 12 1 29 2 37 1 8 10 15 21 15 16 0 21 -8
23 -38 6 -71 106 -138 179 -121 54 13 86 57 97 134 6 43 5 46 -31 70 -31 21
-48 25 -114 25 -64 0 -81 -4 -101 -21 -29 -26 -79 -25 -108 1 -31 28 -143 33
-186 8z m174 -31 c24 -16 29 -55 12 -94 -16 -35 -74 -68 -118 -68 -48 0 -77
26 -92 81 -18 64 7 92 90 101 39 5 83 -3 108 -20z m319 -6 c45 -56 -3 -156
-75 -156 -97 0 -169 104 -110 160 18 16 35 20 94 20 64 0 75 -3 91 -24z"/>
<path d="M3167 1750 c-20 -4 -39 -9 -41 -11 -2 -2 -6 -23 -9 -47 -6 -48 2 -55
66 -67 33 -6 37 -5 37 12 0 11 3 40 6 65 7 52 0 58 -59 48z"/>
<path d="M2306 1741 c-9 -14 6 -113 19 -117 6 -3 29 1 51 8 39 13 39 14 35 58
-1 25 -5 48 -8 53 -6 10 -91 9 -97 -2z"/>
<path d="M3310 1716 c0 -51 11 -96 24 -96 6 0 28 5 49 11 34 9 37 13 37 45 0
58 -14 74 -65 74 -44 0 -45 0 -45 -34z"/>
<path d="M4135 1738 c-2 -7 -6 -29 -9 -49 -7 -42 3 -53 55 -63 43 -8 49 1 49
75 l0 49 -45 0 c-28 0 -47 -5 -50 -12z"/>
<path d="M4320 1698 c0 -76 8 -84 61 -67 41 13 44 17 44 49 1 57 -10 70 -60
70 l-45 0 0 -52z"/>
<path d="M5142 1738 c-7 -7 -12 -31 -12 -55 0 -40 2 -43 38 -52 20 -6 42 -11
48 -11 13 0 24 45 24 96 0 33 -1 34 -43 34 -24 0 -48 -5 -55 -12z"/>
<path d="M2362 1597 c-28 -9 -32 -14 -28 -33 9 -35 46 -94 59 -94 7 0 27 13
46 29 l34 28 -23 41 c-25 44 -34 47 -88 29z"/>
<path d="M3080 1568 l-21 -43 33 -27 c43 -36 52 -35 77 7 38 65 37 78 -8 93
-57 17 -58 17 -81 -30z"/>
<path d="M3373 1598 c-39 -13 -40 -23 -11 -83 24 -50 32 -53 68 -29 47 31 50
41 26 84 -22 42 -31 45 -83 28z"/>
<path d="M4089 1568 l-22 -42 34 -28 c18 -15 38 -28 44 -28 10 0 65 90 65 107
0 8 -68 33 -90 33 -5 0 -19 -19 -31 -42z"/>
<path d="M4373 1594 c-18 -8 -33 -16 -33 -19 0 -18 53 -105 63 -105 7 0 28 12
46 28 l33 28 -18 39 c-21 45 -42 51 -91 29z"/>
<path d="M5092 1568 l-23 -43 33 -27 c18 -15 40 -27 48 -25 16 2 60 73 60 98
0 10 -15 20 -39 27 -54 17 -53 17 -79 -30z"/>
<path d="M2447 1468 l-38 -31 42 -43 c24 -24 48 -44 54 -44 10 0 55 63 55 78
0 8 -63 72 -70 72 -3 -1 -22 -15 -43 -32z"/>
<path d="M3002 1467 c-18 -18 -32 -36 -32 -40 0 -14 45 -77 55 -77 6 0 30 20
54 44 l43 43 -39 32 c-20 17 -40 31 -43 31 -3 0 -20 -15 -38 -33z"/>
<path d="M3453 1470 c-18 -16 -33 -34 -33 -39 0 -11 79 -81 92 -81 4 0 19 19
34 41 l26 41 -34 34 c-18 18 -37 33 -43 33 -5 0 -25 -13 -42 -29z"/>
<path d="M4007 1465 l-38 -33 27 -41 c14 -23 32 -41 38 -41 7 0 31 19 54 43
l42 43 -39 32 c-22 18 -41 32 -43 32 -2 -1 -20 -16 -41 -35z"/>
<path d="M4457 1467 l-37 -32 43 -43 c23 -23 48 -42 54 -42 11 0 53 63 53 81
0 9 -60 68 -70 68 -3 0 -22 -14 -43 -32z"/>
<path d="M5012 1465 l-33 -34 23 -40 c13 -23 27 -41 32 -41 15 0 96 70 96 83
0 10 -72 68 -82 66 -1 0 -18 -15 -36 -34z"/>
<path d="M2563 1374 c-13 -20 -23 -39 -23 -44 0 -13 112 -52 121 -43 4 4 11
27 15 50 6 41 6 42 -31 57 -51 22 -57 20 -82 -20z"/>
<path d="M2881 1394 c-32 -15 -33 -17 -27 -57 4 -23 11 -46 16 -51 10 -10 120
31 120 45 0 19 -46 79 -60 78 -8 0 -30 -7 -49 -15z"/>
<path d="M3571 1374 c-12 -19 -21 -39 -21 -43 0 -16 108 -57 119 -45 5 5 11
28 15 51 6 42 5 43 -30 58 -52 21 -59 19 -83 -21z"/>
<path d="M3893 1397 c-30 -10 -33 -15 -33 -53 0 -59 17 -70 75 -49 64 25 69
35 39 78 -26 39 -30 40 -81 24z"/>
<path d="M4573 1371 l-22 -39 22 -14 c12 -8 37 -20 56 -28 30 -12 35 -12 47 5
8 10 14 34 14 52 0 28 -5 35 -36 48 -51 21 -56 20 -81 -24z"/>
<path d="M4893 1394 c-18 -8 -33 -20 -33 -27 0 -24 21 -87 29 -87 17 0 111 43
111 51 0 4 -9 24 -21 43 -23 39 -36 42 -86 20z"/>
<path d="M2714 1355 c-8 -11 -14 -34 -14 -52 l0 -33 66 0 67 0 -6 45 c-2 26
-7 48 -10 51 -3 4 -24 7 -48 7 -31 2 -45 -3 -55 -18z"/>
<path d="M3725 1366 c-2 -6 -8 -26 -14 -45 -6 -18 -8 -37 -5 -42 3 -5 34 -9
70 -9 71 0 74 4 50 69 -11 30 -16 33 -55 35 -24 1 -44 -2 -46 -8z"/>
<path d="M4730 1365 c-5 -6 -12 -30 -16 -53 l-7 -42 67 0 66 0 0 38 c0 20 -4
43 -9 50 -10 17 -89 21 -101 7z"/>
<path d="M3413 1104 c-52 -19 -110 -81 -119 -128 -10 -57 -2 -66 58 -66 62 0
70 4 91 47 40 78 134 43 113 -41 -4 -15 -47 -58 -109 -110 -158 -130 -169
-144 -165 -202 l3 -49 200 -3 c110 -1 210 0 223 3 21 5 23 10 20 63 l-3 57
-102 3 c-57 1 -103 6 -103 10 0 4 32 34 72 67 118 100 150 172 114 259 -37 88
-177 131 -293 90z"/>
<path d="M3930 1105 c-52 -16 -107 -65 -126 -112 -9 -22 -14 -75 -14 -161 0
-113 3 -133 23 -172 12 -24 39 -57 59 -74 33 -25 48 -30 115 -34 102 -6 155 9
199 56 51 54 67 121 62 253 -4 98 -7 112 -34 155 -52 85 -177 124 -284 89z
m131 -124 c22 -18 24 -27 27 -138 3 -109 2 -121 -18 -146 -27 -34 -78 -37
-106 -6 -17 18 -19 37 -19 146 0 119 1 126 24 144 30 24 62 24 92 0z"/>
<path d="M4967 1107 c-53 -17 -106 -63 -128 -111 -24 -53 -27 -264 -4 -319 40
-95 109 -132 233 -125 97 6 135 26 177 93 28 45 30 56 33 164 5 168 -22 237
-111 282 -50 26 -147 34 -200 16z m128 -132 c24 -23 25 -30 25 -138 0 -100 -3
-117 -21 -141 -26 -33 -77 -36 -105 -5 -16 18 -19 37 -19 139 0 112 1 120 24
144 31 33 65 33 96 1z"/>
<path d="M2464 1102 c-6 -4 -23 -41 -38 -82 -15 -41 -38 -104 -51 -140 -13
-36 -44 -121 -69 -189 -35 -95 -43 -127 -34 -133 14 -10 124 -6 134 4 3 4 12
24 19 45 l13 38 101 3 102 3 19 -45 c23 -50 33 -56 101 -56 34 0 51 5 55 15 5
13 -18 84 -96 295 -18 47 -43 116 -56 154 -13 38 -29 75 -35 82 -12 15 -145
20 -165 6z m119 -244 c15 -42 27 -79 27 -82 0 -3 -29 -6 -65 -6 -36 0 -65 3
-65 6 0 8 50 156 57 167 9 14 18 -3 46 -85z"/>
<path d="M2774 1096 c-3 -7 -4 -35 -2 -62 l3 -49 75 -5 75 -5 3 -205 c2 -148
6 -206 15 -212 14 -9 99 -11 121 -2 14 5 16 34 16 215 l0 208 78 3 77 3 0 60
0 60 -228 3 c-187 2 -228 0 -233 -12z"/>
<path d="M4322 1098 c-15 -15 -16 -63 -2 -89 10 -17 22 -19 116 -19 58 0 104
-4 102 -9 -1 -4 -28 -28 -58 -53 -59 -48 -81 -88 -64 -116 8 -12 30 -18 81
-22 79 -6 103 -20 103 -60 0 -40 -28 -60 -86 -60 -41 0 -54 5 -72 25 -19 22
-30 25 -87 25 -64 0 -65 0 -65 -27 0 -37 28 -78 76 -111 37 -25 46 -27 149
-27 97 0 115 3 150 23 105 60 123 191 37 261 -20 17 -47 31 -59 31 -44 0 -37
23 25 81 58 53 62 59 62 102 0 32 -5 47 -16 51 -31 12 -379 7 -392 -6z"/>
</g>
</svg>
