<?xml version="1.0" standalone="no"?>
<!DOCTYPE svg PUBLIC "-//W3C//DTD SVG 20010904//EN"
 "http://www.w3.org/TR/2001/REC-SVG-20010904/DTD/svg10.dtd">
<svg version="1.0" xmlns="http://www.w3.org/2000/svg"
 width="754.000000pt" height="362.000000pt" viewBox="0 0 754.000000 362.000000"
 preserveAspectRatio="xMidYMid meet">

<g transform="translate(0.000000,362.000000) scale(0.100000,-0.100000)"
fill="#000000" stroke="none">
<path d="M934 3310 c-12 -4 -31 -21 -43 -36 l-21 -27 0 -729 c0 -663 2 -732
17 -758 34 -58 -26 -55 1201 -58 l1132 -2 0 -286 c0 -312 2 -323 59 -363 l29
-21 1637 0 1637 0 29 21 c61 43 59 12 59 781 0 679 -1 704 -20 735 -10 18 -31
40 -47 50 -26 17 -89 18 -1153 23 l-1125 5 -3 301 -2 300 -29 35 -29 34 -1653
2 c-910 1 -1664 -2 -1675 -7z m2351 -175 c0 -25 -5 -31 -29 -35 -57 -10 -63
-70 -7 -70 34 0 45 -12 36 -39 -4 -13 -17 -21 -38 -23 l-32 -3 -3 -115 c-3
-120 -7 -130 -50 -130 -30 0 -34 12 -35 132 -2 97 -3 104 -24 113 -31 13 -29
49 2 69 19 12 25 25 25 50 0 52 47 88 109 84 44 -3 46 -4 46 -33z m-1871 -15
c6 -6 5 -19 -2 -36 -12 -24 -16 -25 -60 -19 -96 13 -132 -27 -132 -145 0 -66
2 -74 30 -102 29 -28 34 -30 96 -27 60 4 67 2 74 -17 15 -38 -3 -49 -92 -52
-74 -3 -87 -1 -117 20 -63 43 -76 70 -79 169 -3 75 -1 95 18 133 22 47 55 74
105 87 37 10 146 2 159 -11z m848 -47 c3 -36 5 -38 41 -41 33 -3 37 -6 37 -32
0 -26 -4 -29 -37 -32 l-38 -3 0 -85 0 -85 35 -5 c31 -4 35 -9 38 -37 l3 -33
-51 0 c-28 0 -60 5 -72 11 -31 17 -48 71 -48 153 0 65 -3 77 -20 86 -27 15
-25 44 5 64 16 11 22 22 18 32 -8 22 22 44 58 44 25 0 28 -4 31 -37z m-585
-53 c38 -23 48 -41 58 -98 10 -63 -2 -72 -96 -72 -72 0 -79 -2 -79 -20 0 -33
43 -54 100 -47 42 5 51 3 60 -13 18 -33 -12 -50 -88 -50 -80 0 -126 23 -148
75 -20 48 -18 133 4 174 35 66 125 90 189 51z m379 -5 c24 -24 25 -28 22 -157
l-3 -133 -35 0 -35 0 -5 114 c-6 128 -14 144 -67 125 l-28 -9 -3 -110 c-3
-114 -7 -125 -49 -125 -35 0 -45 32 -42 137 3 80 0 97 -14 108 -9 7 -17 24
-17 39 0 24 3 26 40 26 22 0 48 -5 58 -11 13 -8 26 -7 52 4 54 24 97 21 126
-8z m544 -31 c0 -18 -7 -22 -45 -27 -26 -2 -49 -8 -53 -12 -4 -3 -9 -55 -12
-113 l-5 -107 -35 0 -35 0 -3 115 c-2 98 -5 117 -22 132 -22 21 -22 20 -14 42
8 21 81 22 104 1 14 -13 21 -13 56 5 37 19 40 19 51 3 7 -9 13 -27 13 -39z
m230 41 c33 -17 54 -52 64 -108 11 -58 -2 -67 -100 -67 -52 0 -84 -4 -84 -10
0 -6 11 -22 25 -36 23 -23 33 -25 83 -22 54 3 57 2 60 -21 5 -33 -12 -41 -89
-41 -108 0 -161 50 -162 154 -2 125 103 203 203 151z m718 -12 c44 -32 53 -60
50 -146 -3 -77 -4 -80 -40 -113 -34 -30 -44 -34 -95 -34 -108 0 -159 59 -151
172 5 67 27 104 79 131 43 23 120 18 157 -10z m312 -19 c0 -29 -3 -34 -24 -34
-14 0 -36 -4 -50 -10 -25 -9 -25 -12 -28 -117 l-3 -108 -35 0 -35 0 -3 114
c-2 101 -5 116 -22 128 -11 8 -20 25 -20 39 0 22 4 24 42 24 24 0 49 -7 59
-16 16 -14 21 -14 55 4 48 25 64 19 64 -24z m-2125 -554 l0 -45 -50 0 c-49 0
-50 0 -53 33 -5 55 2 63 55 60 l48 -3 0 -45z m581 25 c3 -14 3 -36 0 -51 -6
-23 -10 -25 -54 -22 -45 3 -47 4 -50 36 -5 53 2 62 52 62 40 0 46 -3 52 -25z
m860 16 c5 -6 7 -108 4 -258 l-5 -248 -40 0 -40 0 -3 212 -2 213 -25 16 c-27
17 -34 59 -12 67 22 9 113 7 123 -2z m-1743 -45 c87 -31 116 -89 117 -226 0
-119 -22 -173 -86 -207 -50 -28 -253 -45 -279 -23 -12 10 -15 44 -15 202 0
182 -1 190 -20 195 -21 6 -37 44 -25 62 10 16 261 13 308 -3z m2137 -181 l5
-190 95 -5 c103 -5 110 -10 96 -66 l-7 -25 -142 3 -142 3 -3 198 -2 198 -25 9
c-17 6 -25 17 -25 33 0 35 8 38 80 35 l65 -3 5 -190z m-1030 125 l5 -45 48 -3
c37 -2 47 -7 47 -21 0 -29 -23 -50 -60 -53 l-35 -3 0 -100 0 -100 40 -5 c32
-4 41 -10 49 -33 14 -38 -2 -50 -67 -51 -61 0 -102 20 -117 60 -6 14 -10 70
-10 125 0 97 -1 100 -25 109 -34 13 -35 56 -1 72 19 8 26 20 28 47 3 31 7 37
33 42 52 12 60 7 65 -41z m-433 -50 c26 0 33 -4 33 -20 0 -10 -9 -24 -21 -30
-16 -9 -19 -17 -13 -38 25 -93 -18 -149 -123 -161 -86 -9 -77 -27 15 -34 110
-7 151 -32 152 -90 1 -82 -67 -122 -199 -116 -67 4 -83 8 -105 28 -31 29 -36
90 -10 112 10 8 14 22 11 38 -3 15 1 35 9 45 19 27 18 43 -6 73 -25 32 -27
109 -4 142 35 49 72 63 153 57 41 -3 89 -6 108 -6z m840 -23 c27 -26 28 -32
31 -140 3 -105 5 -114 25 -122 26 -12 34 -40 17 -60 -17 -21 -94 -19 -115 2
-13 13 -21 14 -35 5 -41 -25 -98 -33 -134 -18 -42 17 -56 42 -56 96 0 76 25
97 130 115 53 9 66 15 68 31 5 35 -23 48 -98 46 -65 -3 -68 -2 -72 23 -9 43
22 54 139 51 65 -1 76 -4 100 -29z m1130 0 c27 -26 28 -32 31 -141 3 -104 5
-115 24 -119 15 -4 19 -12 16 -39 -3 -31 -5 -33 -47 -36 -30 -2 -49 2 -62 14
-18 16 -22 17 -47 2 -44 -26 -86 -31 -125 -14 -43 17 -57 41 -57 96 0 75 34
104 134 116 62 8 71 14 62 49 -7 27 -29 33 -99 24 -43 -5 -50 -3 -64 18 -30
46 8 62 134 59 65 -1 76 -4 100 -29z m434 4 l30 -30 -3 -153 -3 -153 -40 0
-40 0 -5 126 c-3 86 -9 131 -19 143 -15 18 -47 21 -85 6 -25 -9 -25 -10 -28
-142 l-3 -133 -40 0 -40 0 -3 138 c-3 137 -3 138 -28 147 -20 8 -25 16 -22 38
3 25 6 27 57 30 41 2 57 -1 63 -12 7 -13 14 -13 51 4 23 10 61 19 85 19 35 1
49 -5 73 -28z m337 22 c76 -6 82 -8 82 -28 0 -14 -7 -25 -19 -28 -18 -4 -19
-11 -14 -59 9 -89 -25 -126 -124 -137 -86 -9 -78 -27 14 -33 89 -6 126 -20
142 -55 26 -56 1 -113 -59 -137 -53 -21 -171 -21 -216 0 -49 23 -62 87 -27
126 9 10 13 25 9 35 -4 9 1 31 10 49 17 30 16 33 -4 66 -37 60 -27 143 22 178
44 32 55 33 184 23z m802 -8 c44 -23 50 -43 50 -160 0 -103 1 -106 25 -117 21
-9 25 -18 23 -42 -3 -30 -5 -31 -53 -34 -38 -3 -52 1 -62 14 -12 16 -15 16
-52 0 -104 -47 -193 5 -177 103 10 63 71 100 162 101 33 0 48 18 37 46 -9 24
-38 31 -99 24 -58 -6 -74 3 -74 44 0 34 165 49 220 21z m453 -2 c16 -10 6 -34
-19 -43 -20 -8 -24 -14 -18 -28 5 -9 8 -36 8 -60 0 -34 -6 -48 -30 -72 -25
-26 -41 -32 -95 -38 -35 -4 -64 -11 -64 -17 0 -5 32 -13 70 -16 124 -10 155
-29 155 -94 0 -53 -28 -91 -78 -105 -53 -14 -157 -12 -197 4 -55 23 -71 78
-38 126 10 14 16 35 15 47 -2 12 4 33 13 47 16 23 15 26 -5 54 -48 65 -29 160
40 195 30 15 50 17 135 11 55 -3 103 -8 108 -11z m295 -3 c39 -24 59 -66 64
-135 l3 -50 -105 -5 c-118 -6 -134 -17 -85 -66 25 -25 31 -26 95 -21 56 5 69
3 74 -9 7 -17 8 -54 2 -54 -2 0 -27 -5 -57 -10 -65 -13 -145 1 -184 32 -86 67
-70 270 25 320 47 25 126 24 168 -2z m-4650 -150 c4 -200 3 -202 -51 -198
l-42 3 -3 139 c-2 128 -4 138 -22 143 -21 6 -37 44 -25 63 4 7 33 10 73 8 l67
-3 3 -155z m570 -17 l-3 -178 -34 -3 c-18 -2 -38 1 -43 6 -6 6 -10 63 -10 127
-1 131 -4 155 -24 155 -15 0 -29 43 -19 59 3 6 35 11 71 11 l64 0 -2 -177z
m2792 56 c0 -66 5 -129 10 -140 12 -22 78 -27 98 -7 7 7 12 45 12 99 0 82 -1
88 -26 103 -17 12 -24 25 -22 39 3 20 10 22 76 25 l72 3 -2 -178 c-3 -178 -3
-178 -26 -181 -13 -2 -32 4 -42 13 -18 16 -22 16 -60 1 -62 -25 -126 -21 -155
9 -23 23 -25 31 -25 132 0 112 -3 125 -32 136 -12 4 -18 17 -18 37 l0 30 70 0
70 0 0 -121z m458 -517 l3 -53 -53 3 -53 3 -3 38 c-4 52 12 69 62 65 l41 -3 3
-53z m-1008 -223 l0 -270 -47 3 -48 3 -3 222 -2 223 -25 16 c-24 15 -33 52
-18 67 3 4 37 7 75 7 l68 0 0 -271z m-995 -19 l0 -245 -50 0 -50 0 -3 207 -2
208 -24 6 c-28 7 -39 28 -30 56 5 17 14 18 82 16 l77 -3 0 -245z m389 130 c14
-5 35 -24 46 -42 18 -30 20 -48 18 -183 l-3 -150 -47 -3 c-58 -4 -57 -6 -61
168 l-2 125 -37 3 c-73 6 -77 -1 -80 -156 l-3 -137 -47 -3 -48 -3 0 146 0 145
-26 10 c-21 8 -25 15 -22 42 3 32 5 33 52 36 34 2 53 -2 66 -13 16 -15 22 -14
76 4 68 23 83 25 118 11z m410 -6 c18 -7 20 -27 6 -54 -8 -15 -21 -18 -66 -17
-48 1 -59 -2 -75 -22 -40 -49 -36 -145 7 -188 22 -21 32 -24 81 -21 54 3 56 2
66 -26 11 -34 2 -42 -60 -52 -120 -18 -200 33 -223 139 -23 112 20 211 105
243 38 14 121 13 159 -2z m945 5 c58 -12 64 -18 55 -54 -6 -26 -8 -27 -65 -20
-68 8 -99 0 -99 -24 0 -25 17 -37 70 -51 68 -18 96 -36 110 -70 27 -65 -8
-138 -78 -161 -40 -13 -145 -6 -186 12 -23 11 -26 17 -21 38 10 39 20 45 52
33 35 -14 91 -18 121 -8 16 6 22 14 20 29 -2 17 -18 27 -77 47 -87 30 -111 55
-111 116 0 51 30 92 81 110 44 16 67 16 128 3z m634 -14 c54 -25 82 -85 81
-175 0 -98 -27 -153 -87 -181 -81 -36 -196 -16 -237 41 -50 70 -45 221 8 281
52 58 155 72 235 34z m480 -15 l28 -31 -3 -157 -3 -157 -45 0 -45 0 -5 135
c-3 74 -9 141 -13 148 -5 6 -25 12 -46 12 -66 0 -70 -8 -73 -160 l-3 -135 -47
-3 -48 -3 0 138 c0 76 -4 143 -8 149 -4 6 -15 13 -25 17 -14 5 -17 15 -15 39
3 32 4 33 54 36 36 2 54 -1 64 -13 14 -17 41 -20 56 -6 16 16 78 30 114 26 23
-3 45 -15 63 -35z m-1647 19 c3 -6 6 -61 5 -123 -2 -141 6 -166 54 -166 69 0
75 9 75 116 0 92 -1 95 -25 106 -21 9 -25 18 -23 42 l3 31 70 0 70 0 3 -187 2
-188 -34 0 c-23 0 -38 6 -45 17 -8 16 -12 16 -52 -3 -24 -10 -65 -19 -91 -19
-39 0 -53 5 -75 28 -27 26 -28 32 -31 147 -3 113 -5 120 -28 135 -26 17 -33
60 -11 68 24 10 126 7 133 -4z m799 -179 l0 -185 -47 -3 -48 -3 0 146 0 145
-25 12 c-18 8 -25 19 -25 38 0 15 3 30 7 34 4 4 37 6 73 4 l65 -3 0 -185z"/>
<path d="M1564 2945 c-22 -33 -11 -45 41 -45 51 0 59 8 45 44 -13 36 -63 36
-86 1z"/>
<path d="M2724 2945 c-22 -33 -11 -45 42 -45 39 0 44 2 44 23 0 50 -58 65 -86
22z"/>
<path d="M3417 2952 c-25 -28 -23 -126 3 -152 25 -25 41 -25 70 -2 30 24 38
97 16 140 -19 37 -62 44 -89 14z"/>
<path d="M1276 2345 c-8 -21 -8 -248 0 -269 12 -31 123 -15 150 22 31 42 24
206 -10 240 -9 9 -39 17 -74 20 -49 3 -60 1 -66 -13z"/>
<path d="M1945 2266 c-44 -32 -14 -136 33 -119 33 12 42 26 42 69 0 33 -5 46
-19 54 -26 13 -33 13 -56 -4z"/>
<path d="M1906 1964 c-10 -26 12 -53 49 -60 64 -12 124 26 96 60 -19 23 -136
23 -145 0z"/>
<path d="M2786 2111 c-37 -41 15 -87 70 -62 19 8 24 18 24 46 0 34 -1 35 -38
35 -26 0 -45 -7 -56 -19z"/>
<path d="M3922 2118 c-17 -17 -15 -65 4 -72 50 -19 88 4 82 51 -3 24 -8 28
-38 31 -19 2 -41 -3 -48 -10z"/>
<path d="M4730 2260 c-42 -42 -8 -130 43 -114 29 9 37 22 37 66 0 61 -42 86
-80 48z"/>
<path d="M4695 1960 c-8 -27 9 -47 46 -55 41 -9 87 3 100 26 18 34 -5 49 -77
49 -54 0 -64 -3 -69 -20z"/>
<path d="M5508 2105 c-15 -34 -1 -59 35 -63 43 -5 69 15 65 51 -3 30 -6 32
-45 35 -38 3 -44 0 -55 -23z"/>
<path d="M5906 2264 c-24 -23 -21 -89 5 -107 42 -30 86 9 75 66 -11 56 -47 74
-80 41z"/>
<path d="M5877 1973 c-18 -18 -6 -51 24 -63 57 -24 132 11 116 54 -5 12 -20
16 -70 16 -35 0 -67 -3 -70 -7z"/>
<path d="M6274 2245 c-41 -41 -29 -60 36 -60 49 0 55 2 58 22 4 24 -29 63 -53
63 -9 0 -27 -11 -41 -25z"/>
<path d="M5822 1503 c-55 -10 -71 -175 -22 -215 29 -23 62 -23 91 1 22 17 24
27 24 100 0 58 -4 84 -15 95 -19 17 -48 24 -78 19z"/>
<path d="M1330 1591 l-275 -46 -3 -288 c-1 -159 2 -287 6 -285 7 2 477 552
540 631 8 9 12 20 10 25 -1 5 -127 -12 -278 -37z"/>
<path d="M5925 950 c3 -5 77 -92 163 -193 260 -304 356 -419 370 -438 7 -11
17 -19 23 -19 6 0 8 109 7 288 l-3 287 -250 42 c-260 43 -320 50 -310 33z"/>
</g>
</svg>
