<?xml version="1.0" standalone="no"?>
<!DOCTYPE svg PUBLIC "-//W3C//DTD SVG 20010904//EN"
 "http://www.w3.org/TR/2001/REC-SVG-20010904/DTD/svg10.dtd">
<svg version="1.0" xmlns="http://www.w3.org/2000/svg"
 width="754.000000pt" height="362.000000pt" viewBox="0 0 754.000000 362.000000"
 preserveAspectRatio="xMidYMid meet">

<g transform="translate(0.000000,362.000000) scale(0.100000,-0.100000)"
fill="#000000" stroke="none">
<path d="M1870 2520 c0 -148 4 -270 8 -270 4 0 13 21 20 48 14 51 39 136 101
336 22 72 39 131 37 133 -5 5 -117 23 -143 23 l-23 0 0 -270z"/>
<path d="M2096 2738 c-2 -7 -23 -94 -46 -193 -55 -235 -68 -283 -75 -295 -3
-6 -3 -15 1 -21 4 -6 24 18 46 57 183 315 229 398 225 408 -4 10 -119 56 -140
56 -4 0 -9 -6 -11 -12z"/>
<path d="M2210 2458 c-57 -112 -112 -218 -122 -236 -10 -18 -18 -38 -18 -45 0
-7 88 78 195 188 l194 200 -27 23 c-34 30 -99 72 -110 72 -5 0 -55 -91 -112
-202z"/>
<path d="M3503 2654 c-24 -10 -13 -34 17 -40 l30 -6 0 -133 0 -132 -30 -6
c-18 -4 -30 -13 -30 -22 0 -12 15 -15 78 -15 43 0 81 3 85 6 12 12 -6 34 -29
34 l-24 0 0 149 c0 83 -3 152 -8 155 -13 8 -77 15 -89 10z"/>
<path d="M3997 2653 c-12 -12 -8 -351 4 -359 6 -3 15 -1 19 7 7 10 16 10 49
-1 78 -25 126 19 126 115 0 88 -34 125 -115 125 l-40 0 0 48 c0 55 -21 87 -43
65z m137 -175 c18 -25 21 -74 6 -112 -11 -30 -49 -42 -79 -26 -18 9 -21 20
-21 79 0 37 3 71 7 74 16 16 72 6 87 -15z"/>
<path d="M4532 2652 c-23 -7 -12 -33 18 -38 l30 -6 0 -133 0 -132 -30 -6 c-18
-4 -30 -13 -30 -22 0 -12 15 -15 78 -15 43 0 82 3 85 7 11 10 -13 33 -34 33
-18 0 -19 10 -19 143 0 78 -4 148 -9 156 -9 13 -64 22 -89 13z"/>
<path d="M3300 2634 c-41 -14 -63 -31 -78 -59 -37 -70 -32 -187 9 -239 36 -46
135 -58 183 -23 15 11 23 76 17 145 -2 20 -106 12 -106 -8 0 -9 12 -17 30 -20
27 -5 30 -9 30 -45 l0 -40 -49 0 c-41 0 -52 4 -68 25 -39 53 -35 154 7 196 27
27 68 31 110 12 35 -16 54 8 27 34 -18 17 -86 30 -112 22z"/>
<path d="M3747 2529 c-49 -29 -63 -133 -24 -190 46 -68 145 -61 180 14 30 63
15 136 -35 171 -25 18 -94 21 -121 5z m103 -44 c7 -8 15 -34 17 -58 9 -75 -51
-123 -97 -77 -25 25 -27 95 -4 128 18 26 65 30 84 7z"/>
<path d="M4285 2527 c-29 -22 -10 -37 40 -30 49 6 75 -7 75 -37 0 -13 -12 -19
-52 -23 -40 -5 -59 -13 -75 -32 -30 -34 -29 -56 3 -89 30 -29 51 -32 101 -14
28 10 36 10 42 -1 20 -31 31 3 31 95 0 87 -2 97 -25 119 -19 20 -34 25 -73 25
-26 0 -56 -6 -67 -13z m115 -152 c0 -43 -70 -61 -93 -23 -17 26 9 48 54 48 35
0 39 -3 39 -25z"/>
<path d="M2320 2309 c-100 -116 -180 -212 -178 -214 5 -5 478 299 478 308 0
11 -101 117 -111 117 -4 0 -89 -95 -189 -211z"/>
<path d="M2628 2322 c-80 -51 -428 -307 -421 -309 18 -6 528 175 531 188 2 16
-60 131 -74 136 -5 2 -21 -5 -36 -15z"/>
<path d="M4240 2178 c0 -7 -1 -87 -2 -177 -1 -127 1 -166 11 -169 7 -2 17 1
21 9 7 10 14 10 35 1 87 -40 160 43 135 153 -12 55 -49 85 -105 85 l-44 0 -3
53 c-3 45 -6 52 -25 55 -14 2 -23 -2 -23 -10z m139 -164 c52 -66 -1 -170 -68
-134 -18 9 -21 20 -21 79 0 37 3 71 7 74 16 17 62 6 82 -19z"/>
<path d="M4702 2173 c2 -10 13 -19 26 -21 22 -3 22 -6 22 -137 0 -131 0 -134
-22 -137 -15 -2 -23 -10 -23 -23 0 -18 8 -20 68 -23 75 -3 106 10 86 34 -6 8
-22 14 -35 14 l-24 0 0 155 0 155 -51 0 c-43 0 -50 -3 -47 -17z"/>
<path d="M3550 2166 c-18 -22 -5 -48 22 -44 17 2 23 10 23 28 0 29 -26 38 -45
16z"/>
<path d="M4544 2165 c-9 -23 3 -45 26 -45 25 0 37 25 20 45 -16 19 -39 19 -46
0z"/>
<path d="M4945 2160 c-8 -26 6 -43 31 -38 13 2 19 12 19 28 0 34 -40 41 -50
10z"/>
<path d="M3217 2163 c-4 -3 -7 -77 -7 -164 l0 -159 25 -6 c38 -9 116 5 148 28
38 28 57 75 57 144 0 75 -29 127 -82 149 -39 15 -129 21 -141 8z m111 -44 c17
-6 38 -21 46 -34 20 -31 21 -126 1 -164 -16 -33 -33 -41 -81 -41 l-34 0 0 118
c0 65 3 122 7 125 9 10 25 9 61 -4z"/>
<path d="M5137 2144 c-4 -4 -7 -20 -7 -35 0 -21 -5 -28 -22 -31 -31 -4 -36
-36 -6 -40 21 -3 23 -9 28 -86 4 -73 8 -86 29 -103 27 -22 69 -25 96 -6 25 19
10 40 -24 32 -41 -9 -52 12 -49 92 l3 68 33 3 c24 2 32 8 32 23 0 15 -7 19
-34 19 -32 0 -35 3 -38 32 -3 31 -25 48 -41 32z"/>
<path d="M2605 2069 c-77 -32 -187 -78 -245 -101 -131 -52 -143 -62 -65 -54
33 3 112 10 175 16 311 28 340 32 340 51 0 21 -26 125 -35 139 -10 16 -21 12
-170 -51z"/>
<path d="M3507 2074 c-15 -16 -6 -33 21 -36 27 -3 27 -4 30 -80 l3 -77 -28 -3
c-20 -2 -28 -9 -28 -23 0 -17 8 -20 60 -23 32 -2 69 -1 82 3 33 8 29 34 -7 41
l-29 6 -3 97 -3 96 -45 3 c-25 2 -49 0 -53 -4z"/>
<path d="M3742 2057 c-44 -46 -23 -94 52 -119 22 -7 44 -21 50 -31 17 -27 -10
-39 -71 -32 -44 5 -53 4 -53 -9 0 -22 32 -36 85 -36 35 0 51 6 70 25 44 43 25
92 -44 115 -48 16 -66 33 -57 56 5 14 16 16 61 10 45 -5 55 -3 55 9 0 40 -113
50 -148 12z"/>
<path d="M3998 2069 c-10 -5 -18 -17 -18 -25 0 -12 9 -14 45 -8 51 7 75 -6 75
-41 0 -20 -6 -23 -56 -27 -63 -5 -84 -23 -84 -70 0 -56 64 -84 126 -56 22 10
28 10 32 0 5 -16 32 -16 33 1 1 6 0 53 0 102 -2 83 -4 92 -27 113 -27 24 -94
30 -126 11z m102 -154 c0 -29 -32 -49 -65 -41 -54 14 -29 66 31 66 29 0 34 -3
34 -25z"/>
<path d="M4507 2074 c-14 -15 -6 -33 16 -36 20 -3 22 -9 25 -80 3 -73 2 -77
-20 -80 -15 -2 -23 -10 -23 -23 0 -18 7 -20 75 -20 68 0 75 2 75 20 0 14 -8
21 -27 23 l-27 3 -3 97 -3 97 -40 3 c-23 2 -44 0 -48 -4z"/>
<path d="M4907 2073 c-14 -13 -7 -33 11 -33 32 0 42 -22 42 -91 0 -66 0 -67
-31 -73 -22 -4 -30 -11 -27 -23 3 -14 15 -19 63 -21 72 -4 105 4 105 23 0 8
-15 18 -32 23 l-33 8 3 76 c4 97 -6 118 -57 118 -21 0 -41 -3 -44 -7z"/>
<path d="M5315 2070 c-6 -10 6 -62 25 -105 27 -61 52 -146 47 -159 -3 -8 -18
-20 -33 -28 -56 -27 -31 -62 27 -38 36 15 53 48 103 192 38 109 42 143 17 143
-14 0 -36 -47 -62 -133 -7 -23 -17 -41 -22 -39 -5 1 -18 32 -29 67 -10 36 -24
75 -30 88 -12 23 -32 29 -43 12z"/>
<path d="M2710 1884 c-47 -7 -116 -18 -155 -23 -184 -27 -280 -42 -284 -47
-10 -10 13 -15 180 -39 96 -14 217 -32 269 -40 52 -7 96 -12 98 -10 18 18 8
176 -11 174 -7 -1 -50 -8 -97 -15z"/>
<path d="M5026 1705 c-20 -20 -10 -45 19 -45 29 0 39 25 19 45 -9 8 -17 15
-19 15 -2 0 -10 -7 -19 -15z"/>
<path d="M2242 1705 c7 -7 202 -89 363 -152 50 -19 105 -42 123 -50 21 -10 37
-12 43 -6 10 10 39 114 39 142 0 20 -59 29 -335 51 -71 6 -155 14 -185 17 -30
3 -52 3 -48 -2z"/>
<path d="M3194 1695 c-8 -20 4 -35 27 -35 10 0 19 -6 20 -12 4 -46 0 -219 -6
-227 -3 -6 -15 -11 -26 -11 -14 0 -19 -6 -17 -17 3 -15 16 -19 72 -21 90 -4
131 26 56 42 l-31 6 3 117 c3 109 5 118 23 121 33 7 47 22 34 38 -16 20 -148
19 -155 -1z"/>
<path d="M4795 1678 c-2 -7 -5 -24 -7 -38 -2 -17 -10 -26 -25 -28 -30 -4 -29
-30 1 -38 23 -5 24 -11 28 -91 3 -93 16 -113 69 -113 66 0 84 37 22 42 l-38 3
-3 74 c-3 76 6 97 37 86 16 -6 43 14 35 26 -3 5 -19 9 -35 9 -30 0 -33 3 -43
53 -6 27 -33 37 -41 15z"/>
<path d="M3505 1610 c-11 -5 -35 -6 -52 -3 l-33 5 0 -116 c0 -70 4 -117 10
-117 34 -6 35 -3 40 86 5 85 6 90 32 105 49 27 63 7 66 -93 2 -58 7 -89 17
-97 27 -22 35 0 35 94 0 75 -4 98 -17 115 -21 24 -69 35 -98 21z"/>
<path d="M3785 1610 c-11 -5 -35 -6 -53 -3 l-33 5 3 -118 c3 -111 4 -119 23
-119 18 0 20 8 25 90 5 85 6 90 32 105 49 27 62 8 68 -101 5 -86 7 -94 25 -94
18 0 20 8 23 96 2 80 0 99 -15 117 -20 25 -68 36 -98 22z"/>
<path d="M4033 1610 c-79 -32 -83 -194 -6 -229 82 -37 163 20 163 114 0 90
-78 147 -157 115z m87 -57 c17 -22 21 -37 17 -70 -2 -24 -10 -50 -17 -58 -19
-23 -66 -19 -84 7 -23 33 -21 99 4 126 28 30 54 28 80 -5z"/>
<path d="M4540 1612 c-14 -5 -25 -14 -25 -22 0 -12 11 -14 46 -12 33 2 52 -2
63 -14 30 -30 16 -48 -43 -56 -58 -7 -76 -19 -86 -58 -4 -18 0 -34 14 -52 26
-33 49 -38 97 -22 26 9 42 10 51 3 24 -21 33 3 33 91 0 78 -3 92 -23 115 -24
28 -81 40 -127 27z m98 -155 c5 -27 -17 -47 -54 -47 -41 0 -58 35 -28 57 26
19 78 13 82 -10z"/>
<path d="M5243 1610 c-58 -24 -81 -126 -43 -188 63 -103 200 -53 200 73 0 37
-19 83 -42 103 -20 16 -89 23 -115 12z m84 -52 c47 -44 22 -148 -36 -148 -57
0 -82 91 -40 144 25 32 45 33 76 4z"/>
<path d="M5548 1610 c-9 -6 -31 -9 -49 -8 l-32 3 2 -110 c3 -113 8 -132 35
-122 13 5 16 24 16 97 0 89 1 91 26 101 35 13 63 3 69 -24 3 -12 6 -56 7 -97
3 -67 5 -75 23 -75 18 0 20 8 23 84 2 50 -2 97 -9 114 -17 41 -72 59 -111 37z"/>
<path d="M2206 1602 c9 -8 173 -127 347 -251 49 -35 96 -64 104 -65 17 -1 85
110 81 133 -2 8 -106 49 -263 102 -257 88 -288 97 -269 81z"/>
<path d="M4240 1597 c0 -24 57 -197 70 -213 15 -17 54 -18 67 -1 13 15 73 192
73 212 0 9 -9 15 -24 15 -21 0 -26 -9 -47 -86 -13 -47 -28 -85 -34 -84 -5 0
-21 38 -35 83 -21 68 -29 83 -48 85 -14 2 -22 -2 -22 -11z"/>
<path d="M4977 1603 c-11 -10 13 -33 34 -33 17 0 19 -8 19 -80 0 -78 -1 -80
-24 -80 -29 0 -44 -19 -25 -31 16 -10 119 -12 143 -3 26 10 18 32 -11 36 l-28
3 -3 98 -3 97 -48 0 c-26 0 -51 -3 -54 -7z"/>
<path d="M2140 1526 c0 -11 360 -426 369 -426 11 0 111 107 111 118 0 5 -93
68 -207 141 -115 72 -223 140 -240 152 -18 11 -33 18 -33 15z"/>
<path d="M2066 1446 c3 -7 36 -74 74 -147 39 -74 93 -180 121 -236 28 -57 56
-103 62 -103 5 0 38 21 74 46 l64 45 -197 205 c-108 112 -198 204 -200 204 -2
0 -1 -6 2 -14z"/>
<path d="M1978 1395 c-3 -3 5 -45 17 -93 42 -163 95 -389 95 -405 0 -9 5 -19
11 -22 13 -9 140 36 146 52 3 6 -22 58 -55 115 -33 57 -92 159 -132 228 -82
143 -75 132 -82 125z"/>
<path d="M1870 1100 l0 -270 29 0 c28 0 132 17 137 23 2 2 -12 52 -30 112 -67
217 -95 311 -108 358 -7 26 -16 47 -20 47 -4 0 -8 -121 -8 -270z"/>
<path d="M3797 1263 c-4 -3 -7 -84 -7 -180 0 -135 3 -173 13 -173 7 0 18 5 25
12 8 8 15 8 26 -1 24 -20 82 -18 106 4 44 39 48 152 8 195 -27 29 -66 42 -100
35 l-28 -7 0 55 c0 41 -4 56 -16 61 -19 7 -19 7 -27 -1z m137 -175 c25 -35 20
-94 -8 -123 -22 -22 -28 -23 -55 -14 -31 11 -31 11 -31 85 l0 74 39 0 c30 0
44 -6 55 -22z"/>
<path d="M3222 1241 c-9 -6 -12 -48 -10 -167 3 -151 4 -159 23 -159 18 0 20 8
23 73 l3 73 57 -3 57 -3 5 -70 c4 -54 9 -71 21 -73 24 -4 29 26 29 179 0 111
-3 139 -15 149 -24 20 -34 2 -37 -70 l-3 -65 -57 -3 -58 -3 0 64 c0 66 -14 93
-38 78z"/>
<path d="M3514 1136 c-3 -9 -4 -56 -3 -105 3 -68 8 -95 21 -107 20 -21 91 -22
114 -3 14 11 18 11 21 2 3 -7 13 -13 24 -13 19 0 19 7 17 118 -3 109 -4 117
-23 117 -18 0 -20 -8 -25 -90 -5 -86 -6 -90 -32 -103 -20 -9 -33 -10 -47 -2
-18 9 -21 23 -23 103 -3 78 -6 92 -21 95 -9 2 -20 -4 -23 -12z"/>
</g>
</svg>
