<?xml version="1.0" standalone="no"?>
<!DOCTYPE svg PUBLIC "-//W3C//DTD SVG 20010904//EN"
 "http://www.w3.org/TR/2001/REC-SVG-20010904/DTD/svg10.dtd">
<svg version="1.0" xmlns="http://www.w3.org/2000/svg"
 width="658.000000pt" height="167.000000pt" viewBox="0 0 658.000000 167.000000"
 preserveAspectRatio="xMidYMid meet">

<g transform="translate(0.000000,167.000000) scale(0.100000,-0.100000)"
fill="#000000" stroke="none">
<path d="M210 1341 c0 -236 5 -245 70 -118 80 154 133 252 142 264 21 27 -4
35 -149 49 l-63 6 0 -201z"/>
<path d="M513 1488 c-6 -7 -29 -58 -51 -113 -23 -55 -52 -122 -65 -150 -35
-72 -41 -95 -25 -95 23 1 344 318 333 329 -10 10 -140 41 -169 41 -8 0 -18 -6
-23 -12z"/>
<path d="M640 1263 c-84 -92 -148 -169 -141 -171 6 -2 98 47 204 109 239 140
267 157 267 168 0 9 -136 61 -161 61 -9 0 -85 -75 -169 -167z"/>
<path d="M2345 1420 c-6 -10 4 -16 40 -22 18 -3 20 -12 23 -101 3 -91 1 -97
-17 -97 -26 0 -51 -10 -51 -21 0 -5 47 -9 105 -9 104 0 139 13 70 26 l-34 6
-3 112 -3 111 -62 3 c-35 2 -64 -2 -68 -8z"/>
<path d="M2997 1423 c-3 -5 -7 -62 -8 -128 l-3 -120 80 -7 c43 -4 93 -5 109
-2 44 9 85 51 85 89 0 57 -64 95 -162 95 l-47 0 -3 38 c-2 29 -8 38 -25 40
-11 2 -23 -1 -26 -5z m185 -133 c23 -28 23 -42 -1 -71 -22 -27 -87 -33 -115
-10 -22 19 -21 87 2 101 27 16 94 5 114 -20z"/>
<path d="M3685 1421 c-3 -6 7 -13 22 -17 15 -3 34 -7 41 -10 9 -3 12 -27 10
-96 l-3 -92 -37 -9 c-69 -16 -40 -27 72 -27 112 0 141 11 73 27 l-38 9 -5 109
-5 110 -62 3 c-34 2 -64 -2 -68 -7z"/>
<path d="M2053 1409 c-56 -13 -103 -66 -103 -116 0 -50 33 -99 78 -115 47 -16
180 -16 210 0 30 17 32 96 3 112 -24 12 -91 13 -111 0 -18 -11 -13 -16 30 -27
28 -7 35 -14 35 -34 0 -23 -4 -24 -63 -27 -58 -3 -65 -1 -92 27 -40 40 -40 82
0 123 30 29 33 30 112 27 54 -3 83 0 85 7 2 6 -4 14 -13 18 -32 12 -129 15
-171 5z"/>
<path d="M2685 1339 c-113 -33 -94 -155 28 -173 94 -14 177 27 177 89 0 71
-105 114 -205 84z m127 -46 c43 -38 5 -98 -62 -98 -87 0 -109 87 -30 118 23 9
72 -1 92 -20z"/>
<path d="M3400 1343 c-8 -2 -22 -7 -30 -9 -32 -11 15 -23 65 -18 35 4 56 1 69
-9 28 -20 11 -37 -37 -37 -91 0 -148 -33 -126 -72 15 -27 76 -37 168 -30 l85
7 -3 60 c-1 33 -7 67 -12 77 -16 29 -127 49 -179 31z m120 -118 c0 -16 -38
-35 -69 -35 -9 0 -26 7 -37 15 -16 13 -17 16 -4 25 8 5 36 10 63 10 35 0 47
-4 47 -15z"/>
<path d="M840 1201 c-236 -156 -246 -164 -234 -168 9 -3 554 190 576 204 5 2
4 11 -3 19 -15 19 -113 74 -130 74 -8 -1 -102 -59 -209 -129z"/>
<path d="M980 1095 c-305 -125 -308 -126 -294 -132 7 -2 103 14 215 36 112 22
258 51 323 63 66 13 121 28 123 34 6 17 -86 106 -107 103 -3 0 -120 -47 -260
-104z"/>
<path d="M3322 1078 c-13 -13 -18 -248 -4 -248 4 0 46 -3 95 -5 94 -6 136 6
157 44 13 25 13 67 0 91 -12 23 -111 54 -144 46 -27 -7 -61 15 -54 35 7 18 -9
49 -25 49 -7 0 -18 -5 -25 -12z m180 -125 c41 -37 6 -103 -55 -103 -62 0 -93
46 -71 104 9 23 101 22 126 -1z"/>
<path d="M3927 1083 c-14 -13 -7 -23 16 -23 39 0 47 -19 47 -105 0 -87 -8
-105 -48 -105 -14 0 -22 -5 -20 -12 3 -9 31 -14 79 -16 111 -4 156 13 87 33
l-33 10 -3 105 c-2 68 -7 107 -15 112 -15 9 -101 11 -110 1z"/>
<path d="M2411 1071 c-7 -5 -11 -13 -7 -19 10 -17 44 -20 63 -6 16 12 16 15 3
24 -18 12 -41 13 -59 1z"/>
<path d="M3710 1065 c-10 -12 -8 -16 11 -23 29 -11 59 -4 59 13 0 26 -51 33
-70 10z"/>
<path d="M4241 1067 c-14 -18 -4 -27 30 -27 32 0 48 18 28 31 -20 13 -45 11
-58 -4z"/>
<path d="M1973 1059 c-9 -9 -13 -47 -13 -116 l0 -103 28 -11 c16 -7 57 -9 100
-5 116 9 167 40 178 108 8 45 -17 92 -59 115 -42 22 -216 31 -234 12z m196
-41 c44 -27 48 -103 7 -137 -21 -17 -94 -31 -123 -24 -22 5 -23 10 -23 88 0
57 4 85 13 89 19 9 103 -2 126 -16z"/>
<path d="M4487 1053 c-4 -3 -7 -15 -7 -25 0 -13 -10 -20 -30 -25 -35 -7 -35
-25 1 -33 21 -5 24 -12 27 -55 2 -28 10 -58 19 -67 20 -22 72 -32 118 -24 47
9 44 26 -4 26 -53 0 -73 21 -69 74 3 35 6 41 28 44 47 5 70 12 70 22 0 6 -13
10 -29 10 -42 0 -61 10 -72 36 -8 23 -38 32 -52 17z"/>
<path d="M1275 1019 c-44 -11 -98 -23 -120 -28 -226 -49 -412 -95 -420 -103
-7 -7 20 -8 80 -4 50 3 187 11 305 16 208 10 307 18 322 26 9 6 -30 96 -45
106 -16 11 -30 9 -122 -13z"/>
<path d="M2687 998 c-75 -21 -63 -79 20 -93 63 -11 88 -21 88 -36 0 -11 -17
-14 -74 -14 -82 0 -110 -19 -46 -31 89 -16 195 12 195 52 0 18 -48 42 -99 50
-46 7 -80 28 -68 41 5 4 40 7 78 5 64 -2 90 8 54 22 -32 12 -112 14 -148 4z"/>
<path d="M3016 1001 c-16 -3 -31 -12 -34 -19 -3 -9 13 -12 61 -11 68 2 87 -4
87 -25 0 -9 -21 -15 -63 -19 -87 -8 -119 -24 -115 -56 5 -40 40 -51 148 -47
l95 4 3 65 c3 74 -7 90 -66 107 -40 11 -71 11 -116 1z m119 -110 c9 -15 -36
-41 -70 -41 -44 0 -62 14 -46 34 15 18 106 23 116 7z"/>
<path d="M2356 991 c-7 -10 17 -21 45 -21 16 0 19 -7 19 -55 0 -51 -2 -55 -27
-61 -40 -10 -47 -15 -32 -25 16 -10 159 -12 183 -3 22 9 20 24 -3 24 -43 0
-51 10 -51 65 0 81 -3 85 -70 85 -33 0 -61 -4 -64 -9z"/>
<path d="M3655 991 c-3 -6 7 -13 22 -17 52 -11 53 -12 53 -57 0 -49 -13 -67
-48 -67 -14 0 -22 -5 -20 -12 5 -14 135 -23 175 -13 34 8 28 22 -12 29 l-34 7
-3 67 -3 67 -62 3 c-34 2 -64 -2 -68 -7z"/>
<path d="M4186 992 c-7 -11 16 -22 44 -22 22 0 29 -21 26 -68 -3 -35 -18 -52
-48 -52 -23 0 -31 -17 -12 -24 20 -8 158 -8 178 0 24 9 19 24 -6 24 -39 0 -47
13 -50 80 l-3 65 -62 3 c-34 2 -64 -1 -67 -6z"/>
<path d="M4720 988 c0 -7 23 -48 50 -92 28 -43 49 -83 47 -89 -2 -6 -18 -16
-37 -22 -45 -15 -51 -35 -10 -35 52 0 97 28 133 83 105 163 108 173 56 165
-18 -2 -32 -19 -54 -60 -19 -36 -36 -58 -47 -58 -10 0 -31 23 -51 58 -26 44
-39 58 -60 60 -17 2 -27 -1 -27 -10z"/>
<path d="M1310 859 c-41 -4 -167 -15 -280 -24 -227 -17 -312 -26 -307 -31 10
-10 722 -63 731 -54 11 11 13 91 2 108 -8 13 -33 13 -146 1z"/>
<path d="M4344 725 c-16 -13 -17 -16 -4 -25 21 -14 46 -12 59 4 10 12 8 17 -8
25 -25 14 -23 14 -47 -4z"/>
<path d="M740 723 c0 -8 154 -46 550 -134 46 -11 92 -17 101 -14 18 6 63 102
51 109 -15 9 -106 16 -317 26 -121 6 -257 13 -302 16 -50 4 -83 3 -83 -3z"/>
<path d="M1945 720 c-9 -14 -8 -14 34 -26 l34 -9 -2 -80 c-1 -44 -5 -83 -9
-87 -4 -3 -18 -8 -32 -10 -14 -1 -24 -7 -22 -13 1 -6 42 -10 97 -10 95 0 124
12 65 28 l-30 8 0 83 0 84 36 6 c21 4 34 12 31 19 -5 16 -193 22 -202 7z"/>
<path d="M4030 686 c-5 -14 -18 -26 -30 -28 -28 -4 -27 -22 2 -28 20 -5 24
-14 28 -59 8 -72 33 -93 108 -89 65 4 87 28 25 28 -56 0 -65 9 -61 66 3 49 3
49 42 54 55 7 60 30 7 30 -35 0 -43 4 -51 25 -13 34 -57 35 -70 1z"/>
<path d="M2251 650 c-4 -3 -5 -41 -2 -85 6 -77 7 -80 31 -80 24 0 25 3 28 60
3 69 17 85 72 85 48 0 60 -15 60 -75 0 -53 12 -75 41 -75 22 0 29 20 29 85 0
46 -4 56 -27 74 -23 19 -37 21 -126 19 -54 -2 -102 -5 -106 -8z"/>
<path d="M2613 644 c-2 -6 -3 -44 -1 -85 3 -67 5 -74 25 -77 29 -4 45 27 42
83 -2 25 0 48 4 51 4 4 29 9 55 12 60 5 65 -1 72 -83 5 -56 7 -60 30 -60 24 0
25 3 28 66 3 62 1 68 -24 88 -24 19 -38 21 -127 19 -60 -2 -101 -7 -104 -14z"/>
<path d="M3009 637 c-96 -65 -39 -157 98 -157 96 0 162 56 135 115 -30 65
-163 89 -233 42z m149 -23 c14 -10 22 -26 22 -44 0 -60 -99 -84 -139 -34 -27
34 -26 40 4 69 28 29 79 33 113 9z"/>
<path d="M3324 646 c-7 -18 49 -124 78 -148 50 -44 106 -12 160 90 23 45 25
52 11 63 -21 18 -43 2 -75 -57 -15 -27 -29 -53 -30 -57 -8 -20 -40 9 -64 56
-14 29 -31 55 -37 59 -19 12 -37 9 -43 -6z"/>
<path d="M3693 654 c-30 -13 -9 -24 46 -24 67 0 91 -6 91 -25 0 -18 -23 -25
-78 -25 -58 0 -96 -18 -100 -47 -6 -41 33 -54 149 -50 l104 3 -3 64 c-5 91
-20 104 -120 107 -42 1 -83 0 -89 -3z m134 -110 c8 -22 -14 -34 -64 -34 -48 0
-65 17 -38 37 27 19 94 17 102 -3z"/>
<path d="M4285 650 c-6 -10 4 -16 40 -22 17 -3 20 -11 20 -58 0 -53 -1 -55
-29 -60 -63 -11 -28 -25 67 -28 64 -2 97 1 97 8 0 6 -8 13 -17 16 -43 13 -48
21 -53 85 l-5 64 -57 3 c-32 2 -59 -2 -63 -8z"/>
<path d="M4603 645 c-17 -7 -39 -27 -48 -45 -13 -26 -14 -35 -3 -58 40 -83
243 -83 272 1 23 65 -36 117 -134 117 -30 -1 -69 -7 -87 -15z m147 -35 c61
-61 -44 -136 -118 -84 -50 35 -12 104 58 104 27 0 47 -7 60 -20z"/>
<path d="M4924 651 c-2 -2 -4 -37 -4 -76 0 -54 4 -76 16 -86 28 -23 49 1 52
62 3 63 18 79 72 79 49 0 60 -15 60 -81 0 -63 8 -74 46 -65 22 6 24 11 24 75
l0 68 -37 17 c-29 12 -61 16 -131 14 -52 -2 -95 -5 -98 -7z"/>
<path d="M686 641 c5 -5 106 -48 224 -96 118 -48 241 -98 273 -111 57 -24 60
-24 85 -8 36 23 83 76 79 88 -4 11 -30 17 -383 86 -277 53 -294 55 -278 41z"/>
<path d="M600 575 c0 -10 438 -295 453 -295 23 0 141 81 131 90 -10 9 -558
210 -574 210 -6 0 -10 -2 -10 -5z"/>
<path d="M496 508 c4 -7 31 -38 59 -68 29 -30 94 -101 144 -157 51 -57 100
-103 109 -103 31 0 163 53 159 64 -4 13 -447 276 -465 276 -8 0 -10 -5 -6 -12z"/>
<path d="M360 474 c0 -6 29 -71 50 -115 5 -9 27 -63 50 -120 24 -57 48 -110
56 -118 11 -12 25 -12 95 2 46 10 88 22 94 28 7 7 -39 58 -155 169 -146 141
-190 176 -190 154z"/>
<path d="M210 269 l0 -201 63 6 c103 10 147 18 153 27 3 5 -3 24 -14 42 -24
38 -61 108 -126 235 -27 50 -54 92 -62 92 -12 0 -14 -35 -14 -201z"/>
<path d="M2733 388 c-6 -7 -10 -62 -9 -128 l1 -115 60 -4 c115 -7 146 -4 174
16 88 66 22 163 -111 163 l-57 0 -3 38 c-2 29 -8 38 -24 40 -11 2 -25 -3 -31
-10z m182 -118 c17 -14 20 -53 5 -80 -13 -24 -55 -33 -96 -20 -32 11 -34 14
-34 60 0 29 5 51 13 54 20 9 96 0 112 -14z"/>
<path d="M1967 374 c-10 -10 -8 -206 2 -222 4 -8 19 -12 32 -10 21 3 24 9 27
48 2 24 9 48 15 52 16 10 118 10 134 0 6 -4 13 -28 15 -52 3 -40 6 -45 28 -45
l25 0 0 115 0 115 -25 0 c-22 0 -25 -5 -28 -42 -4 -50 -16 -56 -103 -51 l-54
3 -5 45 c-4 39 -8 45 -30 48 -14 2 -29 0 -33 -4z"/>
<path d="M2568 309 c-14 -8 -18 -23 -18 -69 l0 -59 -40 -12 c-33 -10 -43 -9
-65 5 -22 15 -25 23 -25 77 0 60 0 60 -27 57 -27 -3 -28 -5 -31 -70 -3 -63 -1
-68 24 -85 16 -10 44 -17 68 -16 23 0 69 2 104 3 l62 1 0 78 c0 92 -13 113
-52 90z"/>
</g>
</svg>
