<?xml version="1.0" standalone="no"?>
<!DOCTYPE svg PUBLIC "-//W3C//DTD SVG 20010904//EN"
 "http://www.w3.org/TR/2001/REC-SVG-20010904/DTD/svg10.dtd">
<svg version="1.0" xmlns="http://www.w3.org/2000/svg"
 width="754.000000pt" height="362.000000pt" viewBox="0 0 754.000000 362.000000"
 preserveAspectRatio="xMidYMid meet">

<g transform="translate(0.000000,362.000000) scale(0.100000,-0.100000)"
fill="#000000" stroke="none">
<path d="M1240 2880 c-14 -5 -50 -14 -80 -20 -77 -17 -157 -52 -250 -109 -68
-42 -218 -193 -245 -246 -11 -22 -23 -41 -27 -43 -5 -2 -8 -12 -8 -23 0 -10
-4 -19 -10 -19 -5 0 -10 -8 -10 -17 0 -10 -7 -31 -15 -47 -8 -15 -15 -37 -15
-47 0 -10 -5 -21 -11 -25 -7 -4 -9 -20 -6 -40 4 -20 1 -34 -6 -37 -16 -5 -21
-208 -7 -267 33 -135 103 -298 127 -293 5 1 9 -6 9 -16 -1 -10 23 -45 53 -79
43 -50 58 -61 75 -57 14 4 17 3 8 -3 -10 -7 -3 -17 26 -43 85 -74 100 -80 121
-55 8 10 9 16 1 21 -5 3 -10 3 -10 0 0 -4 -14 3 -30 15 -16 12 -30 27 -30 33
0 7 4 6 10 -3 13 -20 19 -10 13 22 -3 18 -13 28 -31 33 -16 4 -28 2 -30 -4 -2
-7 -13 -4 -28 5 -27 18 -32 34 -10 34 8 0 17 6 20 13 3 8 9 7 20 -7 14 -17 16
-17 22 -3 7 20 -3 37 -22 37 -8 0 -14 7 -14 15 0 20 17 19 28 -1 7 -12 16 -14
32 -9 23 7 23 8 5 21 -17 13 -17 14 -2 14 19 0 97 -76 97 -95 0 -6 -16 -17
-35 -24 -19 -7 -35 -17 -35 -22 0 -6 5 -7 10 -4 15 9 12 -6 -5 -25 -14 -15
-14 -18 -1 -23 9 -4 13 -1 10 6 -2 7 6 13 21 13 15 1 34 9 44 18 23 21 31 20
71 -9 38 -28 62 -31 83 -11 9 9 19 11 28 5 8 -5 10 -9 5 -9 -8 0 83 -50 92
-50 11 0 -3 19 -20 28 -19 9 -9 11 54 11 65 1 76 -1 72 -14 -7 -17 -74 -21
-74 -5 0 6 -6 10 -14 10 -8 0 -12 -7 -10 -17 3 -12 -4 -22 -21 -30 -19 -8 -25
-8 -26 0 0 7 -4 2 -9 -10 -5 -13 -15 -23 -22 -23 -7 0 -23 -3 -35 -6 -17 -5
-23 -2 -23 10 0 9 -4 16 -10 16 -5 0 -10 5 -10 10 0 6 6 10 14 10 16 0 41 28
33 36 -3 3 -16 -1 -29 -10 -33 -23 -53 -20 -86 14 -32 32 -62 39 -62 16 0 -30
11 -44 32 -38 17 4 19 1 14 -16 -4 -11 -2 -23 4 -27 23 -14 8 -22 -25 -12 -21
6 -31 13 -24 18 6 3 7 9 3 12 -11 7 -64 -3 -64 -12 0 -7 84 -47 120 -56 14 -3
34 -10 45 -14 58 -24 111 -33 210 -33 164 -1 187 0 214 11 15 5 47 15 74 22
26 7 47 17 47 21 0 4 7 8 16 8 26 0 86 31 145 76 61 46 149 139 149 157 0 6 9
20 20 32 15 16 18 27 11 50 -4 17 -14 30 -22 30 -8 0 -18 10 -24 23 -5 12 -16
20 -22 17 -17 -6 -17 37 -1 53 9 9 8 16 -5 30 -19 21 -22 42 -7 42 5 0 13 -12
16 -26 7 -27 19 -22 27 11 5 19 5 19 12 -1 4 -15 13 -20 25 -17 10 3 21 0 24
-6 4 -6 1 -11 -8 -11 -8 0 -16 -6 -19 -12 -3 -10 -7 -10 -19 -1 -17 15 -28 8
-28 -18 0 -11 5 -16 14 -13 20 8 55 -57 49 -90 -3 -14 -2 -26 1 -26 6 0 24 39
30 65 2 6 6 17 9 25 29 75 40 129 44 230 3 102 2 116 -14 128 -13 9 -14 15 -6
20 6 4 13 13 15 20 2 9 -77 12 -360 14 l-362 3 0 -103 0 -103 268 2 267 1 0
-38 c0 -22 -3 -46 -7 -54 -58 -132 -81 -171 -134 -219 -31 -29 -74 -61 -95
-72 -23 -11 -39 -27 -39 -37 0 -14 -2 -15 -10 -2 -7 12 -12 12 -22 2 -6 -6
-21 -12 -33 -12 -12 0 -25 -4 -31 -9 -27 -28 -288 -25 -359 3 -60 24 -74 30
-115 51 -57 30 -182 140 -205 182 -13 24 -21 30 -30 23 -9 -8 -14 -4 -19 15
-4 14 -11 25 -16 25 -6 0 -10 6 -10 13 1 6 10 1 21 -12 27 -33 34 -21 11 20
-10 19 -25 55 -32 82 -8 26 -17 47 -20 47 -3 0 -5 60 -5 134 0 74 3 132 7 130
4 -3 8 3 8 12 0 22 19 81 36 116 17 32 18 41 3 32 -7 -4 -10 -1 -7 7 3 8 13
13 22 13 9 -1 16 2 16 6 0 19 103 135 152 172 63 46 169 98 204 98 13 0 24 5
24 10 0 6 50 10 129 10 76 0 132 -4 136 -10 3 -5 17 -10 31 -10 14 0 39 -7 55
-16 17 -8 37 -13 45 -10 8 3 14 -1 14 -10 0 -10 6 -14 15 -10 8 3 15 2 15 -2
0 -4 23 -25 52 -47 36 -26 53 -34 56 -25 3 7 33 40 68 74 l64 61 -69 53 c-68
52 -98 65 -88 38 4 -10 1 -13 -9 -9 -7 3 -14 1 -14 -5 0 -5 -11 -7 -24 -5 -17
4 -25 0 -29 -14 -4 -16 -5 -16 -6 0 -1 18 -31 25 -31 7 0 -5 5 -10 10 -10 6 0
10 -7 10 -15 0 -8 5 -15 10 -15 6 0 10 -4 10 -10 0 -5 -7 -7 -15 -4 -10 4 -13
0 -11 -13 3 -13 -2 -19 -15 -19 -10 0 -19 6 -19 12 0 15 -23 24 -63 25 -18 0
-41 5 -52 10 -17 8 -16 9 6 4 34 -6 56 17 34 35 -14 12 -19 7 -16 -13 2 -11
-82 3 -90 15 -3 5 -22 10 -42 11 -20 2 -39 6 -43 10 -13 13 -42 7 -48 -9 -5
-13 -2 -15 13 -11 19 5 83 -12 97 -25 3 -3 -9 -9 -26 -13 -35 -8 -52 1 -30 15
11 7 6 10 -17 10 -18 0 -33 -4 -33 -10 0 -5 -9 -10 -20 -10 -11 0 -20 7 -20
15 0 8 5 15 11 15 5 0 8 4 4 10 -12 19 -35 -1 -29 -26 4 -16 2 -24 -7 -25 -45
-4 -57 -7 -76 -18 -30 -15 -38 -14 -23 4 7 8 18 15 25 15 7 0 18 6 25 14 6 8
18 12 26 9 8 -3 14 0 14 6 0 6 -4 11 -9 11 -5 0 -17 3 -26 6 -9 4 -15 3 -13
-2 3 -10 -5 -14 -29 -14 -14 0 -13 3 5 16 25 17 29 44 7 44 -9 0 -18 7 -21 15
-4 8 -12 15 -20 15 -8 0 -14 -7 -14 -15 0 -8 7 -15 15 -15 8 0 15 -7 15 -15 0
-8 -7 -15 -15 -15 -8 0 -15 5 -15 11 0 5 -14 15 -31 21 l-30 10 28 15 c15 8
38 12 50 10 13 -2 23 0 23 5 0 4 11 6 25 2 16 -4 25 -2 25 5 0 7 6 11 13 9 6
-1 21 3 32 9 23 12 172 10 186 -4 5 -5 -11 -8 -42 -6 -48 4 -109 -13 -109 -29
0 -5 -20 -8 -45 -8 -25 0 -45 -4 -45 -10 0 -11 71 -13 119 -4 22 5 30 11 27
21 -3 8 -2 12 2 10 4 -3 16 -1 27 3 10 4 30 1 44 -6 13 -7 28 -11 33 -8 4 3
11 -2 14 -10 3 -9 13 -16 21 -16 9 0 13 6 10 14 -6 15 19 30 34 20 5 -3 12 2
15 10 3 9 11 16 17 16 6 0 8 -3 4 -6 -3 -3 2 -14 11 -25 14 -16 18 -17 31 -5
14 12 21 12 46 1 29 -13 29 -14 8 -20 -31 -10 -30 -35 1 -33 15 1 22 7 19 15
-3 7 2 13 11 13 9 0 16 -7 16 -15 0 -20 16 -19 24 1 8 22 -15 38 -84 59 -30
10 -63 21 -72 26 -24 12 -65 11 -73 -1 -3 -5 -13 -10 -22 -10 -12 0 -13 3 -4
13 6 8 8 17 4 20 -9 10 -213 7 -243 -3z m-196 -86 c20 -8 20 -33 1 -58 -15
-19 -12 -36 6 -36 6 0 7 5 3 11 -4 7 1 7 16 -1 19 -10 24 -10 32 4 11 20 39
21 32 1 -4 -8 -12 -15 -19 -15 -7 0 -20 -11 -28 -24 -12 -18 -13 -26 -4 -35 9
-9 8 -11 -5 -6 -13 5 -18 2 -18 -9 0 -9 -8 -16 -20 -16 -23 0 -26 10 -8 28 6
6 13 21 15 33 2 16 -1 20 -13 15 -8 -3 -18 -6 -20 -6 -2 0 -4 -9 -4 -20 0 -12
-9 -24 -22 -29 l-21 -8 22 -15 c15 -11 19 -18 11 -23 -35 -22 -50 86 -15 111
9 7 15 18 13 25 -3 9 -11 6 -26 -9 -12 -12 -22 -19 -22 -16 0 3 -5 2 -11 -2
-8 -5 -8 -9 1 -14 8 -5 2 -10 -16 -14 -18 -5 -32 -2 -41 7 -13 13 -11 18 13
40 15 14 31 24 34 22 4 -3 15 4 25 15 19 21 45 27 45 10 0 -5 10 -10 22 -10
17 0 19 3 10 12 -11 11 -17 38 -8 38 2 0 11 -3 20 -6z m751 -55 c11 -17 -1
-21 -15 -4 -8 9 -8 15 -2 15 6 0 14 -5 17 -11z m-15 -19 c0 -5 -9 -10 -21 -10
-11 0 -17 5 -14 10 3 6 13 10 21 10 8 0 14 -4 14 -10z m60 -13 c16 -12 24 -67
10 -67 -4 0 -13 7 -20 15 -9 10 -9 15 -1 15 6 0 11 7 11 15 0 18 -27 20 -33 3
-2 -7 -8 -10 -12 -6 -7 6 14 37 25 37 3 0 12 -5 20 -12z m-61 -53 c-13 -16
-34 -19 -24 -4 4 6 -4 9 -17 7 -13 -1 -26 -10 -30 -19 -9 -22 -24 -23 -32 -2
-9 23 2 34 34 34 16 0 32 5 35 10 4 7 13 6 26 -1 16 -8 18 -13 8 -25z m-896 0
c19 -22 26 -24 48 -15 24 8 26 7 22 -9 -5 -20 -40 -33 -57 -22 -6 3 -19 5 -30
3 -11 -1 -16 2 -12 8 4 6 0 11 -8 11 -22 0 -29 18 -14 34 18 21 26 20 51 -10z
m242 6 c-3 -5 -14 -10 -23 -9 -14 0 -13 2 3 9 27 11 27 11 20 0z m705 -14 c0
-2 -16 -23 -35 -46 -31 -37 -40 -41 -37 -19 1 4 -10 10 -24 13 -19 5 -22 9
-12 20 13 14 38 17 38 5 0 -12 34 2 43 18 7 12 27 19 27 9z m-1030 -35 c0 -6
-4 -13 -10 -16 -18 -11 -11 -25 13 -25 17 0 19 2 7 10 -10 6 -6 9 16 8 31 -1
31 -1 21 -39 -5 -21 -22 -51 -36 -67 -15 -16 -27 -36 -25 -45 2 -19 -21 -23
-31 -6 -4 6 -14 8 -23 4 -8 -3 -19 0 -24 7 -5 10 -8 8 -8 -5 0 -10 -5 -15 -10
-12 -6 4 -9 3 -8 -2 2 -4 -1 -10 -7 -12 -25 -10 -48 -70 -35 -92 7 -10 12 -10
23 -1 12 10 13 8 9 -13 -2 -14 -8 -27 -12 -30 -14 -9 -41 7 -36 21 3 8 -1 14
-11 14 -13 0 -14 2 -2 17 8 9 14 23 15 32 1 9 2 26 3 39 0 12 8 22 16 22 8 0
12 6 9 13 -4 12 24 46 33 40 11 -9 20 0 16 16 -6 24 13 61 32 61 14 0 19 12
16 33 0 4 6 7 14 7 8 0 14 3 14 8 -3 14 1 22 11 22 6 0 10 -4 10 -9z m105 -20
c3 -5 1 -12 -4 -15 -5 -3 -11 1 -15 9 -6 16 9 21 19 6z m60 -1 c3 -5 1 -10 -4
-10 -6 0 -11 5 -11 10 0 6 2 10 4 10 3 0 8 -4 11 -10z m-17 -29 c3 -8 -1 -12
-9 -9 -7 2 -15 10 -17 17 -3 8 1 12 9 9 7 -2 15 -10 17 -17z m-78 -58 c0 -7
-6 -13 -14 -13 -9 0 -12 8 -8 26 3 19 7 22 13 12 5 -7 9 -19 9 -25z m-14 -49
c-3 -9 -6 -18 -6 -20 0 -2 -7 -4 -15 -4 -8 0 -12 -6 -9 -14 6 -14 -32 -33 -43
-22 -4 3 -1 6 5 6 7 0 12 4 12 10 0 11 42 57 54 59 4 1 5 -6 2 -15z m-109 -66
c13 -22 12 -37 -3 -31 -10 4 -14 -3 -14 -23 l0 -27 26 24 27 24 -17 -32 c-9
-18 -21 -33 -26 -33 -6 0 -10 -7 -10 -15 0 -18 16 -20 23 -2 3 6 4 2 4 -10 -1
-13 -5 -23 -10 -23 -5 0 -7 -9 -4 -21 3 -12 1 -32 -6 -46 -8 -18 -8 -29 1 -44
17 -27 15 -59 -4 -59 -11 0 -15 6 -11 20 3 11 1 18 -4 14 -5 -3 -9 7 -9 23 0
51 -11 73 -35 73 -13 0 -26 -6 -28 -12 -4 -10 -8 -9 -17 2 -10 13 -11 13 -6
-2 3 -10 0 -20 -5 -24 -6 -3 -9 -19 -6 -34 4 -16 0 -36 -9 -49 -9 -12 -14 -35
-11 -54 4 -29 5 -30 12 -9 4 12 16 22 26 22 15 0 19 8 19 43 0 58 2 77 10 77
12 0 37 -34 45 -60 3 -14 15 -44 26 -67 24 -55 24 -62 -3 -56 -19 5 -21 3 -10
-8 6 -7 12 -21 12 -30 0 -9 8 -19 19 -22 12 -3 21 -17 25 -41 4 -20 11 -36 17
-36 6 0 7 -4 4 -10 -3 -5 -14 -10 -24 -10 -23 0 -57 -40 -53 -62 2 -10 -1 -18
-6 -18 -22 0 -20 54 4 85 24 32 32 61 14 50 -7 -4 -9 2 -4 19 4 16 2 26 -4 26
-17 0 -25 40 -23 105 2 68 -9 65 -29 -7 -7 -27 -17 -48 -21 -48 -5 0 -7 11 -3
25 4 15 2 25 -5 25 -6 0 -11 -11 -11 -25 0 -14 -4 -25 -10 -25 -5 0 -10 -11
-10 -25 0 -14 5 -25 11 -25 6 0 9 -9 6 -20 -3 -12 0 -20 8 -20 20 0 25 -27 8
-42 -14 -11 -16 -10 -11 9 5 18 2 22 -16 20 -15 -1 -21 4 -21 18 0 11 -6 30
-12 42 -14 24 -15 225 -1 217 5 -3 5 -10 2 -16 -5 -7 -2 -8 5 -3 9 5 11 19 6
43 -14 77 -15 124 -2 119 7 -2 11 -20 10 -45 -1 -32 1 -40 13 -35 8 3 14 18
14 35 0 26 2 29 15 18 8 -7 15 -19 15 -26 0 -24 19 -15 35 15 12 25 13 32 2
43 -14 13 -13 22 6 68 6 14 10 28 9 33 -3 12 26 8 35 -5z m-57 -33 c0 -8 -4
-15 -10 -15 -5 0 -10 7 -10 15 0 8 5 15 10 15 6 0 10 -7 10 -15z m1334 -244
c3 -5 -1 -11 -9 -15 -9 -3 -15 0 -15 9 0 16 16 20 24 6z m-493 -23 c9 -15 -8
-28 -28 -21 -7 3 -24 -2 -38 -11 -22 -15 -25 -15 -25 -1 0 11 -6 14 -25 9 -22
-5 -25 -3 -25 18 0 24 2 25 67 22 40 -2 69 -8 74 -16z m78 -5 c18 -15 18 -19
5 -44 -19 -38 -18 -63 2 -55 8 3 12 2 9 -4 -4 -6 6 -10 22 -10 22 0 25 2 13
10 -13 8 -12 10 3 10 9 0 17 -4 17 -10 0 -6 35 -10 84 -10 47 0 88 5 91 10 3
6 11 10 17 10 7 0 6 -6 -2 -15 -10 -12 -45 -15 -204 -14 -105 1 -182 4 -171 7
l20 5 -20 8 c-19 7 -19 8 3 8 12 1 22 6 22 11 0 6 4 10 9 10 5 0 7 -9 4 -20
-4 -14 0 -20 11 -20 15 0 21 12 17 34 -1 5 6 17 15 27 16 18 16 20 -1 33 -10
7 -15 18 -11 24 10 16 22 15 45 -5z m352 5 c0 -7 2 -26 4 -43 4 -36 -23 -105
-41 -105 -22 0 -28 22 -9 33 18 9 18 10 0 23 -10 8 -14 14 -7 14 6 0 9 7 5 16
-5 13 -7 13 -14 2 -6 -8 -9 2 -9 30 0 41 0 42 35 42 21 0 35 -5 36 -12z m-108
-21 c-3 -5 -48 -7 -100 -6 -73 2 -96 0 -103 -11 -5 -8 -13 -11 -17 -6 -4 4 -1
13 8 19 18 14 220 17 212 4z m198 -65 c-8 -13 -10 -5 -10 33 1 48 1 49 10 17
6 -21 6 -39 0 -50z m-631 23 c0 -8 5 -15 11 -15 5 0 7 5 4 10 -3 6 4 10 17 10
18 0 20 -2 8 -10 -8 -5 -11 -10 -6 -10 5 0 3 -6 -3 -14 -10 -11 -8 -17 6 -25
14 -8 15 -11 3 -12 -8 0 -27 -3 -42 -5 -27 -5 -28 -3 -28 41 0 33 4 45 15 45
8 0 15 -7 15 -15z m85 -5 c3 -5 1 -10 -4 -10 -6 0 -11 5 -11 10 0 6 2 10 4 10
3 0 8 -4 11 -10z m370 -10 c-4 -6 -50 -9 -113 -8 l-107 2 105 6 c58 3 109 7
113 8 5 1 5 -2 2 -8z m-238 -6 c-3 -3 -12 -4 -19 -1 -8 3 -5 6 6 6 11 1 17 -2
13 -5z m376 -26 c-5 -7 -13 -22 -16 -33 -6 -17 -5 -18 5 -5 22 26 53 19 56
-12 2 -16 -1 -28 -7 -28 -6 0 -11 10 -11 23 -1 21 -2 21 -25 -8 -21 -25 -25
-27 -31 -12 -9 25 -27 9 -20 -19 7 -26 -11 -34 -20 -9 -9 22 28 106 44 100 7
-2 15 2 19 11 3 8 8 13 11 10 3 -3 0 -11 -5 -18z m-256 6 c-3 -3 -12 -4 -19
-1 -8 3 -5 6 6 6 11 1 17 -2 13 -5z m330 -16 c-3 -8 -6 -5 -6 6 -1 11 2 17 5
13 3 -3 4 -12 1 -19z m-1420 -30 c-3 -8 -6 -5 -6 6 -1 11 2 17 5 13 3 -3 4
-12 1 -19z m1420 -30 c-3 -7 -5 -2 -5 12 0 14 2 19 5 13 2 -7 2 -19 0 -25z
m-1377 -29 c0 -20 -15 -26 -25 -9 -9 15 3 43 15 35 5 -3 10 -15 10 -26z m1338
-14 c-2 -19 -7 -24 -25 -23 -13 2 -23 6 -23 9 0 21 14 39 31 39 14 0 18 -6 17
-25z m34 -37 c-6 -25 -32 -45 -32 -25 0 8 6 20 14 26 8 7 12 22 10 34 -4 20
-4 20 4 2 5 -11 7 -27 4 -37z m-1468 6 c3 -8 2 -12 -4 -9 -6 3 -10 10 -10 16
0 14 7 11 14 -7z m46 -39 c0 -7 7 -15 15 -19 10 -4 15 -20 15 -51 0 -25 -3
-45 -6 -45 -10 0 -34 28 -34 39 0 6 -4 11 -10 11 -6 0 -6 9 0 25 7 20 6 25 -5
25 -18 0 -19 12 -3 28 13 13 28 7 28 -13z m109 -14 c11 -7 11 -10 0 -17 -30
-19 -40 -11 -30 24 2 5 16 1 30 -7z m1161 -11 c0 -5 -4 -10 -9 -10 -16 0 -20
-29 -9 -60 8 -23 7 -38 -1 -56 -6 -14 -7 -23 -2 -20 12 8 24 -25 13 -36 -15
-15 -40 18 -36 49 2 15 1 20 -2 11 -7 -22 -24 -24 -24 -3 0 21 4 30 12 28 8
-3 13 15 23 70 4 23 11 37 20 37 8 0 15 -4 15 -10z m135 0 c3 -5 1 -10 -4 -10
-6 0 -11 -6 -11 -14 0 -8 -7 -17 -16 -20 -12 -5 -15 -2 -10 10 3 8 6 22 6 30
0 16 26 19 35 4z m-1255 -35 c0 -14 -7 -28 -15 -31 -8 -4 -15 -14 -15 -24 0
-10 -7 -21 -16 -24 -8 -3 -12 -11 -8 -17 4 -8 -1 -9 -17 -5 -23 7 -23 7 -5 -8
11 -9 16 -16 12 -16 -4 0 -4 -5 0 -11 4 -7 12 -2 23 13 l16 25 23 -28 c25 -31
16 -45 -24 -35 -17 5 -23 3 -19 -4 3 -5 13 -10 20 -10 9 0 12 -6 8 -16 -5 -13
-10 -11 -30 13 -13 15 -33 38 -43 50 -19 22 -19 22 10 50 17 15 30 34 30 41 0
17 30 62 41 62 5 0 9 -11 9 -25z m48 -33 c2 -7 -4 -12 -13 -12 -13 0 -16 -6
-11 -25 4 -17 1 -27 -12 -34 -16 -8 -17 -6 -14 27 6 54 37 82 50 44z m30 -45
c2 -12 -1 -15 -12 -11 -19 7 -22 38 -3 32 6 -3 13 -12 15 -21z m962 -37 c7
-16 18 -30 25 -30 7 0 15 -9 18 -21 3 -12 10 -18 16 -15 5 4 12 2 16 -4 7 -11
-51 -90 -65 -90 -10 0 17 57 32 66 6 4 -5 21 -27 40 -36 34 -55 37 -55 8 0
-11 -4 -12 -19 -2 -19 12 -19 13 7 44 15 18 30 33 33 33 4 1 12 -12 19 -29z
m138 1 c3 -8 -1 -12 -9 -9 -7 2 -15 10 -17 17 -3 8 1 12 9 9 7 -2 15 -10 17
-17z m-38 -51 c0 -5 -4 -10 -10 -10 -5 0 -10 5 -10 10 0 6 5 10 10 10 6 0 10
-4 10 -10z m-170 -21 c0 -6 -4 -7 -10 -4 -5 3 -10 11 -10 16 0 6 5 7 10 4 6
-3 10 -11 10 -16z m54 -8 c3 -5 -1 -12 -10 -15 -22 -9 -24 -8 -24 9 0 16 25
21 34 6z m42 -3 c4 -7 3 -8 -4 -4 -7 4 -12 1 -12 -7 0 -7 -6 -14 -14 -14 -11
0 -12 4 -3 19 14 21 23 23 33 6z m-195 -33 c5 4 5 -3 1 -15 -4 -12 -11 -21
-15 -21 -4 1 -11 1 -17 1 -5 0 -10 5 -10 11 0 6 7 8 16 5 12 -5 14 -1 10 17
-3 12 -3 16 0 9 3 -6 10 -10 15 -7z m49 -15 c-24 -15 -36 -11 -14 4 10 8 21
12 24 10 2 -3 -2 -9 -10 -14z m99 11 c22 -12 21 -67 -2 -63 -8 1 -18 -7 -22
-18 -5 -16 -12 -19 -32 -14 -21 6 -25 4 -20 -9 8 -22 -3 -28 -21 -11 -11 12
-17 13 -23 3 -4 -7 -5 -18 -3 -24 3 -7 -3 -15 -13 -18 -10 -2 -27 -8 -37 -13
-14 -5 -17 -4 -12 4 5 8 0 12 -12 12 -11 0 -22 -7 -26 -15 -3 -8 -16 -15 -28
-14 l-23 0 23 11 c12 6 22 18 22 26 0 8 6 12 15 8 17 -6 45 2 45 14 0 4 -10
11 -22 15 -15 4 -18 8 -10 12 7 3 19 -1 27 -7 12 -10 18 -10 30 0 18 15 -1 39
-27 32 -10 -2 -18 1 -18 7 0 27 -27 7 -36 -26 -8 -35 -12 -38 -53 -44 -25 -3
-47 -13 -53 -22 -5 -9 -14 -17 -20 -17 -14 0 -37 31 -38 49 0 11 4 10 13 -3
10 -13 20 -16 35 -12 24 8 20 26 -5 26 -9 0 -26 11 -39 25 l-23 24 36 10 c43
12 88 -2 79 -24 -4 -11 2 -15 25 -15 26 0 29 3 23 25 -4 15 -2 25 5 25 6 0 11
7 11 15 0 22 9 19 37 -12 20 -21 27 -24 35 -12 8 11 11 11 15 1 4 -10 11 -9
31 4 18 12 27 14 30 5 2 -6 9 -8 14 -5 7 5 8 2 3 -6 -4 -7 -2 -16 6 -21 21
-13 33 -11 20 4 -8 10 -7 17 1 25 9 9 8 12 -6 12 -10 0 -14 4 -10 12 5 8 1 9
-12 4 -12 -5 -15 -4 -9 2 6 6 19 12 30 15 11 3 21 5 23 6 2 0 11 -3 21 -8z
m-660 -27 c8 -7 -12 -24 -29 -24 -18 0 -34 23 -23 34 6 6 42 -1 52 -10z m188
-80 c-3 -3 -12 -4 -19 -1 -8 3 -5 6 6 6 11 1 17 -2 13 -5z m15 -41 c-8 -3 -5
-11 10 -24 l23 -19 -37 2 c-20 1 -42 -3 -50 -9 -15 -12 -118 -5 -118 8 0 5 6
9 14 9 8 0 21 3 29 6 8 3 21 -1 29 -9 12 -13 19 -13 46 -1 18 7 32 20 32 29 0
8 8 15 18 14 10 0 12 -3 4 -6z m-226 -18 c17 -13 17 -14 2 -15 -10 0 -18 4
-18 9 0 5 -10 12 -22 14 -21 4 -21 4 -2 6 11 0 29 -6 40 -14z m399 -25 c3 -5
3 -10 -2 -11 -53 -4 -103 -3 -103 3 0 15 96 23 105 8z m-128 -22 c-16 -10 -49
-10 -66 1 -10 7 0 9 31 8 25 -1 41 -5 35 -9z"/>
<path d="M905 2680 c3 -5 8 -10 11 -10 2 0 4 5 4 10 0 6 -5 10 -11 10 -5 0 -7
-4 -4 -10z"/>
<path d="M752 2536 c-9 -20 -7 -28 9 -45 11 -12 24 -19 30 -16 12 8 7 68 -6
77 -16 12 -21 10 -33 -16z m23 -6 c3 -5 1 -10 -4 -10 -6 0 -11 5 -11 10 0 6 2
10 4 10 3 0 8 -4 11 -10z"/>
<path d="M710 2214 c0 -8 5 -12 10 -9 6 3 10 10 10 16 0 5 -4 9 -10 9 -5 0
-10 -7 -10 -16z"/>
<path d="M1600 2059 c0 -5 5 -7 10 -4 6 3 10 8 10 11 0 2 -4 4 -10 4 -5 0 -10
-5 -10 -11z"/>
<path d="M660 1755 c0 -8 2 -15 4 -15 2 0 6 7 10 15 3 8 1 15 -4 15 -6 0 -10
-7 -10 -15z"/>
<path d="M1896 1665 c4 -8 8 -15 10 -15 2 0 4 7 4 15 0 8 -4 15 -10 15 -5 0
-7 -7 -4 -15z"/>
<path d="M1800 1450 c-9 -6 -10 -10 -3 -10 6 0 15 5 18 10 8 12 4 12 -15 0z"/>
<path d="M1475 1430 c-3 -5 1 -10 9 -10 9 0 16 5 16 10 0 6 -4 10 -9 10 -6 0
-13 -4 -16 -10z"/>
<path d="M1720 1430 c-13 -8 -13 -10 2 -10 9 0 20 5 23 10 8 13 -5 13 -25 0z"/>
<path d="M1376 2805 c-4 -10 1 -15 16 -15 17 0 18 2 8 15 -7 8 -14 15 -15 15
-2 0 -5 -7 -9 -15z"/>
<path d="M5867 2813 c-4 -4 -7 -331 -7 -727 0 -397 0 -733 0 -748 l0 -28 -90
0 c-53 0 -90 -4 -90 -10 0 -6 40 -10 100 -10 l100 0 0 765 c0 421 -1 765 -3
765 -2 0 -7 -3 -10 -7z"/>
<path d="M1522 2803 c-16 -6 3 -33 25 -33 7 0 16 -7 19 -15 5 -11 11 -12 24
-5 13 7 21 7 25 0 4 -6 11 -8 16 -4 16 9 -21 44 -47 44 -13 0 -26 5 -29 10 -7
11 -13 11 -33 3z"/>
<path d="M1610 2800 c0 -5 7 -10 15 -10 8 0 15 5 15 10 0 6 -7 10 -15 10 -8 0
-15 -4 -15 -10z"/>
<path d="M1470 2750 c0 -5 6 -10 14 -10 8 0 18 5 21 10 3 6 -3 10 -14 10 -12
0 -21 -4 -21 -10z"/>
<path d="M5695 2150 c0 -338 1 -477 2 -307 2 169 2 445 0 615 -1 169 -2 30 -2
-308z"/>
<path d="M1588 2732 c-13 -5 -15 -11 -8 -22 9 -13 11 -13 20 0 9 14 13 31 8
29 -2 0 -11 -3 -20 -7z"/>
<path d="M2589 2281 c-91 -35 -139 -65 -200 -125 -75 -74 -122 -166 -146 -285
-15 -78 -15 -89 1 -175 22 -122 65 -204 146 -286 89 -89 160 -124 305 -149 47
-9 77 -8 135 4 154 30 215 61 303 155 271 288 148 753 -228 865 -71 21 -255
19 -316 -4z m294 -202 c168 -86 226 -283 137 -463 -56 -110 -208 -185 -318
-156 -115 31 -187 90 -227 184 -24 57 -27 74 -23 152 4 99 27 161 80 214 39
40 112 82 157 91 54 11 149 0 194 -22z"/>
<path d="M4910 2286 c-118 -29 -257 -138 -314 -248 -28 -54 -31 -68 -16 -68 6
0 10 7 10 15 0 14 3 13 24 -2 13 -10 24 -26 23 -35 -2 -24 -4 -23 -22 10 -9
15 -13 18 -10 7 4 -11 8 -24 9 -30 2 -5 6 -18 11 -28 4 -10 5 -21 1 -24 -3 -4
-6 1 -6 10 0 9 -4 17 -9 17 -5 0 -7 -9 -4 -20 3 -11 0 -20 -6 -20 -6 0 -11 9
-11 20 0 11 -4 20 -10 20 -14 0 -12 -20 5 -50 19 -33 19 -43 -1 -36 -14 5 -15
4 -4 -9 8 -10 9 -15 1 -15 -6 0 -11 3 -12 8 -1 4 -3 24 -5 46 -3 38 -10 54
-19 45 -8 -8 -7 -222 1 -254 19 -78 66 -158 132 -224 116 -116 204 -155 347
-154 104 0 179 27 230 81 17 18 37 32 45 32 9 0 26 7 39 16 22 16 23 15 19 -7
-2 -13 -9 -29 -17 -35 -10 -8 -12 -22 -8 -50 4 -21 2 -54 -3 -71 -6 -18 -15
-50 -21 -70 -32 -110 -132 -180 -267 -187 -55 -3 -116 14 -177 49 -48 29 -105
93 -105 119 0 17 -15 22 -24 7 -3 -5 -18 -12 -33 -15 -21 -5 -92 -35 -121 -52
-7 -4 25 -62 56 -104 45 -60 121 -121 179 -143 26 -11 57 -22 68 -27 53 -21
126 -26 216 -14 109 14 189 46 248 99 42 38 108 131 104 147 -2 4 2 8 7 8 6 0
10 11 10 24 0 14 5 28 10 31 6 4 10 14 9 23 -1 10 3 29 9 44 8 19 11 187 12
547 0 286 3 527 6 536 5 13 -7 15 -84 15 l-89 0 -7 -31 c-9 -45 -8 -49 9 -49
8 0 15 4 15 10 0 6 9 5 24 -1 l24 -11 1 -436 c1 -387 0 -433 -14 -422 -12 10
-18 10 -30 0 -20 -16 -19 -6 1 14 19 19 34 203 16 192 -6 -4 -9 -13 -6 -21 4
-9 -3 -16 -19 -20 -18 -5 -23 -12 -20 -26 7 -25 -5 -24 -33 2 -17 16 -21 27
-15 43 5 11 9 24 9 29 1 4 6 15 11 25 9 16 11 15 31 -6 12 -12 25 -20 31 -17
12 8 12 35 -1 35 -5 0 -10 4 -10 10 0 5 8 7 18 4 9 -2 7 1 -5 7 -13 7 -23 18
-23 24 0 7 -7 18 -15 25 -13 10 -15 9 -15 -9 0 -11 5 -21 10 -21 6 0 10 -8 10
-17 -1 -17 -1 -17 -11 0 -11 18 -29 23 -29 7 0 -20 -56 -90 -82 -102 -34 -15
-36 -25 -6 -30 12 -2 23 -9 26 -15 6 -19 -29 -16 -43 3 -11 15 -16 15 -61 1
-56 -18 -154 -28 -154 -16 0 5 -19 14 -42 21 -45 13 -62 24 -111 71 -18 17
-33 25 -39 19 -6 -6 3 -20 21 -38 16 -15 28 -31 25 -36 -3 -4 -12 -1 -20 7 -9
8 -21 15 -28 15 -7 0 -20 21 -29 48 -21 58 -21 68 -2 48 8 -8 15 -19 15 -25 0
-6 5 -11 10 -11 15 0 12 12 -7 40 -10 14 -18 29 -18 35 -1 12 -13 43 -25 66
-4 8 -4 35 1 60 4 24 8 47 9 50 0 4 -11 10 -25 13 -16 4 -23 11 -19 18 4 6 3
8 -4 5 -5 -4 -8 -17 -5 -30 6 -22 6 -21 -16 3 -12 14 -19 19 -15 11 4 -9 3
-12 -4 -7 -6 4 -9 13 -6 21 4 8 10 12 15 9 5 -3 6 2 3 10 -3 9 -11 13 -17 9
-6 -3 -7 -1 -3 6 6 9 11 9 22 0 8 -6 17 -9 21 -5 3 3 1 6 -5 6 -16 0 -15 27 1
33 6 2 20 -2 30 -11 12 -10 17 -11 17 -3 0 7 5 9 13 5 6 -4 9 -4 5 1 -15 16
67 109 131 149 58 37 162 59 215 46 22 -6 51 -16 63 -22 12 -6 29 -7 40 -3 42
19 64 15 81 -15 9 -17 25 -30 35 -30 15 0 22 -11 18 -32 0 -5 8 -8 19 -8 13 0
20 -7 20 -20 0 -24 -8 -25 -29 -5 -34 33 -76 65 -86 65 -5 0 -4 4 4 9 12 8 12
11 0 23 -13 14 -49 13 -49 -1 0 -13 85 -89 108 -96 23 -7 29 -20 12 -30 -5 -3
-10 1 -10 9 0 9 -5 16 -11 16 -6 0 -9 -6 -6 -12 5 -14 27 -85 34 -108 3 -10 9
-6 19 15 11 24 13 25 7 5 -9 -34 -9 -109 0 -144 16 -57 30 -10 31 99 0 83 -3
108 -14 116 -13 8 -12 11 3 20 22 13 24 64 2 55 -17 -6 -22 29 -5 39 16 10 11
35 -6 35 -9 0 -22 -7 -29 -17 -8 -11 -14 -12 -19 -5 -4 6 5 18 21 26 15 8 25
15 21 16 -4 0 1 16 12 35 l20 35 -30 0 c-34 0 -45 -13 -32 -37 11 -21 5 -43
-12 -43 -7 0 -12 14 -13 33 -1 54 -2 57 -18 51 -8 -4 -15 -1 -15 5 0 24 -75
72 -155 99 -39 13 -157 12 -215 -2z m158 -36 c7 -11 21 -20 32 -20 27 0 25 14
-2 29 -21 10 -20 11 11 6 44 -7 45 -8 45 -55 1 -22 5 -40 9 -40 5 0 5 -4 2
-10 -3 -6 4 -10 18 -10 32 0 40 -10 19 -26 -27 -21 -39 -17 -51 16 -5 17 -16
30 -23 30 -10 0 -10 2 1 9 8 5 9 11 3 15 -6 3 -13 2 -17 -4 -12 -19 -99 -12
-128 12 -28 23 -107 37 -107 19 0 -6 8 -12 18 -12 9 -1 29 -2 44 -3 57 -4 47
-36 -11 -36 -20 0 -43 -6 -51 -12 -8 -7 -7 -4 2 7 14 17 14 22 2 33 -14 13
-19 5 -15 -20 0 -5 -4 -8 -10 -8 -6 0 -9 -7 -5 -15 4 -11 -1 -15 -17 -15 -15
0 -18 -3 -9 -8 8 -5 10 -16 5 -28 -6 -17 -5 -18 13 -4 10 7 25 21 31 29 7 8
25 15 40 17 16 1 37 4 48 7 11 2 13 2 5 -1 -12 -4 -11 -6 5 -13 19 -7 19 -8
-2 -8 -22 -1 -93 -30 -103 -42 -6 -7 -93 -62 -100 -63 -2 -1 -6 11 -7 27 -1
15 2 27 8 27 5 0 9 -4 9 -10 0 -5 7 -10 15 -10 12 0 14 4 5 19 -7 13 -7 22 0
26 5 3 10 12 10 18 0 8 -3 8 -8 2 -4 -5 -18 -16 -30 -23 -20 -11 -27 -11 -42
3 -15 14 -18 14 -30 0 -9 -10 -9 -15 -1 -15 6 0 23 -25 38 -56 19 -41 23 -58
14 -67 -8 -8 -11 -5 -11 15 0 14 -7 31 -15 38 -13 10 -15 9 -15 -8 0 -12 -5
-24 -10 -27 -8 -5 -7 -11 1 -21 9 -11 8 -14 -5 -14 -10 0 -15 -4 -12 -9 4 -5
-4 -6 -16 -3 -19 5 -20 7 -5 10 21 4 22 18 2 26 -12 4 -9 12 16 34 22 19 30
34 26 45 -4 10 -11 17 -16 17 -6 0 -8 -7 -5 -15 7 -17 3 -18 -20 -9 -9 3 -16
14 -16 23 0 26 52 73 84 77 27 3 28 2 10 -17 -24 -27 4 -26 34 1 12 11 24 20
28 20 3 0 19 14 35 31 22 24 27 37 22 57 -6 24 -5 25 31 19 20 -3 36 -2 36 4
0 5 28 9 63 9 51 0 64 -3 75 -20z m-224 -35 c-4 -8 -12 -15 -18 -15 -7 0 -19
-11 -26 -25 -13 -25 -40 -35 -40 -14 0 5 -4 7 -10 4 -5 -3 -10 1 -10 9 0 15
11 20 38 17 6 -1 12 3 12 9 0 6 5 8 10 5 6 -3 13 1 16 9 3 9 12 16 20 16 8 0
11 -6 8 -15z m606 3 c0 -9 3 -8 10 2 5 8 12 12 15 8 3 -3 7 -223 8 -488 l2
-482 -44 6 c-43 6 -65 21 -55 38 3 4 10 8 15 8 6 0 7 -4 4 -10 -4 -6 7 -10 24
-10 l31 0 -2 408 -3 407 -2 -402 c-2 -246 -7 -403 -13 -403 -6 0 -10 161 -10
418 0 229 -1 424 -2 432 -3 40 3 80 12 80 6 0 10 -6 10 -12z m-247 -22 c-4 -5
5 -6 21 -2 16 4 26 2 26 -4 0 -6 -5 -8 -12 -4 -7 4 -8 3 -4 -4 4 -7 17 -12 29
-12 19 0 22 -5 22 -40 0 -22 -2 -40 -5 -40 -22 1 -66 61 -61 84 1 5 -4 6 -12
3 -7 -3 -19 3 -25 13 -10 16 -8 18 8 17 10 -1 16 -5 13 -11z m-69 -53 c6 -15
1 -16 -43 -7 -17 4 -28 10 -25 15 8 14 63 7 68 -8z m-479 -133 c-3 -6 -16 -10
-28 -10 -16 0 -18 3 -9 12 7 7 12 21 12 32 0 20 1 20 16 -2 8 -12 12 -27 9
-32z m70 -80 c3 -5 2 -10 -4 -10 -5 0 -13 5 -16 10 -3 6 -2 10 4 10 5 0 13 -4
16 -10z m628 -10 c-3 -11 -7 -20 -9 -20 -2 0 -4 9 -4 20 0 11 4 20 9 20 5 0 7
-9 4 -20z m-703 -130 c0 -13 -1 -13 -10 0 -5 8 -10 22 -10 30 0 13 1 13 10 0
5 -8 10 -22 10 -30z m-52 -36 c-3 -14 -5 -12 -10 9 -3 19 -2 25 4 19 6 -6 8
-18 6 -28z m75 7 c3 -9 5 -38 6 -66 0 -27 3 -61 6 -75 7 -32 -6 -51 -37 -54
-22 -3 -25 1 -24 26 1 26 26 42 26 16 0 -6 2 -9 5 -7 2 3 2 14 -1 26 -4 15
-11 19 -27 15 -18 -4 -20 -2 -10 8 8 8 9 19 3 30 -5 9 -5 22 0 30 5 8 6 26 3
41 -4 23 -2 27 21 27 15 0 27 -7 29 -17z m-91 -75 c6 4 6 -1 -1 -15 -7 -11
-14 -21 -16 -21 -3 0 -4 28 -3 63 1 56 2 58 5 14 3 -30 8 -45 15 -41z m114 17
c-10 -10 -19 5 -10 18 6 11 8 11 12 0 2 -7 1 -15 -2 -18z m31 -65 c-3 -7 -5
-2 -5 12 0 14 2 19 5 13 2 -7 2 -19 0 -25z m-28 -97 c-15 -5 -22 6 -14 19 6 9
10 9 16 -1 5 -8 4 -15 -2 -18z m-74 -1 c3 -5 1 -10 -4 -10 -6 0 -11 5 -11 10
0 6 2 10 4 10 3 0 8 -4 11 -10z m158 -56 c44 -21 53 -22 62 -10 9 12 16 12 46
-2 37 -18 42 -42 8 -42 -21 0 -27 -36 -6 -43 6 -2 0 -6 -15 -9 -16 -3 -28 -1
-28 3 0 5 4 9 10 9 5 0 9 15 7 33 -3 29 -5 32 -33 29 -19 -2 -36 3 -44 12 -7
9 -17 13 -22 10 -17 -11 -56 35 -50 59 l7 22 3 -23 c2 -16 19 -30 55 -48z
m-104 42 c9 -10 8 -16 -4 -26 -21 -17 -51 6 -34 26 6 8 15 14 19 14 4 0 13 -6
19 -14z m588 -18 c-2 -7 6 -21 17 -32 14 -12 17 -20 9 -23 -7 -2 -10 -10 -7
-18 6 -16 -53 -82 -63 -71 -4 4 -1 11 6 15 7 5 10 14 7 20 -8 12 -27 15 -24 4
1 -5 -2 -20 -6 -35 -7 -24 -10 -25 -22 -13 -8 7 -14 18 -14 24 0 5 -8 12 -17
14 -14 4 -13 5 4 6 22 1 44 21 22 21 -9 0 -8 4 1 15 9 11 17 12 31 5 13 -7 25
-7 39 2 20 13 29 40 11 36 -5 -2 -9 2 -9 7 1 14 9 35 15 35 3 0 3 -6 0 -12z
m-557 -28 c0 -5 -4 -10 -10 -10 -5 0 -10 5 -10 10 0 6 5 10 10 10 6 0 10 -4
10 -10z m-10 -34 c0 -8 7 -22 16 -30 8 -9 11 -16 6 -16 -9 0 -42 43 -42 55 0
3 5 5 10 5 6 0 10 -6 10 -14z m137 -20 c11 -11 -9 -27 -21 -17 -6 5 -18 6 -25
2 -10 -7 -7 -15 15 -39 24 -24 33 -28 52 -21 15 6 21 5 17 -1 -3 -6 3 -10 13
-10 22 0 49 -27 38 -37 -4 -4 -17 -1 -29 7 -12 7 -32 14 -43 16 -30 3 -74 33
-74 50 0 8 -9 14 -20 14 -21 0 -29 20 -7 20 7 0 4 7 -7 15 -18 14 -15 14 33
10 30 -2 56 -6 58 -9z m111 3 c-2 -6 14 -12 34 -13 21 -2 35 1 32 6 -3 4 4 8
15 8 12 0 21 -4 21 -9 0 -5 8 -11 18 -14 9 -2 0 -4 -21 -4 -44 -1 -49 -4 -38
-22 5 -8 14 -10 21 -6 24 15 82 14 111 -1 16 -8 29 -16 29 -19 0 -11 -49 -55
-61 -54 -10 0 -11 2 -1 6 20 8 14 43 -8 43 -22 0 -27 -15 -7 -24 6 -2 -9 -3
-35 -1 -60 5 -69 11 -62 40 5 19 0 25 -30 35 -32 10 -51 40 -26 40 6 0 9 -5 8
-11z m192 -4 c0 -16 -35 -21 -44 -6 -8 12 4 21 26 21 10 0 18 -7 18 -15z m200
-5 c0 -5 -7 -10 -15 -10 -8 0 -15 5 -15 10 0 6 7 10 15 10 8 0 15 -4 15 -10z
m-383 -46 c3 -8 1 -20 -6 -27 -14 -14 -47 15 -37 32 10 16 36 13 43 -5z m223
-48 c0 -3 -4 -8 -10 -11 -5 -3 -10 -1 -10 4 0 6 5 11 10 11 6 0 10 -2 10 -4z
m-174 -31 c16 -8 22 -15 13 -15 -8 0 -24 7 -35 15 -25 19 -14 19 22 0z m69 5
c-3 -5 -13 -10 -21 -10 -8 0 -14 5 -14 10 0 6 9 10 21 10 11 0 17 -4 14 -10z
m390 -126 c0 -20 -4 -30 -12 -27 -16 6 -26 37 -14 41 6 2 11 8 11 13 0 6 -4 8
-9 5 -5 -3 -8 7 -8 22 l0 27 16 -24 c9 -14 16 -39 16 -57z m-61 60 c16 -6 13
-48 -5 -68 -15 -17 -10 -29 10 -23 19 5 19 4 0 -29 -15 -28 -16 -34 -4 -34 8
0 15 -5 15 -11 0 -5 4 -8 9 -5 4 3 6 -6 3 -19 -5 -28 -4 -27 -26 -19 -9 3 -16
12 -16 20 0 8 -6 11 -16 7 -13 -5 -15 -2 -10 15 4 11 2 23 -4 27 -5 3 -10 15
-10 26 0 11 -4 17 -10 14 -5 -3 -10 -2 -10 3 0 6 11 13 25 16 26 7 32 20 15
31 -14 9 -12 42 3 48 6 3 13 6 14 6 1 1 8 -2 17 -5z m-672 -132 c-7 -2 -12
-10 -12 -18 0 -7 -13 -20 -30 -29 -16 -9 -30 -11 -30 -6 0 23 14 41 31 41 11
0 22 7 25 15 4 8 11 12 17 8 8 -5 7 -8 -1 -11z m718 9 c0 -6 -4 -13 -10 -16
-5 -3 -10 1 -10 9 0 9 5 16 10 16 6 0 10 -4 10 -9z m-800 -25 c0 -11 -19 -15
-25 -6 -3 5 1 10 9 10 9 0 16 -2 16 -4z m142 -30 c18 -18 56 -48 83 -65 28
-17 50 -37 50 -44 0 -7 12 -12 26 -13 14 -1 32 -5 39 -9 10 -6 12 -4 7 10 -7
16 -3 17 38 13 31 -4 48 -1 56 8 17 21 119 19 119 -1 0 -13 -7 -15 -35 -9 -30
5 -34 4 -29 -10 5 -13 -1 -16 -26 -16 -41 0 -62 -20 -47 -46 10 -18 10 -18
-14 -2 -13 9 -23 21 -22 26 1 6 -4 16 -12 22 -11 9 -15 9 -15 1 0 -6 -12 -12
-27 -12 -25 -1 -24 -2 7 -9 l35 -7 -42 -18 c-23 -10 -40 -22 -37 -26 3 -5 -3
-9 -13 -9 -11 0 -25 -6 -31 -12 -10 -10 -15 -10 -22 2 -5 8 -6 18 -3 23 3 5
-3 4 -14 -1 -16 -9 -28 -6 -59 16 -21 15 -40 30 -42 35 -2 4 -9 7 -16 7 -18 0
-58 45 -49 55 5 4 3 6 -2 2 -6 -3 -17 -2 -25 3 -15 9 -16 9 35 25 8 2 15 9 15
15 0 7 -8 9 -19 5 -11 -3 -22 -1 -26 5 -3 5 2 10 12 11 10 0 25 2 34 4 12 2
19 -6 23 -25 4 -21 11 -28 26 -27 11 1 20 7 20 15 0 20 -33 59 -47 55 -7 -3
-9 3 -6 16 7 29 17 26 55 -13z m548 -2 c0 -8 5 -14 10 -14 6 0 10 -7 10 -15 0
-17 -25 -20 -35 -5 -12 20 -25 9 -19 -15 5 -21 3 -25 -14 -25 -26 0 -52 10
-52 20 0 4 16 26 36 49 29 32 40 39 50 30 8 -6 14 -18 14 -25z m-684 -52 c-9
-8 -34 12 -29 24 4 12 8 11 18 -3 8 -10 12 -19 11 -21z m754 3 c0 -8 -8 -15
-17 -15 -13 0 -15 -3 -5 -8 9 -6 7 -15 -11 -35 -12 -15 -28 -27 -34 -27 -6 0
-17 -10 -25 -22 l-15 -22 -18 27 c-9 15 -24 27 -31 27 -8 0 -14 5 -14 10 0 6
13 10 30 10 22 0 28 -4 24 -15 -7 -18 12 -20 23 -2 4 6 6 20 5 30 -2 10 3 17
13 17 9 0 25 9 37 20 26 24 38 25 38 5z m-194 -4 c-4 -5 0 -12 6 -14 7 -3 0
-6 -17 -6 -29 0 -29 0 -11 14 23 17 30 19 22 6z m-256 -41 c0 -5 -5 -10 -11
-10 -5 0 -7 5 -4 10 3 6 8 10 11 10 2 0 4 -4 4 -10z m314 -77 c4 -10 2 -14 -6
-10 -41 15 -58 17 -58 9 0 -6 6 -12 13 -15 15 -5 5 -18 -18 -21 -9 -1 -20 -8
-24 -15 -11 -17 -48 5 -55 33 -7 27 -2 30 17 11 9 -8 23 -15 32 -15 16 0 16 2
1 25 -17 25 -17 26 9 19 15 -4 25 -2 25 4 0 16 57 -6 64 -25z m-232 -65 c-15
-15 -67 -5 -68 12 -1 34 17 41 48 19 19 -14 26 -25 20 -31z m76 4 c3 -9 -2
-13 -14 -10 -9 1 -19 9 -22 16 -3 9 2 13 14 10 9 -1 19 -9 22 -16z"/>
<path d="M4973 2240 c1 -14 8 -20 24 -20 13 0 34 -7 47 -15 20 -13 25 -13 42
0 18 14 18 14 -6 15 -14 0 -40 9 -58 20 -41 25 -51 25 -49 0z"/>
<path d="M5090 1370 c0 -5 4 -10 9 -10 6 0 13 5 16 10 3 6 -1 10 -9 10 -9 0
-16 -4 -16 -10z"/>
<path d="M5038 1353 c6 -2 18 -2 25 0 6 3 1 5 -13 5 -14 0 -19 -2 -12 -5z"/>
<path d="M4822 992 c-14 -10 -6 -42 12 -42 6 0 19 -11 29 -25 16 -23 16 -24 0
-34 -28 -16 7 -13 36 3 14 8 32 11 40 8 14 -5 14 -3 3 10 -7 9 -26 20 -42 23
-20 4 -32 15 -39 36 -10 30 -17 34 -39 21z"/>
<path d="M4785 920 c-1 -23 4 -30 18 -30 10 0 15 4 12 10 -3 6 1 7 9 4 24 -9
19 13 -6 30 -30 22 -33 21 -33 -14z"/>
<path d="M4906 881 c-3 -5 1 -11 9 -15 9 -3 15 0 15 9 0 16 -16 20 -24 6z"/>
<path d="M5261 1004 c0 -11 3 -14 6 -6 3 7 2 16 -1 19 -3 4 -6 -2 -5 -13z"/>
<path d="M6340 2281 c-92 -36 -124 -56 -184 -116 -120 -121 -171 -288 -141
-472 18 -108 61 -199 129 -272 88 -93 173 -135 318 -160 92 -16 247 19 337 76
50 32 151 128 151 143 0 10 -151 110 -165 110 -5 0 -26 -17 -45 -36 -47 -49
-95 -78 -152 -92 -65 -16 -89 -15 -163 9 -51 16 -73 31 -114 74 -53 56 -63 82
-33 91 22 7 55 20 207 84 11 4 61 25 110 45 50 20 104 43 120 50 17 7 78 33
137 56 59 24 108 48 108 54 0 5 -18 47 -41 92 -53 110 -136 200 -227 245 -64
31 -73 33 -187 35 -95 1 -130 -2 -165 -16z m309 -219 c51 -43 62 -69 34 -78
-10 -3 -42 -17 -71 -30 -29 -13 -55 -24 -57 -24 -2 0 -29 -11 -59 -25 -30 -14
-57 -25 -60 -25 -3 0 -29 -11 -58 -24 -78 -36 -156 -64 -161 -59 -7 7 3 84 16
118 17 48 67 112 108 141 63 43 106 55 188 50 68 -4 77 -8 120 -44z"/>
<path d="M4557 1953 c-10 -10 -8 -43 2 -43 9 0 21 24 21 41 0 11 -14 12 -23 2z"/>
<path d="M4727 1865 c-4 -8 -2 -17 3 -20 6 -4 10 3 10 14 0 25 -6 27 -13 6z"/>
<path d="M5335 1699 c-7 -21 7 -39 32 -39 6 0 9 -9 6 -20 -4 -14 0 -20 10 -20
11 0 15 10 14 40 -2 33 -5 39 -19 34 -12 -3 -18 0 -18 10 0 23 -18 19 -25 -5z"/>
<path d="M910 1556 c0 -8 -6 -17 -12 -20 -7 -3 -4 -5 7 -3 20 2 35 37 16 37
-6 0 -11 -6 -11 -14z"/>
<path d="M5693 1440 c0 -25 2 -35 4 -22 2 12 2 32 0 45 -2 12 -4 2 -4 -23z"/>
<path d="M1180 1380 c0 -12 8 -12 35 0 18 8 17 9 -7 9 -16 1 -28 -3 -28 -9z"/>
<path d="M5692 1360 c0 -19 2 -27 5 -17 2 9 2 25 0 35 -3 9 -5 1 -5 -18z"/>
</g>
</svg>
