<?xml version="1.0" standalone="no"?>
<!DOCTYPE svg PUBLIC "-//W3C//DTD SVG 20010904//EN"
 "http://www.w3.org/TR/2001/REC-SVG-20010904/DTD/svg10.dtd">
<svg version="1.0" xmlns="http://www.w3.org/2000/svg"
 width="658.000000pt" height="167.000000pt" viewBox="0 0 658.000000 167.000000"
 preserveAspectRatio="xMidYMid meet">

<g transform="translate(0.000000,167.000000) scale(0.100000,-0.100000)"
fill="#000000" stroke="none">
<path d="M160 1040 l0 -451 33 3 32 3 0 445 0 445 -32 3 -33 3 0 -451z"/>
<path d="M1652 1465 c-196 -36 -317 -93 -425 -200 -74 -73 -92 -114 -90 -216
1 -99 26 -160 95 -235 44 -47 157 -127 198 -139 14 -4 30 -11 35 -15 18 -14
178 -50 248 -57 58 -5 67 -4 67 11 0 11 -9 16 -32 16 -87 0 -245 43 -330 88
-192 105 -282 286 -217 439 30 71 122 153 233 207 139 68 208 81 421 81 156 0
191 -3 265 -23 93 -25 197 -72 242 -110 23 -20 33 -23 51 -15 20 9 17 13 -48
55 -78 50 -189 92 -302 114 -92 17 -311 17 -411 -1z"/>
<path d="M2670 1034 c0 -442 0 -445 20 -442 20 3 21 10 23 446 l2 442 -22 0
-23 0 0 -446z"/>
<path d="M820 1248 c0 -2 -3 -73 -5 -158 l-5 -155 -281 -3 c-217 -2 -280 -5
-276 -15 3 -9 74 -13 281 -17 l278 -5 1 -150 2 -150 28 -3 27 -3 0 330 0 331
-25 0 c-14 0 -25 -1 -25 -2z"/>
<path d="M2371 766 c-21 -25 -155 -85 -236 -106 -44 -12 -113 -24 -152 -27
-52 -4 -73 -10 -73 -19 0 -25 144 -10 275 28 98 28 255 115 238 132 -11 11
-40 7 -52 -8z"/>
<path d="M422 283 l3 -108 195 -1 c277 -2 270 -2 270 -19 0 -13 -33 -15 -235
-15 -202 0 -235 -2 -235 -15 0 -13 35 -15 255 -15 l255 0 0 45 0 45 -230 0
-230 0 0 80 0 80 28 0 c27 0 27 0 24 -60 -4 -59 -3 -60 22 -60 26 0 26 1 26
75 l0 75 -75 0 -76 0 3 -107z"/>
<path d="M1379 356 c-19 -19 -81 -82 -138 -140 l-105 -106 85 0 84 0 96 96 96
96 77 -78 76 -79 -31 -3 c-26 -3 -40 4 -73 37 -23 23 -47 41 -54 41 -23 0 -11
-26 31 -68 l44 -43 80 3 80 3 -113 120 -114 120 -107 -108 c-98 -98 -110 -108
-140 -105 l-33 3 115 117 c63 64 115 119 115 122 0 18 -41 1 -71 -28z"/>
<path d="M1950 345 l0 -45 200 0 c181 0 230 6 184 24 -9 3 -90 6 -180 6 -139
0 -164 2 -164 15 0 13 28 15 195 15 182 0 196 -1 215 -20 25 -25 25 -32 -1
-56 -17 -15 -40 -19 -130 -22 -60 -3 -109 -8 -109 -13 0 -5 42 -9 93 -9 68 0
101 -5 126 -18 43 -21 48 -35 22 -61 -20 -20 -32 -21 -216 -21 l-195 0 0 51 0
50 33 -3 c28 -3 32 -7 35 -35 l3 -33 122 0 c67 0 132 3 145 6 52 14 14 24
-105 26 l-128 3 3 28 3 27 -76 0 -75 0 0 -75 0 -75 207 0 c189 0 210 2 250 21
24 11 43 24 44 27 0 4 2 17 5 29 2 15 -5 28 -22 42 l-26 21 21 17 c48 40 26
92 -48 113 -20 5 -125 10 -233 10 l-198 0 0 -45z"/>
</g>
</svg>
