<?xml version="1.0" standalone="no"?>
<!DOCTYPE svg PUBLIC "-//W3C//DTD SVG 20010904//EN"
 "http://www.w3.org/TR/2001/REC-SVG-20010904/DTD/svg10.dtd">
<svg version="1.0" xmlns="http://www.w3.org/2000/svg"
 width="3142.000000pt" height="1508.000000pt" viewBox="0 0 3142.000000 1508.000000"
 preserveAspectRatio="xMidYMid meet">

<g transform="translate(0.000000,1508.000000) scale(0.100000,-0.100000)"
fill="#000000" stroke="none">
<path d="M15560 14446 c0 -8 -14 -17 -32 -21 -38 -7 -188 -37 -301 -60 -43 -8
-97 -15 -120 -15 -23 0 -78 -10 -122 -21 -44 -11 -123 -30 -175 -40 -52 -11
-115 -30 -140 -41 -25 -11 -82 -33 -127 -48 -46 -16 -93 -36 -105 -44 -12 -9
-32 -16 -43 -16 -11 0 -35 -9 -53 -20 -18 -11 -68 -34 -111 -50 -44 -17 -84
-37 -90 -44 -6 -7 -33 -21 -59 -31 -26 -10 -63 -29 -82 -44 -65 -49 -115 -81
-126 -81 -6 0 -38 -18 -70 -40 -33 -22 -63 -40 -69 -40 -5 0 -37 -23 -70 -52
-33 -28 -80 -64 -105 -80 -25 -16 -86 -67 -137 -113 -50 -47 -95 -85 -100 -85
-12 0 -125 -118 -146 -152 -10 -15 -30 -34 -45 -42 -15 -8 -61 -53 -102 -102
-160 -189 -213 -256 -241 -309 -12 -22 -40 -65 -63 -95 -50 -65 -101 -149
-146 -240 -17 -36 -37 -72 -45 -80 -14 -17 -88 -171 -100 -210 -4 -14 -22 -54
-40 -90 -38 -75 -80 -182 -90 -225 -3 -16 -23 -75 -45 -130 -46 -121 -61 -171
-100 -345 -17 -74 -35 -153 -40 -175 -26 -111 -43 -416 -24 -435 7 -7 20 -7
40 -1 16 5 41 12 56 15 15 4 42 19 60 34 32 28 100 67 238 138 36 19 79 50 96
69 27 31 145 115 160 115 8 0 92 69 134 109 19 18 47 41 62 51 36 22 227 200
398 370 74 74 162 160 195 190 33 31 78 76 101 100 52 58 228 220 279 258 22
16 74 60 115 98 41 38 91 80 110 94 19 13 72 54 116 90 45 36 101 77 125 93
24 15 76 52 114 83 39 30 106 73 150 95 44 23 94 54 110 69 17 15 48 33 70 40
22 7 54 23 70 36 38 28 307 100 447 119 57 7 146 22 198 32 125 23 337 24 440
1 41 -9 125 -24 185 -32 61 -8 144 -26 185 -39 41 -13 102 -31 135 -41 61 -18
249 -105 295 -136 46 -32 142 -95 208 -137 36 -23 82 -58 101 -76 20 -18 70
-59 111 -89 41 -31 113 -91 160 -134 47 -44 110 -99 140 -124 67 -54 240 -213
368 -338 53 -52 108 -100 123 -108 15 -8 49 -40 75 -71 25 -32 58 -65 73 -74
14 -9 38 -29 52 -45 15 -16 57 -56 95 -89 37 -33 102 -93 145 -134 42 -40 94
-84 116 -96 21 -13 53 -41 70 -63 17 -21 66 -61 109 -88 42 -27 104 -74 137
-104 32 -30 76 -64 98 -75 124 -64 187 -101 227 -131 72 -55 206 -99 223 -73
13 21 11 97 -5 180 -8 41 -24 126 -36 189 -12 63 -28 135 -35 160 -8 25 -17
68 -20 95 -9 64 -32 159 -50 208 -8 20 -20 59 -25 85 -15 65 -42 138 -104 274
-14 31 -26 62 -26 68 0 11 -29 86 -55 145 -8 17 -17 41 -20 55 -4 14 -32 62
-61 107 -30 45 -61 100 -69 123 -8 23 -27 58 -43 78 -15 21 -36 55 -47 76 -44
87 -63 115 -185 272 -25 32 -52 70 -60 85 -18 33 -291 323 -340 362 -19 16
-71 63 -116 105 -95 89 -146 131 -225 187 -32 22 -85 62 -119 88 -35 27 -77
57 -94 67 -72 41 -150 90 -165 104 -9 8 -45 27 -81 42 -36 15 -78 38 -95 50
-36 27 -216 105 -319 138 -40 13 -100 38 -134 55 -56 28 -100 40 -277 76 -38
7 -87 21 -107 29 -20 9 -83 20 -140 26 -248 23 -448 62 -448 87 0 10 -40 13
-175 13 -145 0 -175 -2 -175 -14z"/>
<path d="M15630 12269 c-151 -17 -275 -49 -360 -94 -54 -29 -80 -41 -145 -68
-27 -12 -59 -28 -70 -37 -11 -9 -42 -29 -70 -45 -27 -15 -71 -46 -96 -69 -43
-38 -103 -84 -228 -176 -26 -20 -55 -42 -63 -50 -9 -8 -55 -49 -103 -90 -49
-41 -127 -113 -175 -160 -48 -47 -112 -105 -141 -130 -29 -25 -67 -61 -84 -80
-16 -19 -46 -48 -65 -64 -19 -17 -69 -64 -111 -106 -41 -41 -106 -102 -144
-135 -38 -33 -85 -78 -105 -100 -63 -72 -110 -114 -163 -149 -29 -18 -77 -55
-108 -82 -60 -52 -88 -75 -145 -114 -20 -14 -53 -40 -72 -58 -20 -18 -51 -40
-70 -49 -19 -9 -48 -31 -66 -48 -34 -35 -117 -85 -139 -85 -8 0 -34 -15 -58
-34 -24 -18 -71 -47 -104 -65 -33 -17 -67 -35 -75 -40 -31 -20 -126 -59 -159
-66 -18 -4 -57 -18 -87 -32 -29 -13 -105 -37 -169 -53 -63 -15 -123 -34 -131
-41 -13 -10 -15 -26 -11 -74 7 -82 35 -205 54 -234 13 -21 20 -23 62 -17 25 4
108 13 183 21 75 8 154 19 175 24 21 6 63 16 93 24 30 8 72 22 93 31 20 9 53
23 72 31 19 8 65 19 102 25 37 6 82 17 98 25 41 19 146 55 163 55 17 0 122 49
142 66 8 7 67 33 130 59 63 25 169 73 236 105 66 32 131 61 143 65 13 4 62 30
109 57 87 51 197 108 208 108 4 0 47 24 98 54 50 30 103 58 118 61 15 4 32 13
38 20 6 8 26 17 43 21 18 3 43 15 56 25 13 11 30 19 38 19 7 0 31 9 53 20 22
11 48 20 59 20 11 0 33 11 49 25 56 47 321 121 517 145 50 6 108 16 130 22 25
6 162 11 355 12 280 0 331 -2 460 -22 231 -36 287 -49 430 -103 74 -28 170
-64 214 -79 43 -15 91 -37 106 -48 15 -11 55 -32 88 -46 33 -14 84 -40 113
-57 67 -39 236 -124 268 -134 13 -4 62 -31 110 -59 47 -29 118 -68 156 -86 39
-17 111 -51 160 -75 50 -23 110 -50 135 -59 74 -29 173 -76 210 -101 20 -13
59 -26 90 -29 30 -4 93 -22 140 -40 47 -19 112 -40 145 -49 33 -8 74 -19 90
-25 126 -46 301 -91 375 -96 47 -4 122 -13 167 -21 94 -16 130 -9 137 27 2 13
14 68 26 123 12 55 20 116 19 135 l-4 35 -80 18 c-150 34 -395 123 -461 169
-28 19 -66 40 -85 47 -53 20 -70 29 -119 61 -25 17 -59 37 -77 45 -18 8 -55
36 -84 61 -28 25 -61 49 -74 54 -39 15 -157 99 -210 149 -27 26 -70 59 -95 74
-25 15 -71 51 -104 82 -32 30 -62 55 -66 55 -4 0 -51 45 -106 100 -54 54 -111
104 -126 111 -15 6 -37 26 -47 43 -21 34 -52 64 -375 366 -115 107 -231 212
-260 233 -28 21 -82 67 -121 103 -121 113 -268 236 -325 272 -30 20 -71 48
-90 63 -19 15 -59 37 -88 49 -30 11 -70 32 -90 45 -67 46 -289 104 -442 116
-63 4 -119 8 -125 7 -5 0 -44 -4 -85 -9z"/>
<path d="M15580 10100 c-91 -4 -178 -13 -193 -19 -16 -6 -44 -11 -63 -11 -20
0 -70 -12 -112 -26 -42 -14 -119 -37 -171 -50 -51 -13 -108 -33 -126 -44 -18
-11 -65 -33 -104 -49 -39 -17 -85 -41 -103 -55 -18 -13 -64 -36 -103 -51 -38
-14 -86 -36 -106 -49 -20 -13 -57 -31 -83 -40 -27 -9 -76 -36 -110 -60 -34
-25 -75 -48 -91 -51 -17 -4 -41 -15 -55 -23 -23 -15 -165 -89 -305 -160 -90
-46 -244 -110 -295 -123 -24 -6 -69 -23 -100 -39 -62 -31 -171 -70 -198 -70
-9 -1 -35 -8 -57 -16 -69 -25 -201 -63 -257 -73 -75 -13 -231 -49 -260 -60
-14 -5 -71 -12 -129 -16 -185 -12 -205 -30 -151 -138 17 -34 40 -87 52 -117
25 -70 62 -110 100 -110 154 0 479 33 630 64 169 35 223 44 343 56 59 6 118
15 130 19 13 5 77 19 142 30 66 12 138 26 160 30 22 5 90 16 150 25 61 8 157
23 215 32 58 8 143 20 190 25 47 6 121 17 165 25 44 9 190 20 325 25 135 5
283 13 330 18 114 13 584 13 740 1 69 -6 211 -15 315 -20 252 -14 413 -29 615
-60 30 -4 114 -15 185 -24 185 -23 320 -44 395 -60 209 -47 255 -55 355 -65
61 -7 117 -14 125 -16 19 -6 286 -54 360 -65 113 -17 452 -41 489 -35 22 3 48
16 58 28 32 36 63 93 63 117 0 12 7 35 15 51 8 16 22 42 30 58 8 16 15 36 15
46 0 21 -74 55 -124 55 -68 0 -289 40 -361 65 -22 8 -65 17 -95 20 -30 4 -71
12 -90 20 -48 17 -144 45 -210 61 -68 16 -158 50 -435 164 -49 21 -101 40
-115 44 -14 3 -48 21 -77 40 -29 19 -130 73 -225 119 -95 47 -190 97 -210 110
-20 14 -114 64 -210 111 -95 47 -189 95 -208 106 -128 70 -493 200 -565 200
-18 0 -67 7 -109 15 -101 19 -284 25 -486 15z"/>
<path d="M15440 8550 c-58 -4 -195 -12 -306 -19 -110 -6 -248 -17 -305 -25
-57 -8 -153 -18 -214 -21 -60 -4 -146 -16 -190 -26 -44 -10 -152 -28 -240 -39
-182 -23 -203 -26 -265 -40 -45 -10 -322 -52 -458 -70 -40 -5 -98 -16 -130
-24 -31 -8 -97 -22 -147 -31 -49 -9 -99 -18 -110 -21 -11 -3 -67 -9 -123 -13
-57 -5 -109 -14 -115 -20 -18 -18 37 -114 108 -191 34 -36 73 -83 87 -106 15
-23 41 -52 59 -65 38 -29 127 -114 154 -149 11 -14 40 -41 65 -60 25 -19 74
-61 110 -94 36 -32 82 -67 103 -77 20 -11 37 -23 37 -27 0 -11 119 -98 227
-166 50 -31 99 -66 109 -77 10 -11 36 -29 58 -40 23 -11 60 -30 82 -43 23 -13
52 -27 65 -31 13 -4 47 -23 76 -41 28 -19 93 -50 145 -69 51 -20 108 -43 127
-51 18 -9 73 -27 122 -40 49 -14 118 -38 155 -55 38 -17 130 -42 213 -59 80
-17 175 -37 211 -45 193 -44 500 -59 847 -40 164 10 287 21 310 29 21 7 63 17
93 21 30 4 72 14 94 21 21 8 55 14 75 14 47 0 102 16 176 50 33 15 101 39 150
54 50 15 106 33 125 40 124 48 218 91 235 106 20 18 166 90 183 90 4 0 24 12
43 26 19 14 53 34 77 45 23 10 54 30 68 44 14 14 42 34 62 44 74 39 207 134
281 203 42 38 92 78 111 89 35 18 291 267 423 410 65 70 136 185 137 221 0 20
-48 38 -104 38 -67 0 -296 37 -361 59 -33 11 -105 24 -160 31 -55 6 -134 17
-175 25 -41 7 -104 16 -140 20 -36 3 -99 12 -140 20 -41 7 -142 23 -225 35
-82 12 -192 30 -243 42 -51 11 -146 23 -210 28 -64 5 -151 14 -193 20 -42 6
-150 15 -240 20 -90 6 -191 14 -224 19 -81 12 -654 20 -785 11z"/>
<path d="M6670 4908 c-120 -61 -179 -132 -187 -228 -10 -109 40 -225 115 -267
59 -33 158 -47 228 -33 110 23 204 144 204 262 0 31 -5 69 -11 85 -16 44 -72
105 -134 148 -51 35 -66 40 -124 42 -39 2 -76 -2 -91 -9z"/>
<path d="M28594 4882 c-84 -51 -90 -57 -120 -118 -58 -119 -21 -274 83 -344
100 -68 243 -62 336 14 70 56 91 101 95 201 5 108 -10 140 -98 210 -83 66
-104 75 -178 75 -48 0 -66 -6 -118 -38z"/>
<path d="M416 4854 c-8 -20 -8 -3068 0 -3088 5 -14 31 -16 179 -16 138 0 175
3 185 14 9 11 11 161 11 609 -1 571 0 596 18 618 l19 24 404 6 c333 5 413 9
458 22 30 9 65 17 77 17 39 0 131 40 181 78 26 20 70 48 96 62 46 23 84 58
207 187 118 126 177 294 186 533 5 139 4 151 -27 275 -20 78 -41 141 -55 160
-13 16 -34 53 -49 82 -27 55 -165 199 -251 263 -72 53 -202 118 -260 130 -189
39 -188 39 -786 40 -526 0 -587 -2 -593 -16z m1214 -358 c25 -9 64 -23 86 -30
107 -34 244 -167 285 -276 40 -107 53 -202 41 -299 -12 -98 -45 -206 -71 -236
-10 -11 -30 -40 -44 -65 -36 -62 -113 -125 -183 -150 -186 -66 -168 -64 -552
-65 l-354 0 -24 28 -24 28 0 522 c0 310 4 528 10 537 13 21 150 28 500 25 242
-1 292 -4 330 -19z"/>
<path d="M14566 4854 c-14 -14 -16 -168 -16 -1548 0 -1178 3 -1535 12 -1544 9
-9 223 -12 900 -12 867 0 888 0 898 19 5 11 10 82 10 160 0 128 -2 141 -19
151 -13 6 -250 10 -700 10 -587 0 -682 2 -694 15 -24 23 -29 146 -25 588 l3
409 24 19 c22 18 48 19 642 19 340 0 620 4 623 8 3 5 6 74 7 155 2 107 -1 150
-11 161 -11 14 -83 16 -625 16 -588 0 -614 1 -636 19 l-24 19 -3 469 c-2 257
0 478 3 490 10 42 48 44 668 37 639 -8 731 -4 748 28 7 12 12 82 13 165 1 118
-2 145 -14 153 -9 6 -354 10 -892 10 -784 0 -878 -2 -892 -16z"/>
<path d="M21500 4860 c-22 -14 -26 -3053 -4 -3087 14 -22 19 -23 177 -23 113
0 167 4 175 12 9 9 12 160 12 617 0 682 4 729 63 847 19 38 38 80 42 94 7 25
141 161 200 205 40 29 134 61 222 75 135 22 337 -24 421 -95 62 -52 122 -142
155 -232 l32 -88 0 -705 c0 -388 4 -711 8 -717 10 -16 333 -18 357 -3 13 8 15
87 16 602 2 895 -7 1022 -79 1128 -13 19 -30 53 -36 75 -26 81 -108 177 -226
263 -17 13 -73 39 -125 58 -76 29 -118 38 -218 47 -148 13 -341 -1 -394 -29
-18 -10 -63 -29 -100 -43 -74 -28 -161 -93 -249 -185 -99 -104 -93 -144 -90
555 2 552 1 607 -14 623 -14 13 -41 16 -173 16 -86 0 -164 -5 -172 -10z"/>
<path d="M12182 4534 c-22 -15 -22 -16 -22 -320 0 -293 -1 -305 -20 -322 -17
-14 -48 -18 -188 -22 l-167 -5 -3 -149 c-1 -82 2 -154 7 -159 5 -5 78 -10 163
-10 128 -2 158 -5 180 -19 l27 -18 3 -688 3 -689 49 -99 c80 -160 173 -236
381 -311 49 -17 305 -20 380 -4 75 17 133 40 139 57 3 8 -8 43 -25 77 -17 34
-40 93 -51 131 -23 83 -34 100 -62 91 -12 -3 -50 -10 -86 -15 -156 -22 -269
37 -325 170 -18 42 -19 81 -23 659 -3 568 -2 615 14 632 16 18 34 19 241 19
136 0 232 4 244 10 17 10 19 23 19 161 0 111 -3 151 -12 154 -7 3 -118 6 -247
8 -213 4 -235 6 -248 22 -10 15 -13 84 -13 321 0 262 -2 305 -16 318 -23 23
-309 23 -342 0z"/>
<path d="M3695 3934 c-101 -14 -154 -30 -242 -74 -117 -59 -203 -132 -267
-230 -26 -38 -50 -70 -55 -70 -27 0 -35 36 -36 161 0 101 -3 131 -15 142 -12
10 -49 12 -175 8 l-160 -6 0 -1055 0 -1055 175 -3 c156 -2 176 -1 187 15 10
13 13 155 13 632 0 376 4 641 10 680 11 63 44 134 112 241 54 84 83 107 233
186 84 44 157 54 320 43 79 -5 113 -4 121 4 21 23 91 203 104 266 16 75 10 83
-69 100 -55 11 -214 21 -256 15z"/>
<path d="M4917 3929 c-37 -5 -93 -18 -125 -30 -31 -11 -85 -29 -119 -41 -36
-11 -80 -35 -105 -57 -24 -21 -65 -53 -93 -71 -63 -43 -199 -179 -221 -222 -9
-18 -30 -48 -45 -66 -36 -40 -67 -100 -90 -172 -10 -30 -25 -75 -34 -99 -39
-106 -55 -375 -35 -556 17 -145 95 -377 149 -441 14 -17 53 -68 86 -113 78
-107 241 -234 347 -270 31 -11 76 -31 100 -45 90 -53 304 -79 530 -65 157 10
229 27 311 75 31 18 74 38 95 43 60 17 170 101 283 218 99 103 109 117 171
244 78 160 96 225 108 401 11 154 -2 414 -25 495 -12 42 -97 227 -123 269 -49
79 -94 134 -172 212 -51 50 -96 92 -101 92 -5 0 -31 20 -59 45 -59 52 -75 62
-143 82 -29 8 -57 19 -64 25 -7 5 -45 19 -85 29 -58 16 -115 21 -273 24 -110
2 -231 0 -268 -6z m438 -359 c125 -39 196 -83 292 -184 69 -71 97 -110 129
-176 61 -125 77 -212 76 -410 -1 -176 -15 -275 -50 -332 -10 -18 -28 -58 -38
-88 -14 -39 -34 -69 -70 -105 -29 -27 -59 -62 -69 -77 -9 -15 -49 -49 -89 -76
-214 -145 -570 -143 -793 4 -104 69 -207 190 -233 273 -10 31 -30 82 -45 115
-23 50 -28 76 -34 180 -8 165 3 328 27 396 55 152 123 265 200 328 131 107
188 136 332 167 93 21 275 13 365 -15z"/>
<path d="M8125 3930 c-34 -4 -88 -18 -120 -30 -33 -11 -88 -30 -122 -41 -44
-14 -78 -34 -116 -69 -30 -28 -60 -50 -67 -50 -18 0 -138 -119 -161 -161 -12
-19 -33 -43 -47 -51 -15 -9 -42 -45 -60 -80 -18 -34 -39 -74 -47 -88 -7 -14
-26 -65 -40 -115 -15 -49 -33 -108 -41 -130 -39 -116 -50 -390 -21 -520 58
-260 129 -431 218 -527 24 -26 69 -75 99 -109 30 -34 71 -68 90 -76 19 -8 49
-25 65 -37 17 -12 41 -27 55 -33 14 -6 69 -32 122 -56 111 -52 158 -63 318
-77 202 -17 399 10 533 74 40 19 92 44 117 55 164 76 346 242 405 370 15 30
15 35 -1 52 -9 10 -41 28 -71 39 -30 11 -76 32 -101 47 -26 14 -67 36 -92 49
-51 25 -56 23 -94 -39 -22 -36 -95 -132 -118 -155 -36 -36 -151 -101 -211
-120 -119 -37 -213 -47 -326 -33 -130 16 -221 46 -307 103 -130 87 -218 195
-249 306 -8 31 -22 72 -30 90 -8 18 -21 64 -30 103 -15 76 -11 100 25 119 12
6 206 10 548 10 733 0 1100 9 1118 28 16 15 15 33 -12 227 -34 253 -101 452
-175 524 -20 20 -43 50 -52 66 -20 41 -120 133 -156 146 -16 6 -36 21 -45 34
-30 45 -135 94 -296 136 -58 16 -116 21 -260 24 -102 2 -212 0 -245 -5z m450
-363 c84 -24 178 -82 246 -151 63 -64 129 -214 129 -292 0 -78 32 -74 -622
-74 -571 0 -578 0 -599 21 -16 16 -19 27 -13 52 25 120 86 229 172 308 94 86
136 112 222 137 105 31 110 31 255 27 99 -3 149 -10 210 -28z"/>
<path d="M10460 3930 c-105 -15 -241 -60 -343 -112 -21 -10 -71 -47 -110 -82
-40 -34 -91 -75 -114 -90 -23 -16 -45 -37 -48 -47 -4 -11 -24 -39 -44 -63 -45
-51 -101 -151 -126 -221 -10 -27 -33 -86 -51 -130 -57 -138 -75 -314 -54 -526
10 -93 48 -236 70 -264 4 -5 13 -30 20 -55 16 -61 83 -194 129 -255 21 -27 46
-62 57 -77 17 -24 152 -130 214 -169 14 -9 51 -26 83 -37 31 -12 74 -33 95
-46 20 -13 69 -34 109 -46 138 -40 475 -44 615 -6 83 22 301 133 389 198 87
65 112 92 165 180 21 35 50 78 66 96 52 60 43 74 -89 137 -65 32 -136 66 -159
78 -49 24 -60 19 -85 -37 -10 -23 -41 -65 -68 -94 -27 -28 -52 -61 -56 -72 -4
-11 -30 -36 -58 -55 -29 -19 -62 -42 -74 -51 -32 -23 -196 -64 -285 -71 -90
-7 -218 11 -305 42 -72 26 -194 104 -216 138 -8 13 -46 60 -85 106 -58 68 -72
93 -90 154 -11 40 -32 113 -47 162 -23 81 -26 102 -22 210 4 88 12 146 31 218
36 132 65 207 82 214 8 3 32 31 53 62 83 122 209 213 357 257 43 14 92 18 184
18 140 0 241 -22 333 -71 62 -34 159 -128 186 -181 11 -21 27 -44 36 -52 9 -7
23 -26 31 -42 18 -34 55 -37 99 -8 17 11 39 20 50 20 53 1 205 84 205 112 0
13 -78 144 -121 203 -20 28 -66 75 -103 105 -37 30 -87 73 -111 96 -43 40 -56
47 -185 100 -124 50 -155 55 -360 59 -107 2 -220 0 -250 -5z"/>
<path d="M20005 3934 c-81 -8 -168 -36 -300 -94 -52 -23 -199 -142 -221 -179
-14 -24 -61 -61 -77 -61 -3 0 -13 7 -21 16 -13 12 -16 39 -16 124 0 98 -2 110
-19 120 -29 15 -303 13 -324 -2 -16 -12 -17 -122 -17 -1527 -1 -854 3 -1518 8
-1523 5 -5 89 -7 188 -6 l179 3 3 460 c2 293 -1 504 -8 582 -18 187 3 205 109
95 73 -76 137 -123 192 -141 20 -6 58 -26 85 -43 95 -60 164 -73 389 -73 184
0 206 2 270 24 39 13 90 36 115 52 25 15 57 32 71 38 51 19 175 110 222 162
26 30 61 69 78 87 79 86 108 138 183 332 68 176 80 251 73 460 -7 196 -22 282
-68 380 -17 36 -37 86 -45 111 -8 25 -22 57 -32 70 -10 13 -28 42 -41 63 -43
76 -202 247 -280 301 -23 17 -58 41 -76 54 -42 29 -129 67 -215 92 -65 20
-307 33 -405 23z m309 -368 c44 -14 96 -38 115 -54 20 -16 47 -34 59 -41 38
-20 103 -83 130 -126 50 -78 114 -201 140 -270 26 -68 27 -77 27 -275 l0 -205
-44 -85 c-23 -47 -52 -107 -63 -135 -11 -27 -38 -73 -61 -102 -23 -29 -50 -64
-60 -78 -10 -14 -32 -32 -50 -41 -18 -10 -50 -32 -72 -49 -24 -20 -68 -41
-110 -53 -185 -53 -269 -55 -445 -9 -118 31 -129 36 -205 95 -111 86 -182 180
-222 295 -17 51 -41 119 -54 152 -27 72 -38 258 -20 357 13 79 85 279 119 333
61 97 76 114 139 166 96 78 144 104 253 133 85 23 108 26 220 22 97 -4 143
-11 204 -30z"/>
<path d="M24610 3934 c-157 -20 -354 -91 -437 -157 -29 -23 -76 -60 -104 -82
-28 -22 -74 -68 -101 -102 -27 -35 -53 -63 -57 -63 -4 0 -15 -15 -25 -32 -11
-18 -26 -42 -35 -53 -10 -11 -28 -45 -41 -75 -12 -30 -42 -95 -65 -145 -41
-85 -44 -98 -55 -234 -13 -148 -9 -355 10 -467 8 -52 95 -274 133 -341 37 -65
104 -148 173 -212 80 -74 216 -171 241 -171 7 0 49 -18 92 -40 131 -65 191
-75 456 -75 159 1 244 5 275 14 62 18 289 119 320 142 14 11 54 41 90 68 36
26 93 81 127 122 34 41 80 94 102 119 24 27 52 78 71 125 17 44 38 95 46 114
25 55 56 294 56 421 0 130 -35 372 -58 408 -8 12 -24 51 -35 87 -11 35 -35 83
-54 107 -19 24 -50 67 -70 96 -46 69 -159 182 -227 227 -29 19 -69 49 -89 65
-40 34 -189 94 -289 116 -64 14 -381 27 -450 18z m350 -356 c113 -25 159 -47
262 -125 84 -64 136 -130 197 -252 58 -114 71 -190 71 -393 -1 -196 -11 -254
-64 -373 -20 -44 -36 -85 -36 -91 0 -6 -15 -28 -33 -50 -18 -21 -45 -55 -59
-75 -15 -20 -66 -63 -114 -95 -76 -50 -102 -61 -203 -87 -101 -25 -129 -28
-216 -24 -184 9 -363 74 -445 161 -104 111 -147 164 -158 196 -8 19 -23 58
-34 85 -63 152 -83 349 -54 526 30 178 77 275 191 397 129 137 233 191 414
217 101 14 153 11 281 -17z"/>
<path d="M27115 3929 c-48 -6 -104 -26 -183 -62 -106 -48 -121 -59 -212 -149
-54 -54 -105 -98 -113 -98 -30 0 -40 30 -43 132 -3 66 -9 105 -17 110 -15 10
-308 10 -324 0 -17 -10 -30 -2059 -14 -2090 11 -21 18 -22 179 -22 92 0 172 4
179 8 9 6 13 168 16 662 3 443 8 671 16 705 6 27 29 87 51 132 22 44 40 86 40
91 0 22 129 140 195 179 98 59 181 77 320 70 143 -8 257 -40 321 -92 43 -36
134 -149 134 -168 0 -4 10 -29 23 -55 l22 -47 3 -729 c2 -509 6 -734 14 -743
8 -10 51 -13 173 -13 137 0 165 3 176 16 11 13 13 148 11 722 -3 807 -9 891
-67 1017 -18 39 -36 81 -40 94 -9 30 -93 141 -106 141 -6 0 -34 22 -62 49 -54
51 -123 87 -235 121 -77 24 -343 35 -457 19z"/>
<path d="M29933 3928 c-66 -8 -104 -19 -273 -79 -30 -11 -74 -37 -97 -58 -23
-22 -67 -56 -98 -76 -73 -49 -135 -120 -135 -155 0 -33 27 -59 110 -103 36
-19 94 -50 130 -70 36 -20 68 -37 72 -37 4 0 26 23 49 52 59 75 147 133 259
170 87 29 106 32 225 33 122 0 136 -2 228 -33 159 -55 260 -152 315 -304 51
-143 50 -248 -4 -256 -11 -2 -60 11 -110 27 -188 63 -262 75 -464 75 -192 1
-252 -9 -419 -68 -24 -9 -52 -16 -63 -16 -23 0 -118 -57 -191 -115 -139 -111
-221 -265 -233 -437 -3 -51 -1 -138 4 -193 9 -90 15 -111 61 -207 69 -142 139
-206 341 -311 143 -74 180 -82 395 -82 197 0 281 14 339 59 17 12 60 38 96 57
44 22 93 62 152 121 48 48 94 88 102 88 26 0 36 -36 36 -133 0 -129 -3 -127
182 -127 123 0 148 3 159 17 12 13 14 134 14 692 0 825 -5 877 -104 1062 -45
84 -62 105 -157 189 -98 88 -188 148 -224 150 -8 0 -40 12 -70 26 -100 47
-421 68 -627 42z m472 -1129 c141 -16 214 -42 280 -97 64 -54 73 -76 57 -147
-37 -161 -60 -214 -134 -306 -104 -131 -170 -171 -386 -235 -117 -34 -169 -32
-302 15 -147 52 -206 100 -262 215 -36 75 -39 87 -36 151 3 56 10 83 37 135
41 81 77 119 166 180 76 51 149 79 235 90 86 11 246 11 345 -1z"/>
<path d="M6724 3873 c-109 -3 -155 -7 -163 -17 -7 -9 -11 -393 -13 -1287 -3
-1056 -5 -1280 -17 -1309 -30 -78 -143 -160 -219 -160 -18 0 -54 5 -78 11 -41
11 -48 10 -64 -7 -10 -10 -30 -62 -43 -114 -14 -52 -31 -114 -38 -138 -11 -36
-11 -44 1 -57 39 -38 304 -42 455 -6 56 14 85 28 134 67 114 88 139 114 176
182 73 131 69 50 72 1506 3 978 1 1312 -8 1322 -6 8 -19 13 -28 12 -9 -1 -84
-4 -167 -5z"/>
<path d="M16701 3856 c-9 -11 -11 -210 -9 -793 l3 -778 32 -95 c50 -155 75
-198 166 -288 67 -66 102 -91 187 -135 58 -30 121 -59 141 -66 60 -19 273 -30
389 -19 105 10 137 20 260 88 19 10 56 29 82 40 27 12 83 56 129 101 46 43 91
79 100 79 29 0 39 -33 39 -127 0 -56 4 -93 12 -101 8 -8 60 -12 169 -12 130 0
160 3 173 16 14 14 16 122 16 1040 0 1011 0 1024 -20 1044 -18 18 -33 20 -189
20 -145 0 -170 -2 -175 -16 -3 -9 -6 -299 -6 -645 0 -765 3 -740 -109 -918
-25 -41 -75 -104 -111 -141 -55 -55 -77 -70 -140 -93 -113 -42 -202 -53 -309
-39 -115 16 -217 47 -260 80 -19 15 -49 38 -69 52 -26 19 -42 45 -68 110 -66
164 -64 142 -64 894 0 649 -1 684 -18 699 -16 14 -44 17 -179 17 -126 0 -163
-3 -172 -14z"/>
<path d="M28532 3858 c-6 -9 -11 -369 -13 -1044 -3 -863 -2 -1034 10 -1047 11
-15 37 -17 175 -17 113 0 166 4 174 12 17 17 17 2079 0 2096 -17 17 -332 17
-346 0z"/>
</g>
</svg>
