<?xml version="1.0" standalone="no"?>
<!DOCTYPE svg PUBLIC "-//W3C//DTD SVG 20010904//EN"
 "http://www.w3.org/TR/2001/REC-SVG-20010904/DTD/svg10.dtd">
<svg version="1.0" xmlns="http://www.w3.org/2000/svg"
 width="658.000000pt" height="167.000000pt" viewBox="0 0 658.000000 167.000000"
 preserveAspectRatio="xMidYMid meet">

<g transform="translate(0.000000,167.000000) scale(0.100000,-0.100000)"
fill="#000000" stroke="none">
<path d="M225 865 c0 -168 2 -186 17 -191 10 -3 26 -3 35 0 16 5 18 22 16 188
l-1 183 -34 3 -33 3 0 -186z"/>
<path d="M629 1046 c-2 -2 -3 -88 -1 -190 3 -184 3 -186 25 -186 12 0 27 4 33
8 11 8 14 69 12 285 l-1 87 -32 0 c-17 0 -34 -2 -36 -4z"/>
<path d="M1992 1039 c2 -7 10 -15 17 -17 8 -3 12 1 9 9 -2 7 -10 15 -17 17 -8
3 -12 -1 -9 -9z"/>
<path d="M2607 1043 c-10 -9 -9 -43 1 -43 12 0 32 23 32 37 0 14 -22 18 -33 6z"/>
<path d="M2719 1043 c0 -5 0 -73 1 -153 1 -86 -3 -157 -10 -174 -13 -35 0 -48
44 -44 l29 3 3 179 c3 136 1 182 -8 188 -16 10 -58 10 -59 1z"/>
<path d="M2862 1034 c2 -11 11 -20 22 -22 13 -3 17 1 14 14 -2 11 -11 20 -22
22 -13 3 -17 -1 -14 -14z"/>
<path d="M3230 861 c0 -207 -2 -201 55 -185 18 4 20 14 21 82 0 42 0 86 1 97
0 11 0 58 -1 105 l-1 85 -38 3 -37 3 0 -190z"/>
<path d="M3412 1038 c6 -16 36 -34 44 -26 3 4 4 14 1 23 -7 17 -51 21 -45 3z"/>
<path d="M3619 1043 c-3 -26 3 -291 7 -308 6 -26 69 -69 90 -61 14 5 13 9 -6
33 -20 25 -21 37 -19 183 l2 155 -37 3 c-20 2 -36 0 -37 -5z"/>
<path d="M3857 1043 c-12 -11 -8 -23 8 -23 8 0 15 7 15 15 0 16 -12 20 -23 8z"/>
<path d="M4052 863 c3 -173 4 -188 21 -191 10 -2 29 -1 42 2 21 5 22 8 12 41
-7 25 -7 45 2 75 6 22 8 46 4 53 -4 6 -8 55 -8 107 l-1 95 -37 3 -37 3 2 -188z"/>
<path d="M4460 1043 c-1 -4 -1 -87 -1 -183 0 -188 3 -199 52 -187 l24 6 -2
183 -1 183 -36 3 c-20 2 -36 0 -36 -5z"/>
<path d="M4679 1046 c-2 -2 -3 -86 -1 -186 3 -194 5 -199 55 -187 22 6 22 8
22 192 l0 185 -36 0 c-20 0 -38 -2 -40 -4z"/>
<path d="M5418 1045 c-13 -14 24 -79 111 -195 143 -192 157 -202 145 -107 -5
40 -15 61 -43 93 -20 22 -66 79 -103 127 -62 79 -91 101 -110 82z"/>
<path d="M5870 1048 c0 -2 -2 -85 -3 -186 l-2 -183 24 -6 c45 -11 55 6 50 83
-5 95 -5 256 1 274 4 11 -4 16 -32 18 -21 2 -38 2 -38 0z"/>
<path d="M6226 1029 c-16 -24 -22 -70 -9 -82 11 -11 41 -105 36 -111 -3 -3 4
-21 16 -41 11 -20 21 -51 21 -70 0 -38 20 -55 64 -55 36 0 38 11 15 71 -12 30
-27 70 -34 89 -54 145 -78 206 -85 213 -4 5 -15 -2 -24 -14z"/>
<path d="M398 959 c2 -52 -1 -85 -8 -95 -10 -11 -9 -14 8 -14 32 0 72 55 72
100 0 30 -6 43 -31 64 -17 14 -34 26 -37 26 -4 0 -6 -36 -4 -81z"/>
<path d="M804 990 c7 -37 6 -56 -7 -89 -14 -33 -14 -41 -3 -41 19 0 86 76 86
98 0 27 -26 59 -58 70 l-28 10 10 -48z"/>
<path d="M1280 992 c10 -26 21 -68 25 -93 6 -40 3 -69 -21 -184 l-7 -30 33 30
c43 39 60 82 60 149 0 68 -12 102 -53 144 -46 47 -59 42 -37 -16z"/>
<path d="M2223 1007 c-69 -64 -75 -217 -11 -284 25 -26 68 -50 68 -38 0 2 -10
25 -22 52 -30 68 -30 180 0 247 12 27 22 50 22 52 0 13 -25 -1 -57 -29z"/>
<path d="M4226 1018 c13 -39 7 -117 -10 -143 -21 -31 -20 -35 4 -35 11 0 34
13 51 28 27 24 32 36 33 76 1 42 -3 51 -29 72 -39 31 -59 32 -49 2z"/>
<path d="M5176 973 c28 -80 29 -115 8 -201 -9 -35 -13 -66 -10 -69 10 -10 57
39 72 74 15 35 18 100 8 153 -7 32 -71 110 -91 110 -7 0 -1 -28 13 -67z"/>
<path d="M4971 1002 c-16 -16 -36 -53 -45 -83 -14 -45 -14 -62 -4 -108 12 -53
61 -121 87 -121 13 0 15 26 2 34 -5 4 -14 37 -21 75 -12 70 -3 158 20 200 17
33 -8 35 -39 3z"/>
<path d="M1080 998 c-52 -56 -65 -156 -30 -231 18 -38 56 -75 66 -65 2 3 -3
37 -12 78 -15 71 -11 140 12 218 4 13 2 22 -4 22 -6 0 -21 -10 -32 -22z"/>
<path d="M1556 954 c-4 -9 -9 -64 -11 -123 -3 -58 -7 -134 -10 -168 l-4 -62
23 11 c13 5 29 21 35 35 14 30 15 262 1 297 -11 30 -25 33 -34 10z"/>
<path d="M1819 938 c-16 -30 -29 -251 -15 -261 6 -4 22 -6 36 -5 25 3 25 3 28
126 2 116 -5 162 -28 162 -5 0 -14 -10 -21 -22z"/>
<path d="M1925 886 c-21 -15 -15 -40 14 -56 20 -10 21 -8 21 30 0 43 -6 48
-35 26z"/>
<path d="M3354 885 c-15 -11 -17 -17 -8 -32 6 -10 19 -19 28 -21 12 -3 16 4
16 27 0 37 -11 45 -36 26z"/>
<path d="M794 783 c9 -64 35 -107 69 -111 26 -3 27 -1 21 25 -10 43 -43 116
-57 125 -31 20 -40 9 -33 -39z"/>
<path d="M2000 710 c-14 -34 -9 -46 15 -37 16 7 22 67 6 67 -5 0 -14 -14 -21
-30z"/>
<path d="M2440 715 c0 -8 5 -15 10 -15 6 0 10 7 10 15 0 8 -4 15 -10 15 -5 0
-10 -7 -10 -15z"/>
<path d="M3426 701 c-11 -13 -14 -21 -7 -26 19 -11 51 5 51 26 0 24 -22 25
-44 0z"/>
<path d="M6091 701 c-12 -22 -1 -34 23 -25 20 8 20 18 2 33 -12 10 -17 8 -25
-8z"/>
</g>
</svg>
