<?xml version="1.0" standalone="no"?>
<!DOCTYPE svg PUBLIC "-//W3C//DTD SVG 20010904//EN"
 "http://www.w3.org/TR/2001/REC-SVG-20010904/DTD/svg10.dtd">
<svg version="1.0" xmlns="http://www.w3.org/2000/svg"
 width="754.000000pt" height="362.000000pt" viewBox="0 0 754.000000 362.000000"
 preserveAspectRatio="xMidYMid meet">

<g transform="translate(0.000000,362.000000) scale(0.100000,-0.100000)"
fill="#000000" stroke="none">
<path d="M1759 2558 c-2 -7 -3 -331 -1 -720 l3 -707 442 -3 c243 -2 444 -2
446 -1 2 1 -10 23 -27 49 -49 73 -53 117 -50 459 l3 310 139 3 c84 1 143 -1
149 -7 7 -7 12 -128 15 -308 4 -335 8 -353 69 -374 34 -11 92 -6 125 12 30 16
36 75 41 373 3 158 9 292 14 297 5 5 72 8 149 7 l139 -3 3 -308 c3 -339 -1
-371 -57 -460 -16 -25 -27 -48 -24 -51 10 -9 291 -7 297 2 3 5 -12 32 -34 60
-136 182 -123 461 30 635 57 64 144 122 215 142 114 34 283 17 393 -39 86 -44
192 -155 192 -201 0 -17 -193 -115 -227 -115 -15 0 -32 14 -52 44 -41 59 -86
86 -145 86 -67 0 -119 -30 -153 -87 -26 -45 -28 -56 -28 -153 1 -117 13 -155
66 -206 28 -27 36 -29 109 -29 87 0 108 11 156 88 13 20 30 37 38 37 31 0 233
-98 240 -116 3 -8 -15 -43 -39 -79 -25 -36 -45 -67 -45 -70 0 -11 157 -4 173
8 15 11 17 50 19 412 l3 400 145 0 145 0 5 -325 c3 -179 7 -326 8 -327 1 -2
77 -3 170 -3 92 0 174 -5 182 -10 10 -6 17 -32 20 -82 l5 -73 110 0 110 0 0
720 0 720 -1841 3 c-1469 2 -1843 0 -1845 -10z m560 -665 c18 -25 35 -60 38
-78 4 -25 12 -33 37 -41 31 -9 31 -10 28 -66 -2 -40 2 -64 14 -82 33 -52 20
-56 -161 -56 -187 0 -182 -2 -144 77 16 34 18 47 9 58 -21 26 -8 59 29 71 27
9 35 17 37 42 4 34 53 121 70 122 5 0 25 -21 43 -47z"/>
<path d="M2266 1713 c-2 -3 -25 -5 -50 -5 -42 0 -46 -2 -46 -23 0 -31 17 -41
25 -15 7 22 21 26 27 8 3 -7 19 -13 36 -14 24 -1 32 3 35 20 3 19 5 18 15 -8
10 -23 15 -26 27 -16 15 13 21 50 8 51 -5 0 -22 2 -40 3 -18 2 -34 2 -37 -1z"/>
<path d="M2364 1694 c3 -9 6 -20 6 -25 0 -5 5 -9 10 -9 6 0 10 11 10 25 0 16
-6 25 -16 25 -11 0 -14 -5 -10 -16z"/>
</g>
</svg>
