<?xml version="1.0" standalone="no"?>
<!DOCTYPE svg PUBLIC "-//W3C//DTD SVG 20010904//EN"
 "http://www.w3.org/TR/2001/REC-SVG-20010904/DTD/svg10.dtd">
<svg version="1.0" xmlns="http://www.w3.org/2000/svg"
 width="754.000000pt" height="362.000000pt" viewBox="0 0 754.000000 362.000000"
 preserveAspectRatio="xMidYMid meet">

<g transform="translate(0.000000,362.000000) scale(0.100000,-0.100000)"
fill="#000000" stroke="none">
<path d="M3032 2888 c2 -6 67 -49 144 -95 160 -95 164 -98 213 -125 20 -11 47
-28 61 -38 29 -21 98 -60 106 -60 2 0 3 73 2 163 l-3 162 -263 2 c-187 1 -262
-1 -260 -9z"/>
<path d="M3713 2892 l-63 -3 0 -233 c0 -178 -3 -235 -12 -238 -7 -3 -200 -4
-428 -3 -228 1 -422 -2 -431 -6 -14 -7 -17 -26 -18 -106 -1 -54 3 -104 7 -110
6 -10 110 -13 443 -15 l434 -3 5 -235 5 -235 113 -3 112 -3 0 225 c0 123 3
231 6 240 5 14 54 16 445 16 l439 0 0 114 0 114 -57 4 c-32 2 -228 3 -436 2
-279 -1 -380 2 -387 11 -5 7 -11 110 -12 240 l-3 229 -50 1 c-27 0 -78 -1
-112 -3z"/>
<path d="M3977 2893 c-10 -10 -8 -311 2 -317 12 -8 520 296 521 312 0 9 -58
12 -258 12 -142 0 -262 -3 -265 -7z"/>
<path d="M2766 2883 c-14 -14 -5 -63 16 -83 12 -11 67 -46 121 -78 55 -31 111
-64 126 -73 40 -25 203 -120 230 -135 32 -17 131 -17 131 0 0 7 -12 18 -26 25
-15 6 -137 78 -273 159 -135 81 -250 149 -256 151 -5 2 -22 12 -36 22 -14 10
-29 16 -33 12z"/>
<path d="M4470 2808 c-410 -246 -472 -285 -469 -294 2 -5 29 -8 61 -7 48 2 68
10 140 54 45 29 97 59 113 69 128 74 167 97 220 130 33 21 93 56 133 79 39 23
72 44 72 46 0 3 -30 5 -67 4 -67 0 -70 -2 -203 -81z"/>
<path d="M2764 2737 c-2 -7 -3 -62 -2 -123 l3 -109 198 -3 c121 -1 197 1 197
7 0 8 -221 147 -255 160 -5 2 -28 16 -50 31 -68 46 -85 53 -91 37z"/>
<path d="M4635 2674 c-66 -41 -131 -80 -145 -88 -160 -88 -161 -87 78 -84
l197 3 3 123 c1 67 -1 122 -5 121 -4 -1 -62 -34 -128 -75z"/>
<path d="M2773 2093 c-15 -5 -19 -228 -5 -237 5 -3 80 38 168 90 87 53 176
104 197 115 20 11 37 24 37 29 0 10 -373 13 -397 3z"/>
<path d="M3415 2086 c-20 -13 -152 -92 -210 -126 -16 -9 -97 -57 -180 -107
-82 -49 -169 -100 -192 -113 -24 -13 -43 -27 -43 -32 0 -4 28 -8 62 -8 60 0
65 2 242 108 100 59 245 146 323 192 78 47 140 87 138 90 -8 12 -120 8 -140
-4z"/>
<path d="M4136 2092 c-3 -5 14 -19 37 -32 23 -13 110 -64 192 -113 83 -50 164
-98 180 -107 17 -10 71 -42 120 -73 50 -31 94 -52 98 -48 5 5 7 23 5 41 -3 28
-13 38 -93 87 -49 31 -103 63 -120 73 -16 9 -91 54 -167 99 -126 75 -140 81
-192 81 -30 0 -57 -4 -60 -8z"/>
<path d="M4370 2091 c0 -5 60 -44 133 -86 72 -43 155 -93 184 -111 89 -58 84
-63 81 77 l-3 124 -197 3 c-117 1 -198 -1 -198 -7z"/>
<path d="M3390 1934 c-192 -116 -188 -114 -287 -171 -45 -27 -83 -51 -83 -55
0 -5 122 -8 270 -8 l270 0 0 165 c0 91 -3 165 -7 164 -5 0 -78 -43 -163 -95z"/>
<path d="M3975 2018 c-3 -8 -4 -81 -3 -163 l3 -150 273 -3 c179 -1 272 1 272
8 0 5 -4 10 -10 10 -5 0 -101 55 -212 122 -112 66 -218 129 -236 140 -18 10
-44 26 -58 34 -20 14 -25 14 -29 2z"/>
<path d="M4160 1525 l0 -55 55 0 55 0 0 55 0 55 -55 0 -55 0 0 -55z"/>
<path d="M4667 1573 c-4 -3 -7 -46 -7 -95 0 -48 -2 -88 -5 -88 -3 0 -24 9 -47
21 -53 27 -131 23 -176 -9 -53 -38 -77 -103 -77 -207 0 -81 3 -94 27 -131 56
-87 169 -115 236 -59 36 30 52 32 52 5 0 -17 7 -20 50 -20 l50 0 0 295 0 295
-48 0 c-27 0 -52 -3 -55 -7z m-56 -246 c51 -39 69 -126 40 -192 -22 -49 -45
-65 -94 -65 -94 0 -133 165 -57 242 31 30 82 38 111 15z"/>
<path d="M2767 1434 c-9 -9 -9 -265 0 -329 4 -35 15 -56 39 -80 69 -70 210
-67 279 5 l30 31 3 190 4 189 -46 0 -46 0 0 -169 0 -168 -26 -27 c-35 -34 -83
-35 -121 -2 l-28 24 -5 169 -5 168 -35 3 c-20 2 -39 0 -43 -4z"/>
<path d="M3227 1434 c-4 -4 -7 -106 -7 -226 l0 -219 43 3 42 3 5 72 c3 50 11
79 23 94 23 26 28 22 102 -86 l59 -85 53 0 c30 0 53 5 53 10 0 9 -86 132 -149
212 -12 14 -21 32 -21 39 0 8 39 53 87 101 l88 88 -56 0 -56 0 -74 -76 c-41
-42 -81 -83 -89 -92 -13 -14 -16 -6 -20 74 l-5 89 -35 3 c-20 2 -39 0 -43 -4z"/>
<path d="M3771 1412 c-39 -19 -67 -54 -77 -94 -6 -28 -6 -28 48 -28 45 0 55 3
63 22 12 26 57 40 103 32 68 -13 44 -94 -29 -94 -66 0 -130 -22 -165 -56 -31
-32 -34 -40 -34 -92 0 -51 4 -62 28 -84 53 -51 151 -54 210 -8 26 21 42 19 42
-6 0 -11 14 -14 60 -14 55 0 75 10 50 25 -6 4 -10 71 -10 168 0 184 -4 196
-74 228 -55 25 -168 26 -215 1z m177 -281 c-19 -74 -101 -106 -148 -56 -20 22
-22 27 -10 55 12 30 22 35 120 58 44 11 52 -1 38 -57z"/>
<path d="M4160 1205 l0 -215 55 0 55 0 0 215 0 215 -55 0 -55 0 0 -215z"/>
<path d="M2777 847 c-10 -16 -12 -28 -5 -40 5 -10 7 -26 3 -36 -3 -11 -1 -22
5 -26 9 -6 16 41 12 88 -1 9 3 17 8 17 6 0 10 5 10 10 0 18 -17 11 -33 -13z"/>
<path d="M3577 863 c-15 -14 -5 -20 35 -19 34 1 43 -3 46 -18 4 -17 -1 -18
-42 -14 -40 5 -46 3 -46 -13 0 -15 5 -16 28 -9 40 11 65 -5 57 -37 -4 -18 -2
-24 7 -21 16 6 23 47 10 60 -7 7 -7 17 1 29 9 15 8 21 -8 33 -20 16 -76 21
-88 9z"/>
<path d="M4642 830 c0 -14 2 -19 5 -12 2 6 2 18 0 25 -3 6 -5 1 -5 -13z"/>
<path d="M3234 829 c-3 -6 -1 -16 5 -22 9 -9 14 -8 21 3 9 15 4 30 -10 30 -5
0 -12 -5 -16 -11z"/>
<path d="M3818 833 c-7 -13 3 -103 12 -103 4 0 8 15 8 33 1 17 2 41 4 51 3 19
-16 34 -24 19z"/>
<path d="M4020 812 c0 -20 3 -23 12 -14 25 25 47 14 50 -25 3 -31 6 -34 12
-19 15 32 -5 69 -42 77 -29 6 -32 4 -32 -19z"/>
<path d="M2902 818 c-15 -15 -16 -78 -1 -78 5 0 9 8 8 18 -4 42 1 52 26 52 14
0 25 5 25 10 0 14 -43 13 -58 -2z"/>
<path d="M3023 823 c-7 -2 -13 -14 -13 -26 1 -21 1 -21 15 -3 21 28 45 13 45
-29 0 -19 5 -35 10 -35 17 0 12 87 -6 94 -18 7 -33 7 -51 -1z"/>
<path d="M3100 820 c0 -5 7 -10 15 -10 8 0 15 -8 15 -17 0 -13 3 -14 12 -5 8
8 8 15 -2 27 -14 17 -40 20 -40 5z"/>
<path d="M3318 823 c-30 -8 -20 -21 14 -19 30 1 33 -2 39 -34 6 -32 6 -32 8
-7 0 16 -4 37 -9 48 -11 19 -19 21 -52 12z"/>
<path d="M3430 820 c0 -5 9 -10 20 -10 13 0 18 -5 14 -15 -4 -9 0 -15 10 -15
21 0 20 13 -2 33 -21 19 -42 22 -42 7z"/>
<path d="M3740 820 c0 -5 5 -10 10 -10 6 0 10 5 10 10 0 6 -4 10 -10 10 -5 0
-10 -4 -10 -10z"/>
<path d="M3926 821 c-3 -5 6 -8 19 -8 14 0 25 3 25 8 0 5 -9 9 -19 9 -11 0
-22 -4 -25 -9z"/>
<path d="M4203 820 c-20 -8 -23 -16 -23 -72 0 -61 0 -62 15 -35 11 22 12 32 3
47 -9 14 -9 22 1 34 18 21 48 20 60 -1 9 -15 10 -15 11 -2 0 17 -19 39 -34 38
-6 0 -21 -4 -33 -9z"/>
<path d="M4320 820 c0 -5 12 -10 26 -10 14 0 23 4 19 10 -3 6 -15 10 -26 10
-10 0 -19 -4 -19 -10z"/>
<path d="M4427 823 c-13 -13 -7 -21 13 -16 11 3 27 0 35 -7 18 -15 20 1 3 18
-13 13 -41 16 -51 5z"/>
<path d="M4534 815 c-18 -15 -17 -16 15 -9 23 4 36 2 42 -7 4 -7 11 -10 15 -6
10 10 -16 37 -35 37 -10 0 -26 -7 -37 -15z"/>
<path d="M4710 820 c0 -5 7 -10 15 -10 8 0 15 5 15 10 0 6 -7 10 -15 10 -8 0
-15 -4 -15 -10z"/>
<path d="M2833 805 c-8 -22 6 -33 17 -15 13 20 12 30 0 30 -6 0 -13 -7 -17
-15z"/>
<path d="M3707 813 c-11 -10 -8 -83 3 -83 6 0 10 10 10 23 0 12 3 32 6 45 6
21 -5 30 -19 15z"/>
<path d="M3407 796 c-6 -15 1 -26 15 -26 11 0 10 27 -1 34 -5 3 -11 0 -14 -8z"/>
<path d="M2970 776 c0 -14 -4 -26 -10 -26 -5 0 -10 -5 -10 -12 0 -6 9 -3 20 7
22 20 26 40 10 50 -6 4 -10 -5 -10 -19z"/>
<path d="M3920 790 c0 -12 28 -25 36 -17 3 3 -4 10 -15 17 -15 7 -21 7 -21 0z"/>
<path d="M4295 790 c-8 -13 4 -50 16 -50 5 0 9 14 9 30 0 30 -13 40 -25 20z"/>
<path d="M4362 791 c-10 -6 -6 -10 15 -14 33 -6 44 0 23 13 -18 12 -22 12 -38
1z"/>
<path d="M4674 786 c-4 -10 -1 -24 8 -32 12 -12 14 -11 13 10 0 31 -13 44 -21
22z"/>
<path d="M4747 793 c-12 -11 -8 -23 8 -23 8 0 15 7 15 15 0 16 -12 20 -23 8z"/>
<path d="M3970 756 c0 -9 7 -16 16 -16 17 0 14 22 -4 28 -7 2 -12 -3 -12 -12z"/>
<path d="M3251 744 c0 -11 3 -14 6 -6 3 7 2 16 -1 19 -3 4 -6 -2 -5 -13z"/>
<path d="M3411 744 c0 -11 3 -14 6 -6 3 7 2 16 -1 19 -3 4 -6 -2 -5 -13z"/>
<path d="M4256 751 c-4 -7 -5 -15 -2 -18 9 -9 19 4 14 18 -4 11 -6 11 -12 0z"/>
<path d="M4476 751 c-4 -7 -5 -15 -2 -18 9 -9 19 4 14 18 -4 11 -6 11 -12 0z"/>
<path d="M4590 744 c0 -8 5 -12 10 -9 6 3 10 10 10 16 0 5 -4 9 -10 9 -5 0
-10 -7 -10 -16z"/>
<path d="M3460 740 c0 -5 5 -10 10 -10 6 0 10 5 10 10 0 6 -4 10 -10 10 -5 0
-10 -4 -10 -10z"/>
<path d="M4415 740 c3 -5 8 -10 11 -10 2 0 4 5 4 10 0 6 -5 10 -11 10 -5 0 -7
-4 -4 -10z"/>
<path d="M4522 739 c2 -6 8 -10 13 -10 5 0 11 4 13 10 2 6 -4 11 -13 11 -9 0
-15 -5 -13 -11z"/>
</g>
</svg>
