<?xml version="1.0" standalone="no"?>
<!DOCTYPE svg PUBLIC "-//W3C//DTD SVG 20010904//EN"
 "http://www.w3.org/TR/2001/REC-SVG-20010904/DTD/svg10.dtd">
<svg version="1.0" xmlns="http://www.w3.org/2000/svg"
 width="754.000000pt" height="362.000000pt" viewBox="0 0 754.000000 362.000000"
 preserveAspectRatio="xMidYMid meet">

<g transform="translate(0.000000,362.000000) scale(0.100000,-0.100000)"
fill="#000000" stroke="none">
<path d="M750 2510 l0 -350 125 0 125 0 0 30 c0 47 -19 77 -62 96 -48 21 -98
79 -98 112 0 23 1 24 23 8 29 -21 86 -46 103 -46 20 0 17 38 -3 44 -31 10 -73
52 -84 85 -15 41 -5 50 32 28 17 -9 45 -17 62 -17 l32 1 -31 27 c-28 24 -64
82 -64 103 0 4 18 -1 39 -13 46 -25 78 -19 61 11 -14 27 -12 108 4 155 l13 38
22 -44 c22 -46 28 -122 11 -133 -14 -9 -12 -45 3 -45 6 1 23 7 37 15 35 20 40
19 40 -14 0 -19 -11 -39 -32 -60 -27 -26 -29 -31 -14 -37 9 -3 39 3 66 14 l49
20 -10 -25 c-20 -53 -44 -82 -81 -99 -21 -9 -38 -21 -38 -26 0 -15 65 -8 97
12 18 10 34 16 37 12 10 -17 -26 -73 -66 -102 -49 -36 -56 -49 -57 -107 l-1
-43 204 0 c223 0 223 0 210 58 -9 38 -21 50 -75 77 -36 19 -51 34 -68 71 -12
25 -20 48 -18 50 2 2 28 -9 58 -26 30 -16 62 -30 72 -30 29 0 19 27 -17 50
-40 24 -76 77 -76 110 l0 22 36 -21 c32 -19 84 -29 84 -16 0 3 -15 21 -34 39
-53 53 -54 110 -2 71 11 -8 29 -15 39 -15 17 0 19 5 13 33 -16 76 -18 115 -7
121 6 4 11 18 11 32 0 41 24 27 46 -28 19 -47 20 -54 6 -100 -7 -27 -11 -52
-8 -55 3 -3 24 2 46 12 22 10 43 16 46 13 9 -9 -21 -71 -45 -92 -11 -11 -21
-23 -21 -28 0 -14 39 -9 79 12 21 10 41 17 44 14 6 -7 -27 -70 -50 -96 -8 -9
-28 -22 -44 -28 -16 -7 -29 -16 -29 -21 0 -14 62 -10 90 6 33 19 40 18 40 -1
0 -25 -35 -68 -72 -88 -28 -15 -36 -28 -45 -67 -20 -82 -27 -79 193 -79 215 0
210 -1 197 64 -7 32 -16 42 -58 65 -51 28 -95 80 -95 112 0 22 13 25 29 6 18
-23 88 -50 108 -43 15 6 13 11 -17 36 -71 60 -90 86 -90 127 0 12 6 11 36 -6
34 -21 84 -28 84 -13 0 4 -14 20 -30 35 -27 26 -49 72 -38 82 2 2 17 -2 32
-10 57 -30 66 -16 45 67 -10 38 -8 49 12 93 13 29 24 44 26 35 2 -8 14 -35 25
-59 20 -43 20 -46 4 -89 -21 -59 -10 -70 43 -43 35 18 41 19 41 6 0 -23 -24
-67 -49 -89 -12 -11 -21 -23 -21 -28 0 -14 39 -9 80 11 47 23 51 13 21 -47
-13 -25 -33 -45 -60 -57 -22 -11 -41 -23 -41 -27 0 -15 62 -8 100 12 22 11 40
17 40 12 0 -26 -38 -78 -76 -105 -45 -31 -60 -65 -52 -118 3 -23 6 -24 111
-27 l107 -3 0 351 0 350 -780 0 -780 0 0 -350z"/>
<path d="M4633 2833 c-29 -6 -73 -51 -75 -77 -5 -74 11 -96 92 -123 46 -16 55
-23 58 -46 3 -21 -3 -29 -22 -38 -21 -10 -32 -8 -67 10 l-43 23 -18 -24 c-24
-31 -20 -39 32 -65 54 -28 89 -29 139 -4 53 27 64 45 65 101 1 60 -18 83 -89
106 -61 19 -75 39 -46 68 20 19 22 19 57 3 20 -10 38 -17 39 -15 1 2 8 14 15
27 15 29 5 40 -46 52 -40 9 -54 9 -91 2z"/>
<path d="M2546 2822 c-3 -5 -4 -68 -2 -140 4 -107 8 -136 23 -156 19 -27 89
-56 133 -56 44 0 124 28 136 48 22 34 35 127 32 217 l-3 90 -47 3 -48 3 0
-113 c0 -139 -9 -162 -66 -166 -55 -4 -63 16 -66 158 l-3 115 -42 3 c-22 2
-44 -1 -47 -6z"/>
<path d="M2950 2828 c0 -2 -2 -78 -3 -170 l-2 -166 40 -5 c22 -2 44 -2 49 1 4
2 6 51 3 108 -5 93 2 136 16 101 7 -17 136 -190 152 -203 8 -5 31 -9 52 -9
l38 2 3 171 2 172 -44 0 -45 0 -3 -111 -3 -112 -38 56 c-21 31 -50 68 -63 84
-14 15 -32 40 -42 56 -14 23 -23 27 -64 27 -26 0 -48 -1 -48 -2z"/>
<path d="M3392 2658 l3 -172 40 0 40 0 3 172 2 172 -45 0 -45 0 2 -172z"/>
<path d="M3536 2808 c4 -13 22 -55 40 -95 19 -40 34 -75 34 -78 0 -3 11 -28
25 -57 14 -28 25 -57 25 -64 0 -29 72 -40 93 -15 8 9 31 59 53 111 21 52 51
120 65 150 15 30 24 59 19 63 -4 5 -26 7 -50 5 -40 -3 -43 -5 -57 -48 -14 -46
-28 -81 -44 -112 -5 -10 -9 -26 -9 -37 0 -10 -6 -21 -13 -24 -9 -3 -17 11 -26
42 -14 50 -18 61 -50 134 -21 46 -22 47 -67 47 -42 0 -45 -1 -38 -22z"/>
<path d="M3947 2823 c-4 -3 -7 -80 -7 -169 0 -189 -14 -171 133 -166 l87 3 0
30 c0 29 0 29 -60 29 -53 0 -60 2 -61 20 -1 11 -2 26 -3 33 -1 8 19 14 54 17
54 5 55 6 58 38 l3 32 -54 0 c-29 0 -56 2 -59 5 -2 3 -3 18 0 35 4 29 5 30 63
30 l59 0 0 35 0 35 -103 0 c-57 0 -107 -3 -110 -7z"/>
<path d="M4237 2823 c-2 -5 -3 -82 -3 -173 l1 -165 35 2 c19 1 40 2 45 2 6 1
9 23 6 52 -4 70 11 81 38 27 35 -71 45 -79 95 -82 25 -1 48 0 51 2 2 3 -15 33
-40 68 l-44 64 29 15 c35 18 50 43 50 85 0 41 -24 82 -58 98 -28 13 -198 17
-205 5z m149 -71 c19 -12 25 -47 11 -65 -6 -10 -26 -19 -42 -20 -27 -2 -30 1
-33 31 -2 19 -1 40 2 48 6 15 43 19 62 6z"/>
<path d="M4870 2657 l0 -174 43 1 42 1 3 173 2 172 -45 0 -45 0 0 -173z"/>
<path d="M5022 2793 c3 -36 5 -38 40 -41 l37 -3 3 -131 3 -131 40 0 40 0 5
129 5 129 40 5 c35 4 41 9 45 34 l5 29 17 -24 c92 -127 98 -140 98 -221 0 -42
3 -79 8 -81 4 -2 25 -2 47 0 l40 5 -3 72 -3 73 60 90 c34 50 61 94 61 98 0 3
-23 5 -51 3 -51 -3 -51 -3 -78 -55 -14 -29 -28 -53 -31 -53 -3 0 -19 24 -36
53 l-30 52 -183 3 -182 2 3 -37z"/>
<path d="M2665 2289 c-42 -10 -97 -56 -121 -101 -19 -36 -18 -107 1 -146 30
-59 114 -112 179 -112 41 0 113 35 148 71 15 15 32 46 38 68 37 138 -95 256
-245 220z m126 -98 c35 -36 39 -89 10 -138 -54 -87 -197 -24 -177 79 7 35 32
71 56 81 39 15 82 6 111 -22z"/>
<path d="M3551 2289 c-73 -14 -141 -96 -141 -169 0 -42 34 -114 66 -139 64
-50 127 -62 198 -37 76 26 112 72 118 151 l3 40 -95 0 -94 0 0 -30 c0 -29 2
-30 47 -33 57 -4 62 -23 15 -52 -65 -40 -137 -13 -159 60 -10 33 -9 44 10 83
29 59 79 73 147 41 29 -14 38 -14 64 -3 16 8 30 19 30 25 0 18 -56 53 -102 64
-49 11 -47 11 -107 -1z"/>
<path d="M2980 2126 c0 -117 3 -167 12 -172 10 -7 40 -8 78 -5 6 1 10 30 10
66 l0 64 58 3 c56 3 57 3 60 35 l3 32 -58 3 c-57 3 -58 3 -61 35 l-3 32 63 3
63 3 3 33 3 32 -115 0 -116 0 0 -164z"/>
<path d="M3860 2120 l0 -170 50 0 49 0 3 68 3 67 65 0 65 0 3 -67 c2 -38 7
-68 12 -69 6 0 24 -1 40 -1 17 0 35 1 40 1 6 1 10 65 10 171 l0 170 -50 0 -49
0 -3 -67 -3 -68 -65 0 -65 0 -3 68 -3 67 -49 0 -50 0 0 -170z"/>
<path d="M4346 2243 c-10 -27 -21 -56 -27 -65 -5 -10 -9 -25 -9 -33 0 -8 -4
-23 -9 -33 -11 -19 -61 -154 -61 -163 0 -3 19 -4 43 -3 32 1 45 7 54 24 17 33
24 35 100 30 60 -4 68 -7 71 -27 3 -17 11 -22 43 -25 22 -2 43 0 45 4 7 11
-14 81 -45 148 -4 8 -20 54 -36 103 l-29 87 -61 0 -62 0 -17 -47z m108 -100
c9 -28 16 -57 16 -62 0 -6 -21 -11 -50 -11 -50 0 -50 0 -44 28 4 15 11 31 15
37 5 5 9 17 9 27 0 9 5 29 12 44 14 30 14 30 42 -63z"/>
<path d="M4652 2118 l3 -171 40 0 40 0 5 111 5 111 80 -109 c44 -59 87 -110
95 -112 8 -2 31 -1 52 0 l38 4 0 169 0 169 -45 0 -45 0 0 -110 c0 -60 -4 -110
-8 -110 -4 0 -16 15 -27 33 -10 17 -24 37 -29 43 -19 21 -41 48 -75 97 -33 45
-36 47 -83 47 l-48 0 2 -172z"/>
<path d="M5136 2183 c-20 -60 -40 -115 -43 -123 -3 -8 -14 -36 -23 -62 l-16
-46 38 -4 c45 -4 54 0 59 27 4 17 14 21 70 25 83 6 99 3 99 -20 0 -10 5 -22
11 -26 15 -9 89 -14 89 -6 0 4 -15 48 -34 97 -19 50 -47 125 -62 168 l-29 77
-60 0 -61 0 -38 -107z m123 -18 c30 -92 29 -95 -24 -95 -38 0 -45 3 -45 20 0
11 4 28 9 38 5 9 14 36 20 60 7 23 13 42 16 42 2 0 13 -29 24 -65z"/>
<path d="M750 1758 c0 -448 3 -470 79 -548 67 -68 119 -88 351 -131 167 -32
302 -72 336 -100 8 -6 24 -3 46 10 83 50 193 79 443 117 126 19 182 42 235 95
64 65 70 111 70 557 l0 382 -780 0 -780 0 0 -382z m645 241 c46 -13 121 -85
127 -121 3 -21 5 -19 22 15 69 140 276 155 341 25 44 -89 -19 -188 -120 -188
-50 0 -90 23 -105 61 -19 44 2 83 48 87 37 4 43 -15 12 -38 -28 -20 -25 -46 8
-59 37 -16 77 -5 102 26 25 33 25 56 -1 102 -21 38 -62 61 -108 61 -32 0 -98
-37 -113 -63 -53 -94 -35 -162 56 -207 36 -18 264 -20 314 -2 30 10 37 9 73
-15 39 -25 50 -43 27 -43 -6 0 -20 -8 -30 -17 -17 -15 -28 -16 -116 -5 -209
26 -311 2 -346 -83 -27 -65 22 -160 95 -184 41 -13 116 -1 131 21 47 69 48
100 7 139 -34 32 -81 39 -105 15 -21 -22 -17 -42 12 -61 24 -15 25 -18 11 -33
-35 -35 -97 29 -78 81 17 44 49 62 109 62 62 -1 92 -17 118 -67 29 -55 7 -130
-52 -174 -50 -38 -134 -45 -191 -15 -42 21 -103 85 -103 108 0 7 -4 13 -10 13
-5 0 -10 -6 -10 -13 0 -22 -61 -87 -101 -107 -169 -87 -346 111 -209 235 16
14 36 19 80 20 50 0 63 -4 84 -25 38 -38 42 -71 12 -103 -28 -31 -54 -35 -63
-10 -4 11 1 22 15 31 41 27 16 71 -41 72 -37 0 -87 -49 -87 -84 0 -43 40 -95
83 -106 81 -23 161 28 184 116 9 36 8 50 -3 72 -41 82 -155 108 -352 78 -77
-11 -85 -11 -117 8 -19 11 -35 23 -35 28 0 4 18 19 39 33 36 22 43 23 73 12
19 -6 87 -12 158 -12 159 0 204 18 236 94 11 27 -2 111 -18 111 -4 0 -8 6 -8
13 0 19 -80 67 -111 67 -66 0 -129 -55 -129 -114 0 -55 68 -98 123 -77 32 13
35 37 6 62 -13 11 -19 25 -15 34 12 33 85 -15 86 -57 0 -9 -15 -33 -34 -52
-28 -30 -40 -36 -75 -36 -106 0 -171 97 -126 186 39 80 120 110 220 83z"/>
<path d="M1520 1775 c0 -20 -20 -55 -47 -82 -30 -29 -29 -39 7 -79 16 -19 33
-46 36 -59 8 -33 16 -32 32 5 7 16 27 44 43 61 l30 32 -30 31 c-17 17 -37 48
-46 69 -16 39 -25 47 -25 22z m37 -111 c3 -8 -2 -23 -11 -32 -15 -15 -17 -15
-32 0 -21 21 -11 48 16 48 11 0 23 -7 27 -16z"/>
<path d="M2423 1835 c0 -13 261 -15 2284 -15 2023 0 2283 2 2283 15 0 13 -260
15 -2283 15 -2023 0 -2284 -2 -2284 -15z"/>
<path d="M2460 1625 l0 -85 45 0 c61 0 95 32 95 90 0 57 -26 80 -90 80 l-50 0
0 -85z m89 41 c17 -20 10 -77 -10 -89 -32 -20 -49 -1 -49 53 0 46 2 50 24 50
13 0 29 -6 35 -14z"/>
<path d="M2630 1625 l0 -85 65 0 c50 0 65 3 65 14 0 11 -14 16 -47 18 -40 3
-48 6 -48 23 0 16 8 21 43 23 56 4 51 26 -7 30 -55 4 -49 25 9 32 24 3 45 11
48 18 3 9 -14 12 -62 12 l-66 0 0 -85z"/>
<path d="M2780 1625 c0 -77 2 -85 19 -85 15 0 21 8 23 32 3 26 8 32 33 35 40
6 55 20 55 52 0 39 -18 51 -77 51 l-53 0 0 -85z m88 33 c3 -13 -3 -18 -22 -18
-20 0 -26 5 -26 21 0 15 5 20 22 17 13 -2 24 -11 26 -20z"/>
<path d="M2966 1702 c-8 -13 -56 -144 -56 -153 0 -17 29 -9 40 11 7 13 21 20
40 20 19 0 33 -7 40 -20 10 -19 40 -28 40 -12 0 4 -14 42 -31 85 -23 57 -36
77 -50 77 -10 0 -20 -4 -23 -8z m37 -72 c4 -15 0 -20 -15 -20 -14 0 -18 5 -14
16 3 9 6 20 6 25 0 17 17 1 23 -21z"/>
<path d="M3090 1625 c0 -78 2 -85 20 -85 16 0 20 7 20 35 0 24 5 35 14 35 8 0
24 -16 36 -35 13 -20 30 -35 41 -35 25 0 24 11 -2 44 -20 25 -20 28 -5 45 19
21 21 52 4 69 -7 7 -38 12 -70 12 l-58 0 0 -85z m98 38 c-2 -11 -14 -19 -31
-21 -22 -3 -27 1 -27 17 0 17 6 21 31 21 24 0 30 -4 27 -17z"/>
<path d="M3250 1695 c0 -9 9 -15 25 -15 24 0 25 -2 25 -71 0 -62 2 -70 18 -67
14 3 18 16 20 70 3 59 5 67 24 70 12 2 23 9 26 16 3 9 -15 12 -67 12 -56 0
-71 -3 -71 -15z"/>
<path d="M3400 1624 c0 -76 2 -85 18 -82 14 3 17 13 15 51 -3 57 12 54 22 -4
6 -36 27 -60 41 -46 3 3 12 27 19 54 l13 48 1 -53 c1 -45 4 -53 19 -50 14 3
17 16 20 86 l3 82 -30 0 c-27 0 -30 -4 -41 -51 -14 -56 -24 -52 -35 13 -6 34
-10 38 -36 38 l-29 0 0 -86z"/>
<path d="M3600 1625 l0 -85 65 0 c50 0 65 3 65 14 0 11 -14 16 -47 18 -40 3
-48 6 -48 23 0 16 8 21 43 23 56 4 51 26 -6 30 -29 2 -42 8 -42 18 0 10 12 14
45 14 33 0 45 4 45 15 0 12 -13 15 -60 15 l-60 0 0 -85z"/>
<path d="M3760 1635 c0 -41 0 -78 -1 -82 0 -5 7 -9 15 -11 13 -3 16 7 16 50
l1 53 32 -52 c19 -32 39 -53 49 -53 16 0 18 11 18 85 0 68 -3 85 -14 85 -11 0
-16 -15 -18 -52 l-3 -53 -30 52 c-18 32 -37 53 -47 53 -16 0 -18 -10 -18 -75z"/>
<path d="M3912 1698 c3 -7 14 -14 26 -16 20 -3 22 -9 22 -73 0 -62 2 -69 20
-69 18 0 20 7 20 70 0 68 1 70 25 70 16 0 25 6 25 15 0 12 -15 15 -71 15 -52
0 -70 -3 -67 -12z"/>
<path d="M4150 1690 c-29 -29 -28 -99 3 -128 53 -50 137 -10 137 66 0 53 -29
82 -80 82 -27 0 -47 -7 -60 -20z m88 -22 c17 -17 15 -73 -3 -88 -36 -30 -84
24 -65 74 10 28 46 36 68 14z"/>
<path d="M4320 1625 c0 -69 3 -85 15 -85 10 0 15 11 15 35 0 33 2 35 35 35 46
0 49 27 3 32 -22 2 -34 9 -36 21 -3 14 4 17 37 17 30 0 41 4 41 15 0 12 -13
15 -55 15 l-55 0 0 -85z"/>
<path d="M4540 1690 c-14 -14 -20 -33 -20 -63 0 -53 30 -87 77 -87 43 0 85 51
51 62 -7 3 -20 -5 -30 -16 -27 -33 -53 -11 -53 45 0 41 2 44 28 47 15 2 27 -1
27 -7 0 -6 9 -11 20 -11 26 0 26 26 1 40 -31 16 -79 12 -101 -10z"/>
<path d="M4701 1684 c-46 -59 -10 -144 62 -144 39 0 76 30 79 63 5 78 -16 107
-78 107 -34 0 -47 -5 -63 -26z m101 -30 c10 -21 9 -31 -3 -52 -18 -33 -41 -39
-63 -17 -19 19 -21 66 -4 83 21 21 57 14 70 -14z"/>
<path d="M4870 1626 c0 -70 3 -86 15 -86 11 0 15 13 15 53 0 58 14 50 25 -15
8 -47 41 -54 51 -10 15 71 22 78 23 25 1 -40 5 -53 16 -53 12 0 15 16 15 85 0
84 0 85 -25 85 -21 0 -26 -7 -36 -45 -6 -25 -14 -45 -18 -45 -4 0 -11 19 -17
43 -8 36 -13 42 -36 45 l-28 3 0 -85z"/>
<path d="M5062 1628 c2 -68 6 -83 20 -86 12 -2 17 5 20 30 3 29 7 33 36 36 21
2 38 12 48 28 15 22 15 26 0 49 -14 22 -24 25 -72 25 l-55 0 3 -82z m93 32 c0
-9 -11 -16 -27 -18 -23 -3 -28 1 -28 18 0 17 5 21 28 18 16 -2 27 -9 27 -18z"/>
<path d="M5222 1639 c4 -80 18 -99 74 -99 47 0 64 29 64 107 0 56 -2 63 -20
63 -18 0 -20 -7 -20 -64 0 -68 -7 -81 -40 -71 -17 5 -20 15 -20 71 0 58 -2 64
-21 64 -20 0 -21 -4 -17 -71z"/>
<path d="M5380 1695 c0 -9 9 -15 25 -15 24 0 25 -2 25 -70 0 -63 2 -70 20 -70
18 0 20 7 20 70 0 68 1 70 25 70 16 0 25 6 25 15 0 12 -14 15 -70 15 -56 0
-70 -3 -70 -15z"/>
<path d="M5532 1628 l3 -83 63 -3 c51 -2 62 0 62 13 0 11 -11 15 -46 15 -41 0
-45 2 -42 23 2 17 11 23 41 27 52 7 51 24 0 28 -29 2 -43 8 -43 18 0 10 12 14
45 14 33 0 45 4 45 15 0 12 -14 15 -65 15 l-66 0 3 -82z"/>
<path d="M5690 1625 c0 -78 2 -85 20 -85 16 0 20 7 20 35 0 24 5 35 14 35 8 0
24 -16 36 -35 13 -20 30 -35 41 -35 25 0 24 11 -2 44 -20 25 -20 28 -5 45 19
21 21 52 4 69 -7 7 -38 12 -70 12 l-58 0 0 -85z m98 38 c-2 -11 -14 -19 -31
-21 -22 -3 -27 1 -27 17 0 17 6 21 31 21 24 0 30 -4 27 -17z"/>
<path d="M5930 1690 c-17 -33 -3 -57 42 -72 48 -16 59 -33 28 -43 -14 -4 -28
-1 -39 9 -21 20 -41 21 -41 3 0 -22 34 -47 64 -47 43 0 66 17 66 49 0 32 -16
49 -56 60 -37 10 -43 31 -10 31 14 0 26 -4 26 -10 0 -5 9 -10 20 -10 11 0 20
4 20 9 0 41 -100 58 -120 21z"/>
<path d="M6096 1688 c-9 -12 -16 -41 -16 -63 0 -71 63 -108 118 -69 12 8 22
22 22 30 0 19 -30 18 -45 -3 -28 -37 -74 23 -55 72 7 18 17 25 35 25 14 0 25
-4 25 -10 0 -5 9 -10 20 -10 26 0 26 26 1 40 -35 18 -88 12 -105 -12z"/>
<path d="M6247 1628 c1 -67 4 -84 17 -86 14 -3 16 9 16 82 0 75 -2 86 -17 86
-16 0 -18 -10 -16 -82z"/>
<path d="M6312 1628 l3 -83 63 -3 c51 -2 62 0 62 13 0 11 -11 15 -46 15 -41 0
-45 2 -42 23 2 18 10 23 41 25 53 5 51 32 -3 32 -29 0 -40 4 -40 15 0 11 12
15 45 15 33 0 45 4 45 15 0 12 -14 15 -65 15 l-66 0 3 -82z"/>
<path d="M6470 1624 c0 -76 2 -85 18 -82 12 2 18 16 22 48 l5 45 28 -47 c18
-31 35 -48 47 -48 18 0 20 7 20 85 0 78 -2 85 -19 85 -17 0 -20 -8 -23 -47
l-3 -48 -28 48 c-18 30 -35 47 -47 47 -18 0 -20 -7 -20 -86z"/>
<path d="M6651 1684 c-45 -57 -10 -144 59 -144 29 0 70 29 70 50 0 16 -32 12
-52 -7 -28 -26 -53 -6 -53 42 0 46 24 67 55 47 23 -14 50 -16 50 -4 0 20 -39
42 -73 42 -27 0 -41 -7 -56 -26z"/>
<path d="M6810 1625 l0 -85 65 0 c50 0 65 3 65 14 0 11 -14 16 -47 18 -40 3
-48 6 -48 23 0 16 8 21 43 23 56 4 51 26 -6 30 -29 2 -42 8 -42 18 0 10 12 14
45 14 33 0 45 4 45 15 0 12 -13 15 -60 15 l-60 0 0 -85z"/>
<path d="M3429 1311 c-31 -32 -35 -51 -18 -100 19 -55 70 -67 116 -26 23 21
26 26 13 34 -11 7 -21 5 -36 -10 -25 -23 -52 -16 -60 16 -13 53 19 91 56 67
22 -13 50 -16 50 -4 -1 21 -44 52 -75 52 -9 0 -30 -13 -46 -29z"/>
<path d="M3599 1311 c-31 -31 -36 -64 -18 -104 29 -64 127 -59 149 8 14 43 4
80 -27 105 -36 28 -70 25 -104 -9z m89 -23 c21 -21 14 -66 -13 -84 -24 -16
-27 -16 -45 1 -37 34 -21 95 25 95 12 0 26 -5 33 -12z"/>
<path d="M5578 1333 c-10 -3 -28 -32 -44 -76 -15 -40 -30 -74 -32 -77 -2 -3
-14 8 -27 25 -22 27 -23 31 -9 46 9 10 14 30 12 46 -3 27 -5 28 -68 31 l-65 3
1 -83 c1 -69 4 -84 17 -86 13 -3 17 4 17 32 0 47 19 47 54 1 22 -28 34 -35 61
-35 24 0 38 6 45 20 7 14 21 20 45 20 25 0 35 -5 40 -20 6 -19 25 -26 37 -14
6 5 -49 153 -61 165 -3 3 -14 4 -23 2z m-135 -40 c12 -11 -14 -33 -39 -33 -17
0 -24 6 -24 20 0 15 7 20 28 20 16 0 32 -3 35 -7z m157 -50 c0 -7 -7 -13 -15
-13 -15 0 -21 31 -8 43 8 8 23 -12 23 -30z"/>
<path d="M5724 1328 c-48 -23 -59 -104 -19 -143 31 -32 69 -32 102 1 24 24 25
27 9 36 -12 7 -21 4 -35 -13 -35 -44 -78 14 -55 75 7 18 45 21 61 5 7 -7 20
-8 30 -5 16 7 15 10 -10 32 -30 26 -50 29 -83 12z"/>
<path d="M6103 1330 c-29 -12 -43 -40 -43 -85 0 -75 84 -112 135 -60 30 30 34
92 8 124 -21 24 -68 35 -100 21z m75 -77 c3 -34 -1 -44 -17 -53 -34 -18 -61 3
-61 49 0 46 6 53 45 49 28 -3 30 -6 33 -45z"/>
<path d="M2460 1244 c0 -75 2 -85 17 -82 12 2 17 13 17 38 1 32 4 35 34 38 31
3 32 3 32 -38 0 -33 3 -41 17 -38 9 2 16 6 15 11 -1 4 -2 41 -2 82 0 60 -3 75
-15 75 -10 0 -15 -10 -15 -30 0 -28 -3 -30 -35 -30 -32 0 -35 2 -35 30 0 20
-5 30 -15 30 -12 0 -15 -16 -15 -86z"/>
<path d="M2630 1261 c0 -61 3 -72 22 -85 29 -20 72 -20 92 0 22 22 23 154 1
154 -12 0 -15 -13 -15 -59 0 -62 -14 -86 -44 -75 -20 8 -29 42 -24 94 3 33 0
40 -14 40 -16 0 -18 -10 -18 -69z"/>
<path d="M2800 1246 c0 -68 3 -86 14 -86 11 0 16 15 18 53 l3 52 15 -50 c22
-69 43 -70 62 -3 l16 53 1 -52 c1 -40 5 -53 16 -53 12 0 15 16 15 86 l0 85
-27 -3 c-24 -3 -29 -9 -37 -45 -5 -24 -12 -43 -16 -43 -4 0 -11 19 -16 43 -8
36 -13 42 -36 45 l-28 3 0 -85z"/>
<path d="M3029 1303 c-40 -105 -49 -129 -49 -135 0 -16 30 -7 40 12 13 25 80
29 80 5 0 -17 24 -30 39 -21 5 3 -5 39 -23 84 -25 58 -38 78 -54 80 -16 3 -25
-4 -33 -25z m41 -32 c0 -5 3 -16 6 -25 4 -12 0 -16 -16 -16 -16 0 -20 4 -16
16 3 9 6 20 6 25 0 5 5 9 10 9 6 0 10 -4 10 -9z"/>
<path d="M3162 1248 c2 -66 6 -83 18 -83 11 0 16 13 18 49 l3 49 32 -49 c18
-27 40 -50 50 -52 15 -3 17 6 17 82 0 70 -3 86 -15 86 -11 0 -15 -12 -15 -45
0 -25 -3 -45 -8 -45 -4 0 -18 20 -32 45 -18 33 -31 45 -48 45 -22 0 -22 -2
-20 -82z"/>
<path d="M3762 1248 c2 -65 6 -83 18 -83 11 0 14 11 11 49 -3 58 13 55 23 -4
7 -43 32 -63 47 -39 4 7 11 32 16 54 l7 40 6 -50 c3 -35 9 -50 20 -50 12 0 16
17 18 83 l3 82 -30 0 c-28 0 -32 -4 -42 -45 -13 -52 -25 -51 -34 5 -6 36 -10
40 -36 40 l-30 0 3 -82z"/>
<path d="M3960 1245 c0 -67 3 -85 14 -85 9 0 16 12 18 33 3 28 7 32 34 35 45
4 70 35 58 70 -9 25 -15 27 -67 30 l-57 3 0 -86z m85 35 c0 -9 -11 -16 -27
-18 -23 -3 -28 1 -28 18 0 17 5 21 28 18 16 -2 27 -9 27 -18z"/>
<path d="M4112 1258 c6 -79 20 -98 70 -98 48 0 68 31 68 105 0 58 -2 65 -20
65 -18 0 -20 -7 -20 -65 0 -49 -4 -67 -15 -71 -29 -12 -45 16 -45 77 0 54 -2
59 -21 59 -21 0 -21 -4 -17 -72z"/>
<path d="M4270 1315 c0 -9 9 -15 25 -15 24 0 25 -2 25 -70 0 -56 3 -70 15 -70
12 0 15 14 15 70 0 68 1 70 25 70 16 0 25 6 25 15 0 12 -14 15 -65 15 -51 0
-65 -3 -65 -15z"/>
<path d="M4427 1248 l1 -83 64 0 c49 0 63 3 63 15 0 11 -12 15 -45 15 -39 0
-45 3 -48 23 -3 20 1 22 43 22 60 0 57 24 -3 28 -29 2 -42 8 -42 18 0 10 12
14 45 14 33 0 45 4 45 15 0 12 -14 15 -62 15 l-63 0 2 -82z"/>
<path d="M4580 1245 c0 -69 3 -85 15 -85 10 0 15 11 15 35 0 24 5 35 14 35 8
0 27 -16 42 -35 14 -19 35 -35 45 -35 25 0 24 7 -7 47 -21 27 -23 34 -10 39
21 8 29 39 16 64 -9 17 -21 20 -70 20 l-60 0 0 -85z m96 44 c3 -6 0 -15 -7
-20 -21 -14 -53 -6 -57 14 -3 13 3 17 27 17 16 0 33 -5 37 -11z"/>
<path d="M4812 1248 c3 -70 6 -83 21 -86 15 -3 17 6 17 82 0 80 -1 86 -20 86
-20 0 -21 -5 -18 -82z"/>
<path d="M4880 1245 c0 -68 3 -85 14 -85 11 0 16 15 18 52 l3 52 32 -52 c48
-78 63 -71 63 33 0 67 -3 85 -14 85 -11 0 -16 -14 -18 -47 l-3 -48 -30 48
c-17 27 -37 47 -47 47 -16 0 -18 -11 -18 -85z"/>
<path d="M5032 1318 c3 -7 14 -14 26 -16 19 -3 21 -11 24 -70 2 -54 6 -67 21
-70 15 -3 17 5 17 67 0 69 1 71 25 71 16 0 25 6 25 15 0 12 -15 15 -71 15 -52
0 -70 -3 -67 -12z"/>
<path d="M5192 1248 l3 -83 63 -3 c57 -3 62 -1 62 18 0 19 -5 21 -42 18 -38
-2 -43 0 -46 20 -3 20 1 22 37 22 30 0 41 4 41 15 0 11 -11 15 -40 15 -29 0
-40 4 -40 15 0 11 12 15 45 15 33 0 45 4 45 15 0 12 -14 15 -65 15 l-66 0 3
-82z"/>
<path d="M5842 1318 c3 -7 16 -15 29 -18 22 -5 24 -9 24 -70 0 -54 3 -65 18
-68 15 -3 17 5 17 67 0 69 1 71 25 71 16 0 25 6 25 15 0 12 -15 15 -71 15 -52
0 -70 -3 -67 -12z"/>
<path d="M6000 1255 c0 -41 0 -78 -1 -82 0 -5 7 -9 15 -11 14 -3 16 10 16 82
0 70 -3 86 -15 86 -12 0 -15 -15 -15 -75z"/>
<path d="M6250 1245 c0 -68 3 -85 14 -85 11 0 16 15 18 52 l3 52 32 -52 c48
-78 63 -71 63 33 0 67 -3 85 -14 85 -11 0 -16 -14 -18 -47 l-3 -48 -30 48
c-17 27 -37 47 -47 47 -16 0 -18 -11 -18 -85z"/>
<path d="M3322 1228 c7 -20 68 -23 68 -4 0 12 -10 16 -36 16 -24 0 -34 -4 -32
-12z"/>
<path d="M2073 853 c-7 -3 -13 -11 -13 -19 0 -20 -17 -17 -24 4 -3 9 -3 0 0
-20 4 -30 2 -38 -11 -38 -9 0 -15 9 -15 23 0 31 -5 35 -35 29 -14 -2 -25 -11
-25 -21 -1 -14 -3 -13 -15 3 -20 26 -37 12 -24 -21 5 -14 7 -28 5 -31 -8 -7
-36 25 -36 42 0 28 -28 17 -35 -14 -7 -33 1 -54 17 -44 6 4 35 7 65 7 35 0 57
5 60 13 4 10 9 11 24 1 15 -9 24 -9 40 2 17 10 23 10 29 1 6 -9 12 -9 29 1 22
14 29 39 11 39 -5 0 -10 9 -10 19 0 20 -17 31 -37 24z m17 -53 c0 -5 -7 -10
-15 -10 -8 0 -15 5 -15 10 0 6 7 10 15 10 8 0 15 -4 15 -10z"/>
<path d="M967 844 c-4 -4 -7 -20 -7 -36 0 -22 5 -28 21 -28 12 0 17 4 14 11
-4 6 -10 22 -14 35 -3 14 -10 22 -14 18z"/>
<path d="M990 835 c0 -8 13 -29 30 -47 l29 -33 1 38 c0 25 4 37 14 37 21 0 30
-20 17 -33 -6 -6 -11 -17 -11 -24 0 -25 15 -12 32 27 l17 40 -26 6 c-15 4 -35
1 -47 -6 -14 -9 -21 -10 -24 -1 -5 16 -32 13 -32 -4z"/>
<path d="M1130 811 c0 -11 -3 -26 -6 -34 -7 -18 30 -42 48 -31 7 5 3 11 -13
17 l-24 10 23 4 c26 5 30 23 5 24 -14 0 -13 2 5 9 30 13 28 20 -8 20 -23 0
-30 -5 -30 -19z"/>
<path d="M1214 822 c-16 -10 -26 -46 -18 -67 5 -13 15 -16 40 -12 23 4 34 2
34 -6 0 -7 7 -4 14 6 12 15 15 15 26 2 7 -8 21 -15 31 -15 14 0 19 7 19 29 0
39 -33 63 -76 55 -19 -3 -35 -1 -38 5 -8 13 -17 14 -32 3z m56 -32 c0 -5 -9
-10 -20 -10 -11 0 -20 -5 -20 -12 0 -9 -3 -9 -11 -1 -6 6 -8 16 -5 22 9 14 56
15 56 1z m54 -6 c17 -7 22 -44 6 -44 -5 0 -10 9 -10 19 0 11 -8 22 -17 24 -10
3 -13 5 -6 6 6 0 18 -2 27 -5z"/>
<path d="M1704 811 c-2 -2 -4 -24 -4 -48 0 -42 1 -43 28 -37 35 9 41 14 14 14
-24 0 -30 16 -9 23 18 6 37 -3 37 -19 0 -8 6 -14 14 -14 29 0 46 13 46 34 0
39 -16 51 -70 51 -29 0 -53 -2 -56 -4z m50 -20 c3 -4 17 -6 31 -3 20 3 25 0
25 -17 0 -25 -8 -26 -34 -6 -11 8 -28 15 -38 15 -10 0 -18 5 -18 10 0 12 27
13 34 1z"/>
<path d="M1406 793 c-7 -18 -8 -63 -1 -63 3 0 14 9 25 20 24 24 40 18 40 -13
1 -21 1 -21 14 -4 10 13 16 15 21 7 4 -7 16 -10 26 -7 10 3 22 1 25 -4 8 -14
31 -11 49 8 11 10 19 13 23 6 10 -17 44 -20 50 -5 2 9 -3 12 -14 10 -13 -2
-19 3 -19 17 0 14 6 19 18 17 22 -4 22 17 0 25 -10 4 -21 0 -26 -9 -9 -14 -13
-14 -39 1 -25 14 -30 14 -38 1 -7 -11 -13 -12 -32 -3 -34 17 -115 14 -122 -4z
m184 -28 c0 -26 -14 -33 -25 -15 -9 14 1 40 15 40 5 0 10 -11 10 -25z m-50
-16 c0 -5 -4 -9 -10 -9 -5 0 -10 7 -10 16 0 8 5 12 10 9 6 -3 10 -10 10 -16z"/>
</g>
</svg>
