<svg width="257" height="90" viewBox="0 0 257 90" fill="none" xmlns="http://www.w3.org/2000/svg">
<g clip-path="url(#clip0_2527_2099)">
<path d="M102.708 22.4182C106.48 22.4182 109.755 23.04 112.532 24.2836C115.351 25.5272 117.507 27.3097 118.999 29.6312C120.492 31.9527 121.238 34.7094 121.238 37.9014C121.238 41.0519 120.492 43.8087 118.999 46.1716C117.507 48.4931 115.351 50.2756 112.532 51.5192C109.755 52.7629 106.48 53.3847 102.708 53.3847H92.8829V65.9454H84.7992V22.4182H102.708ZM102.334 46.5447C105.858 46.5447 108.532 45.7985 110.356 44.3061C112.18 42.8138 113.092 40.6788 113.092 37.9014C113.092 35.124 112.18 32.9891 110.356 31.4967C108.532 30.0043 105.858 29.2581 102.334 29.2581H92.8829V46.5447H102.334ZM133.401 22.4182H141.485V59.1054H164.243V65.9454H133.401V22.4182ZM203.25 55.8719H181.487L177.196 65.9454H168.864L188.451 22.4182H196.41L216.06 65.9454H207.603L203.25 55.8719ZM200.576 49.5294L192.368 30.5018L184.223 49.5294H200.576ZM241.854 50.5865V65.9454H233.77V50.7109L216.67 22.4182H225.313L238.061 43.6221L250.932 22.4182H258.891L241.854 50.5865Z" fill="#040B2D"/>
<path d="M32.7273 76.909C50.802 76.909 65.4545 62.2566 65.4545 44.1818C65.4545 26.107 50.802 11.4545 32.7273 11.4545C14.6525 11.4545 0 26.107 0 44.1818C0 62.2566 14.6525 76.909 32.7273 76.909Z" fill="#3758F9"/>
<path d="M51.6575 66.3565L25.2546 31.4037H19.6633V57.9791H24.1363V37.0842L48.1462 69.0612C49.3774 68.2375 50.5502 67.333 51.6575 66.3565Z" fill="url(#paint0_linear_2527_2099)"/>
<path d="M46.6191 31.4037H42.188V57.9903H46.6191V31.4037Z" fill="url(#paint1_linear_2527_2099)"/>
</g>
<defs>
<linearGradient id="paint0_linear_2527_2099" x1="34.807" y1="47.5378" x2="49.675" y2="66.3122" gradientUnits="userSpaceOnUse">
<stop stop-color="white"/>
<stop offset="1" stop-color="white" stop-opacity="0"/>
</linearGradient>
<linearGradient id="paint1_linear_2527_2099" x1="44.4037" y1="31.4037" x2="44.3294" y2="50.9282" gradientUnits="userSpaceOnUse">
<stop stop-color="white"/>
<stop offset="1" stop-color="white" stop-opacity="0"/>
</linearGradient>
<clipPath id="clip0_2527_2099">
<rect width="256.909" height="90" fill="white"/>
</clipPath>
</defs>
</svg>
