<svg width="258" height="91" viewBox="0 0 258 91" fill="none" xmlns="http://www.w3.org/2000/svg">
<g clip-path="url(#clip0_2524_2362)">
<path d="M102.852 23.0666C106.624 23.0666 109.899 23.6884 112.677 24.9321C115.496 26.1757 117.651 27.9582 119.144 30.2797C120.636 32.6012 121.382 35.3578 121.382 38.5499C121.382 41.7004 120.636 44.4572 119.144 46.8201C117.651 49.1416 115.496 50.9241 112.677 52.1677C109.899 53.4113 106.624 54.0331 102.852 54.0331H93.0273V66.5939H84.9436V23.0666H102.852ZM102.479 47.1931C106.002 47.1931 108.676 46.447 110.5 44.9546C112.324 43.4622 113.236 41.3273 113.236 38.5499C113.236 35.7725 112.324 33.6375 110.5 32.1452C108.676 30.6528 106.002 29.9066 102.479 29.9066H93.0273V47.1931H102.479ZM133.546 23.0666H141.629V59.7539H164.388V66.5939H133.546V23.0666ZM203.395 56.5204H181.631L177.34 66.5939H169.008L188.595 23.0666H196.555L216.204 66.5939H207.747L203.395 56.5204ZM200.721 50.1779L192.513 31.1503L184.367 50.1779H200.721ZM241.998 51.235V66.5939H233.914V51.3593L216.814 23.0666H225.458L238.205 44.2706L251.077 23.0666H259.036L241.998 51.235Z" fill="white"/>
<path d="M32.8717 77.5575C50.9464 77.5575 65.5989 62.905 65.5989 44.8302C65.5989 26.7555 50.9464 12.103 32.8717 12.103C14.7969 12.103 0.144409 26.7555 0.144409 44.8302C0.144409 62.905 14.7969 77.5575 32.8717 77.5575Z" fill="white"/>
<path d="M51.8019 67.0049L25.399 32.0522H19.8078V58.6276H24.2807V37.7327L48.2906 69.7097C49.5218 68.8859 50.6946 67.9815 51.8019 67.0049Z" fill="url(#paint0_linear_2524_2362)"/>
<path d="M46.7635 32.0522H42.3324V58.6387H46.7635V32.0522Z" fill="url(#paint1_linear_2524_2362)"/>
</g>
<defs>
<linearGradient id="paint0_linear_2524_2362" x1="34.9514" y1="48.1863" x2="49.8194" y2="66.9607" gradientUnits="userSpaceOnUse">
<stop stop-color="#3056D3"/>
<stop offset="1" stop-color="white" stop-opacity="0"/>
</linearGradient>
<linearGradient id="paint1_linear_2524_2362" x1="44.5481" y1="32.0522" x2="44.4738" y2="51.5767" gradientUnits="userSpaceOnUse">
<stop stop-color="#3056D3"/>
<stop offset="1" stop-color="white" stop-opacity="0"/>
</linearGradient>
<clipPath id="clip0_2524_2362">
<rect width="256.909" height="90" fill="white" transform="translate(0.144409 0.648438)"/>
</clipPath>
</defs>
</svg>
